<svg xmlns="http://www.w3.org/2000/svg" xmlns:xlink="http://www.w3.org/1999/xlink" xmlns:lucid="lucid" width="3000" height="1040"><g transform="translate(400 -160)" lucid:page-tab-id="0_0"><path d="M-500 0h3500v1500H-500z" fill="#fff"/><path d="M-150 440c-13.8 0-25 11.2-25 25v150c0 13.8-11.2 25-25 25 13.8 0 25 11.2 25 25v150c0 13.8 11.2 25 25 25m800 0c13.8 0 25-11.2 25-25V665c0-13.8 11.2-25 25-25-13.8 0-25-11.2-25-25V465c0-13.8-11.2-25-25-25M1570 440c-13.8 0-25 11.2-25 25v150c0 13.8-11.2 25-25 25 13.8 0 25 11.2 25 25v150c0 13.8 11.2 25 25 25m740 0c13.8 0 25-11.2 25-25V665c0-13.8 11.2-25 25-25-13.8 0-25-11.2-25-25V465c0-13.8-11.2-25-25-25" stroke="#3a414a" fill="none"/><path d="M100 760h240v60H100z" fill="none"/><use xlink:href="#a" transform="matrix(1,0,0,1,100,760) translate(42.296296296296305 35.33333333333333)"/><use xlink:href="#b" transform="matrix(1,0,0,1,100,760) translate(134.07407407407408 35.33333333333333)"/><path d="M973.75 844.56h240v60h-240z" fill="none"/><use xlink:href="#c" transform="matrix(1,0,0,1,973.7542964328641,844.5622070072144) translate(76.26543209876543 34.44444444444444)"/><path d="M-93.33 566.67H13.35v106.68H-93.33V566.67z" stroke="#000" stroke-opacity="0" fill="url(#d)"/><path d="M-100 560H20v120h-120V560z" stroke="#879196" stroke-width="2" fill="#007bc0" fill-opacity="0"/><path d="M-6.7 628.3h-16.13c-.15 0-.37-.08-.6-.17v-6.48h-8.27v6.66h-16.13c-.15 0-.37-.08-.6-.17v-6.48h-8.27v6.48c-.22.1-.44.18-.6.18H-73.4v-16.6H-57c.08 0 .15.04.3.1v6.55h8.28v-6.55c.15-.06.22-.1.3-.1h16.42v6.65h8.28v-6.55c.15-.06.22-.1.3-.1H-6.7v16.6zm.22-19.94h-16.64c-1.47 0-3.6 1.2-3.6 3.14v3.52h-1.68v-3.52c0-1.72-1.4-3.14-3.08-3.14h-16.64c-1.47 0-3.6 1.2-3.6 3.14v3.52h-1.68v-3.52c0-1.95-2.13-3.14-3.6-3.14h-16.64c-1.7 0-3.08 1.42-3.08 3.14v17.04c0 1.73 1.4 3.1 3.08 3.1h16.35c1.4 0 3.9-1.07 3.9-3.1v-3.56h1.68v3.56c0 2.03 2.5 3.1 3.9 3.1h16.4c1.63 0 3.02-1.37 3.02-3.1v-3.56h1.68v3.56c0 2.03 2.5 3.1 3.9 3.1H-6.5c1.7 0 3.08-1.37 3.08-3.1V611.5c0-1.72-1.4-3.14-3.08-3.14zm-11.95 14.97h6.67v-6.66h-6.67v6.66zm-.37 3.33h7.48c1.6 0 2.93-1.33 2.93-2.96v-7.4c0-1.63-1.3-2.96-2.92-2.96h-7.48c-1.6 0-2.93 1.33-2.93 2.96v7.4c0 1.63 1.32 2.96 2.93 2.96zm-24.56-3.33h6.6v-6.66h-6.6v6.66zm7.04-10h-7.48c-1.6 0-2.93 1.34-2.93 2.97v7.4c0 1.63 1.32 2.96 2.93 2.96h7.48c1.6 0 2.93-1.33 2.93-2.96v-7.4c0-1.63-1.3-2.96-2.92-2.96zm-32.04 10h6.67v-6.66h-6.66v6.66zm7.04-10h-7.48c-1.6 0-2.93 1.34-2.93 2.97v7.4c0 1.63 1.32 2.96 2.93 2.96h7.48c1.6 0 2.93-1.33 2.93-2.96v-7.4c0-1.63-1.3-2.96-2.92-2.96z" stroke="#000" stroke-opacity="0" fill="#78ffff"/><use xlink:href="#e" transform="matrix(1,0,0,1,-130,689) translate(4.938271604938279 17.77777777777778)"/><use xlink:href="#f" transform="matrix(1,0,0,1,-130,689) translate(70.24691358024691 17.77777777777778)"/><use xlink:href="#g" transform="matrix(1,0,0,1,-130,689) translate(160.2469135802469 17.77777777777778)"/><path d="M2186.67 565.07h106.68v106.67h-106.68V565.08z" stroke="#000" stroke-opacity="0" fill="url(#h)"/><path d="M2180 558.4h120v120h-120v-120z" stroke="#879196" stroke-width="2" fill="#007bc0" fill-opacity="0"/><path d="M2273.3 626.7h-16.13c-.15 0-.37-.1-.6-.18v-6.47h-8.27v6.65h-16.13c-.15 0-.37-.1-.6-.18v-6.47h-8.27v6.47c-.22.1-.44.18-.6.18h-16.12v-16.62H2223c.08 0 .15.05.3.12v6.54h8.28v-6.54c.15-.07.22-.12.3-.12h16.42v6.66h8.28v-6.54c.15-.07.22-.12.3-.12h16.42v16.62zm.22-19.95h-16.64c-1.47 0-3.6 1.2-3.6 3.15v3.5h-1.68v-3.5c0-1.73-1.4-3.15-3.08-3.15h-16.64c-1.47 0-3.6 1.2-3.6 3.15v3.5h-1.68v-3.5c0-1.96-2.13-3.15-3.6-3.15h-16.64c-1.7 0-3.08 1.42-3.08 3.15v17.04c0 1.72 1.4 3.1 3.08 3.1h16.35c1.4 0 3.9-1.08 3.9-3.1v-3.57h1.68v3.57c0 2.02 2.5 3.1 3.9 3.1h16.4c1.63 0 3.02-1.38 3.02-3.1v-3.57h1.68v3.57c0 2.02 2.5 3.1 3.9 3.1h16.34c1.7 0 3.08-1.38 3.08-3.1V609.9c0-1.73-1.4-3.15-3.08-3.15zm-11.95 14.97h6.67v-6.66h-6.67v6.66zm-.37 3.33h7.48c1.6 0 2.93-1.33 2.93-2.96v-7.4c0-1.64-1.3-2.97-2.92-2.97h-7.48c-1.6 0-2.93 1.33-2.93 2.96v7.4c0 1.62 1.32 2.95 2.93 2.95zm-24.56-3.33h6.6v-6.66h-6.6v6.66zm7.04-10h-7.48c-1.6 0-2.93 1.34-2.93 2.97v7.4c0 1.62 1.32 2.95 2.93 2.95h7.48c1.6 0 2.93-1.33 2.93-2.96v-7.4c0-1.64-1.3-2.97-2.92-2.97zm-32.04 10h6.67v-6.66h-6.66v6.66zm7.04-10h-7.48c-1.6 0-2.93 1.34-2.93 2.97v7.4c0 1.62 1.32 2.95 2.93 2.95h7.48c1.6 0 2.93-1.33 2.93-2.96v-7.4c0-1.64-1.3-2.97-2.92-2.97z" stroke="#000" stroke-opacity="0" fill="#78ffff"/><use xlink:href="#e" transform="matrix(1,0,0,1,2150,687.392710170488) translate(4.938271604938279 17.77777777777778)"/><use xlink:href="#f" transform="matrix(1,0,0,1,2150,687.392710170488) translate(70.24691358024691 17.77777777777778)"/><use xlink:href="#i" transform="matrix(1,0,0,1,2150,687.392710170488) translate(160.2469135802469 17.77777777777778)"/><path d="M426.67 566.67h106.68v106.68H426.67V566.67z" stroke="#000" stroke-opacity="0" fill="url(#j)"/><path d="M420 560h120v120H420V560z" stroke="#879196" stroke-width="2" fill="#007bc0" fill-opacity="0"/><path d="M513.3 628.3h-16.13c-.15 0-.37-.08-.6-.17v-6.48h-8.27v6.66h-16.13c-.15 0-.37-.08-.6-.17v-6.48h-8.27v6.48c-.22.1-.44.18-.6.18H446.6v-16.6H463c.08 0 .15.04.3.1v6.55h8.28v-6.55c.15-.06.22-.1.3-.1h16.42v6.65h8.28v-6.55c.15-.06.22-.1.3-.1h16.42v16.6zm.22-19.94h-16.64c-1.47 0-3.6 1.2-3.6 3.14v3.52h-1.68v-3.52c0-1.72-1.4-3.14-3.08-3.14h-16.64c-1.47 0-3.6 1.2-3.6 3.14v3.52h-1.68v-3.52c0-1.95-2.13-3.14-3.6-3.14h-16.64c-1.7 0-3.08 1.42-3.08 3.14v17.04c0 1.73 1.4 3.1 3.08 3.1h16.35c1.4 0 3.9-1.07 3.9-3.1v-3.56h1.68v3.56c0 2.03 2.5 3.1 3.9 3.1h16.4c1.63 0 3.02-1.37 3.02-3.1v-3.56h1.68v3.56c0 2.03 2.5 3.1 3.9 3.1h16.34c1.7 0 3.08-1.37 3.08-3.1V611.5c0-1.72-1.4-3.14-3.08-3.14zm-11.95 14.97h6.67v-6.66h-6.67v6.66zm-.37 3.33h7.48c1.6 0 2.93-1.33 2.93-2.96v-7.4c0-1.63-1.3-2.96-2.92-2.96h-7.48c-1.6 0-2.93 1.33-2.93 2.96v7.4c0 1.63 1.32 2.96 2.93 2.96zm-24.56-3.33h6.6v-6.66h-6.6v6.66zm7.04-10h-7.48c-1.6 0-2.93 1.34-2.93 2.97v7.4c0 1.63 1.32 2.96 2.93 2.96h7.48c1.6 0 2.93-1.33 2.93-2.96v-7.4c0-1.63-1.3-2.96-2.92-2.96zm-32.04 10h6.67v-6.66h-6.66v6.66zm7.04-10h-7.48c-1.6 0-2.93 1.34-2.93 2.97v7.4c0 1.63 1.32 2.96 2.93 2.96h7.48c1.6 0 2.93-1.33 2.93-2.96v-7.4c0-1.63-1.3-2.96-2.92-2.96z" stroke="#000" stroke-opacity="0" fill="#78ffff"/><use xlink:href="#k" transform="matrix(1,0,0,1,390,689) translate(32.74691358024691 17.77777777777778)"/><use xlink:href="#l" transform="matrix(1,0,0,1,390,689) translate(88.11728395061729 17.77777777777778)"/><use xlink:href="#m" transform="matrix(1,0,0,1,390,689) translate(48.08641975308642 44.44444444444444)"/><path d="M960 478.7h100v97.4H960v-97.4z" stroke="#000" stroke-opacity="0" fill="url(#n)"/><path d="M1016.26 550.13v-8.8h3.1v8.8c0 6.06-11.3 9.3-21.88 9.3-10.6 0-21.88-3.24-21.88-9.3v-43.95c0-6 11.28-9.17 21.88-9.17s21.88 3.2 21.88 9.18v12.24h-3.1v-7.37c-4.06 2.8-11.56 4.3-18.78 4.3-7.16 0-14.66-1.5-18.78-4.3v10.37c1.17 1.93 4.67 4.5 9.97 5.43l-.62 3c-3.64-.7-6.95-2.13-9.35-3.94v10.7c1.85 3.04 9.2 6.23 18.43 6.23 9.02 0 13.76-2 13.83-2.06l1.3 2.8c-.2.07-5.36 2.32-15.13 2.32-7.36 0-14.38-1.95-18.43-4.94v9.17c0 2.63 7.15 6.25 18.78 6.25s18.78-3.63 18.78-6.25zm25.6-28.65c1.37 0 2.54 1.12 2.54 2.5v11.8c0 1.37-1.17 2.5-2.55 2.5h-12.04c-1.36 0-2.53-1.13-2.53-2.5v-2.07h-1.65v2.07c0 1.38-1.1 2.5-2.55 2.5h-12.1c-1.38 0-2.55-1.12-2.55-2.5v-2.06h-1.52v2.07c0 1.38-1.17 2.5-2.6 2.5h-12.05c-1.45 0-2.55-1.12-2.55-2.5v-11.8c0-1.37 1.1-2.5 2.55-2.5h12.04c1.43 0 2.6 1.13 2.6 2.5v2.07h1.52v-2.06c0-1.38 1.17-2.5 2.54-2.5h12.1c1.46 0 2.56 1.12 2.56 2.5v2.06h1.58v-2.06c0-1.38 1.17-2.5 2.55-2.5zm-.56 13.73v-10.66h-11v4.56h-7.78v-4.56h-10.94v4.56h-7.84v-4.56H992.8v10.67h10.94v-4.55h7.84v4.56h10.94v-4.55h7.9v4.56zm-43.82-35.14c-11.63 0-18.78 3.56-18.78 6.12s7.15 6.12 18.78 6.12 18.78-3.56 18.78-6.12-7.15-6.12-18.78-6.12zm20.9 25.98c1.4 0 2.56 1.12 2.56 2.5v2.68c0 1.37-1.17 2.5-2.55 2.5h-2.7c-1.43 0-2.6-1.13-2.6-2.5v-2.7c0-1.36 1.17-2.48 2.6-2.48zm16.04 7.67c-1.37 0-2.54-1.1-2.54-2.48v-2.7c0-1.36 1.17-2.48 2.54-2.48h2.76c1.37 0 2.54 1.12 2.54 2.5v2.68c0 1.37-1.17 2.5-2.54 2.5zm-34.8-7.66c1.44 0 2.54 1.12 2.54 2.5v2.68c0 1.37-1.1 2.5-2.55 2.5h-2.67c-1.45 0-2.55-1.13-2.55-2.5v-2.7c0-1.36 1.1-2.48 2.55-2.48zm-2.14 4.62h1.58v-1.56h-1.58zm18.78 0h1.58v-1.56h-1.58zm18.78 0h1.52v-1.56h-1.52z" stroke="#000" stroke-opacity="0" fill="#78ffff"/><use xlink:href="#o" transform="matrix(1,0,0,1,930,585.0890652557321) translate(41.82098765432099 17.77777777777778)"/><path d="M402.62 598.24H21.5v-1h381.12z" stroke="#3a414a" stroke-width=".05" fill="#3a414a"/><path d="M21.5 598.24H21v-1h.5z" fill="#3a414a"/><path d="M21.54 598.26h-.56v-1.05h.56zm-.52-1v.95h.47v-.94z" stroke="#3a414a" stroke-width=".05" fill="#3a414a"/><path d="M417.38 597.74l-14.26 4.63v-9.27z" fill="#3a414a"/><path d="M419 597.74l-16.38 5.32V592.4zm-15.38 3.94l12.14-3.94-12.14-3.95z" stroke="#3a414a" stroke-width=".05" fill="#3a414a"/><use xlink:href="#p" transform="matrix(1,0,0,1,145.55555555555566,572.4044679600236) translate(0 14.222222222222207)"/><path d="M160.8 620.5H37.4v-1h123.44zm257.7 0H279.2v-1h139.3z" stroke="#3a414a" stroke-width=".05" fill="#3a414a"/><path d="M419 620.5h-.5v-1h.5z" fill="#3a414a"/><path d="M419.02 620.52h-.56v-1.04h.56zm-.5-1v.96h.46v-.96z" stroke="#3a414a" stroke-width=".05" fill="#3a414a"/><path d="M36.88 624.63L22.62 620l14.26-4.63z" fill="#3a414a"/><path d="M37.38 625.32L21 620l16.38-5.32zM24.24 620l12.14 3.95v-7.9z" stroke="#3a414a" stroke-width=".05" fill="#3a414a"/><use xlink:href="#q" transform="matrix(1,0,0,1,160.81481481481484,609.3333333333334) translate(0 14.222222222222218)"/><use xlink:href="#r" transform="matrix(1,0,0,1,160.81481481481484,609.3333333333334) translate(53.333333333333314 14.222222222222218)"/><path d="M1666.67 565.07h106.68v106.67h-106.68V565.08z" stroke="#000" stroke-opacity="0" fill="url(#s)"/><path d="M1660 558.4h120v120h-120v-120z" stroke="#879196" stroke-width="2" fill="#007bc0" fill-opacity="0"/><path d="M1753.3 626.7h-16.13c-.15 0-.37-.1-.6-.18v-6.47h-8.27v6.65h-16.13c-.15 0-.37-.1-.6-.18v-6.47h-8.27v6.47c-.22.1-.44.18-.6.18h-16.12v-16.62H1703c.08 0 .15.05.3.12v6.54h8.28v-6.54c.15-.07.22-.12.3-.12h16.42v6.66h8.28v-6.54c.15-.07.22-.12.3-.12h16.42v16.62zm.22-19.95h-16.64c-1.47 0-3.6 1.2-3.6 3.15v3.5h-1.68v-3.5c0-1.73-1.4-3.15-3.08-3.15h-16.64c-1.47 0-3.6 1.2-3.6 3.15v3.5h-1.68v-3.5c0-1.96-2.13-3.15-3.6-3.15h-16.64c-1.7 0-3.08 1.42-3.08 3.15v17.04c0 1.72 1.4 3.1 3.08 3.1h16.35c1.4 0 3.9-1.08 3.9-3.1v-3.57h1.68v3.57c0 2.02 2.5 3.1 3.9 3.1h16.4c1.63 0 3.02-1.38 3.02-3.1v-3.57h1.68v3.57c0 2.02 2.5 3.1 3.9 3.1h16.34c1.7 0 3.08-1.38 3.08-3.1V609.9c0-1.73-1.4-3.15-3.08-3.15zm-11.95 14.97h6.67v-6.66h-6.67v6.66zm-.37 3.33h7.48c1.6 0 2.93-1.33 2.93-2.96v-7.4c0-1.64-1.3-2.97-2.92-2.97h-7.48c-1.6 0-2.93 1.33-2.93 2.96v7.4c0 1.62 1.32 2.95 2.93 2.95zm-24.56-3.33h6.6v-6.66h-6.6v6.66zm7.04-10h-7.48c-1.6 0-2.93 1.34-2.93 2.97v7.4c0 1.62 1.32 2.95 2.93 2.95h7.48c1.6 0 2.93-1.33 2.93-2.96v-7.4c0-1.64-1.3-2.97-2.92-2.97zm-32.04 10h6.67v-6.66h-6.66v6.66zm7.04-10h-7.48c-1.6 0-2.93 1.34-2.93 2.97v7.4c0 1.62 1.32 2.95 2.93 2.95h7.48c1.6 0 2.93-1.33 2.93-2.96v-7.4c0-1.64-1.3-2.97-2.92-2.97z" stroke="#000" stroke-opacity="0" fill="#78ffff"/><use xlink:href="#k" transform="matrix(1,0,0,1,1630,687.392710170488) translate(32.74691358024691 17.77777777777778)"/><use xlink:href="#l" transform="matrix(1,0,0,1,1630,687.392710170488) translate(88.11728395061729 17.77777777777778)"/><use xlink:href="#m" transform="matrix(1,0,0,1,1630,687.392710170488) translate(48.08641975308642 44.44444444444444)"/><path d="M1897.68 618.9H1781.5v-1h116.18zm264.94 0h-100.3v-1h100.3z" stroke="#3a414a" stroke-width=".05" fill="#3a414a"/><path d="M1781.5 618.9h-.5v-1h.5z" fill="#3a414a"/><path d="M1781.54 618.92h-.57v-1.05h.57zm-.5-1v.95h.45v-.95z" stroke="#3a414a" stroke-width=".05" fill="#3a414a"/><path d="M2177.38 618.4l-14.26 4.63v-9.27z" fill="#3a414a"/><path d="M2179 618.4l-16.38 5.32v-10.65zm-15.38 3.94l12.14-3.95-12.14-3.95z" stroke="#3a414a" stroke-width=".05" fill="#3a414a"/><use xlink:href="#t" transform="matrix(1,0,0,1,1897.679012345679,607.7260435038214) translate(0 14.222222222222223)"/><path d="M-1.68 1020h-76.64c-.88 0-1.68-.76-1.68-1.7v-5.12c0-18.18 11.92-33.43 29.52-37.7.48-.1.88-.05 1.28.17 5.92 3.2 12.48 3.2 18.4 0 .4-.22.8-.26 1.2-.17C-11.92 979.75 0 995 0 1013.18v5.13c0 .94-.8 1.7-1.68 1.7zm-74.88-3.43h73.12v-3.4C-3.36 996.83-14 983.1-29.76 979c-3.36 1.64-6.48 2.4-10.24 2.4s-6.88-.7-10.24-2.4c-15.76 4.1-26.4 17.82-26.32 34.18z" stroke="#fff" stroke-opacity="0" fill="#232f3e"/><path d="M-40 981.3c-3.67 0-6.8-.78-10.03-2.56-9.95-5.58-13.5-18.2-7.93-28.17 5.58-9.95 18.17-13.5 28.1-7.93 6.72 3.76 10.56 10.33 10.56 18.05 0 7.76-3.93 14.36-10.74 18.04-3.22 1.73-6.32 2.56-9.95 2.56zm0-37.83c-6.6-.17-12.26 3.18-15.44 8.96-4.5 8.4-1.4 18.8 6.94 23.34 5.4 2.93 11.36 2.93 16.77 0 5.7-3.1 9-8.68 8.96-15.2-.04-9.5-7.77-17.14-17.22-17.1z" stroke="#fff" stroke-opacity="0" fill="#232f3e"/><use xlink:href="#u" transform="matrix(1,0,0,1,-110,1029) translate(41.69753086419753 17.77777777777778)"/><path d="M-39.5 939.53h-1v-92.58h1zm0-113.9h-1V697.37h1z" stroke="#3a414a" stroke-width=".05" fill="#3a414a"/><path d="M-39.5 940.03l-.26-.02-.74.07v-.56h1z" fill="#3a414a"/><path d="M-39.48 940.06l-.28-.03-.77.06v-.6h1.05zm-1-.52v.5l.73-.06.23.02v-.46z" stroke="#3a414a" stroke-width=".05" fill="#3a414a"/><path d="M-35.37 696.9h-9.27L-40 682.6z" fill="#3a414a"/><path d="M-34.68 697.4h-10.64L-40 681zm-9.27-1h7.9L-40 684.23z" stroke="#3a414a" stroke-width=".05" fill="#3a414a"/><use xlink:href="#v" transform="matrix(1,0,0,1,-146.96296296296293,825.6178718400942) translate(0 14.222222222222221)"/><use xlink:href="#w" transform="matrix(1,0,0,1,-146.96296296296293,825.6178718400942) translate(65.03703703703702 14.222222222222221)"/><path d="M1838.32 1000h-76.64c-.88 0-1.68-.76-1.68-1.7v-5.12c0-18.18 11.92-33.43 29.52-37.7.48-.1.88-.05 1.28.17 5.92 3.2 12.48 3.2 18.4 0 .4-.22.8-.26 1.2-.17 17.68 4.27 29.6 19.52 29.6 37.7v5.13c0 .94-.8 1.7-1.68 1.7zm-74.88-3.43h73.12v-3.4c.08-16.35-10.56-30.07-26.32-34.17-3.36 1.64-6.48 2.4-10.24 2.4s-6.88-.7-10.24-2.4c-15.76 4.1-26.4 17.82-26.32 34.18z" stroke="#fff" stroke-opacity="0" fill="#232f3e"/><path d="M1800 961.3c-3.67 0-6.8-.78-10.03-2.56-9.95-5.58-13.5-18.2-7.93-28.17 5.58-9.95 18.17-13.5 28.1-7.93 6.72 3.76 10.56 10.33 10.56 18.05 0 7.76-3.92 14.36-10.74 18.04-3.22 1.73-6.32 2.56-9.95 2.56zm0-37.83c-6.6-.17-12.26 3.18-15.44 8.96-4.5 8.4-1.4 18.8 6.94 23.34 5.4 2.93 11.36 2.93 16.77 0 5.7-3.1 9-8.68 8.96-15.2-.04-9.5-7.77-17.14-17.22-17.1z" stroke="#fff" stroke-opacity="0" fill="#232f3e"/><use xlink:href="#u" transform="matrix(1,0,0,1,1730,1009) translate(41.69753086419753 17.77777777777778)"/><path d="M1800.5 919.53h-1V827.4h1zm-2.63-289.45l.48.1.45.2.42.25.37.32.3.37.26.42.2.45.1.47.04.47v172.93h-1v-172.9l-.03-.34-.08-.33-.13-.3-.17-.3-.22-.24-.25-.2-.3-.2-.3-.12-.32-.07-.36-.03.08-1z" stroke="#3a414a" stroke-width=".05" fill="#3a414a"/><path d="M1800.5 920.03l-.26-.02-.74.07v-.56h1z" fill="#3a414a"/><path d="M1800.53 920.06l-.3-.03-.76.06v-.6h1.06zm-1-.52v.5l.72-.06.22.02v-.46z" stroke="#3a414a" stroke-width=".05" fill="#3a414a"/><path d="M1796.88 635.17l-14.26-4.63 14.26-4.64z" fill="#3a414a"/><path d="M1797.38 635.86l-16.38-5.32 16.38-5.32zm-13.14-5.32l12.14 3.95v-7.9z" stroke="#3a414a" stroke-width=".05" fill="#3a414a"/><use xlink:href="#x" transform="matrix(1,0,0,1,1718.1728395061727,806.0665272222136) translate(0 14.222222222222223)"/><use xlink:href="#y" transform="matrix(1,0,0,1,1718.1728395061727,806.0665272222136) translate(65.03703703703704 14.222222222222223)"/><path d="M1920 758.4h240v60h-240z" fill="none"/><use xlink:href="#z" transform="matrix(1,0,0,1,1920,758.392710170488) translate(17.925925925925938 35.33333333333333)"/><use xlink:href="#b" transform="matrix(1,0,0,1,1920,758.392710170488) translate(158.44444444444446 35.33333333333333)"/><path d="M932.5 427.4c-14.5 0-26.25 11.75-26.25 26.24v157.5c0 14.5-11.75 26.25-26.25 26.25 14.5 0 26.25 11.75 26.25 26.24v157.5c0 14.5 11.75 26.25 26.25 26.25m335 0c14.5 0 26.25-11.76 26.25-26.26v-157.5c0-14.5 11.75-26.25 26.25-26.25-14.5 0-26.25-11.76-26.25-26.26v-157.5c0-14.5-11.75-26.25-26.25-26.25" stroke="#3a414a" fill="none"/><path d="M1140 478.7h100v97.4h-100v-97.4z" stroke="#000" stroke-opacity="0" fill="url(#A)"/><path d="M1196.26 550.13v-8.8h3.1v8.8c0 6.06-11.3 9.3-21.88 9.3-10.6 0-21.88-3.24-21.88-9.3v-43.95c0-6 11.28-9.17 21.88-9.17s21.88 3.2 21.88 9.18v12.24h-3.1v-7.37c-4.06 2.8-11.56 4.3-18.78 4.3-7.16 0-14.66-1.5-18.78-4.3v10.37c1.17 1.93 4.67 4.5 9.97 5.43l-.62 3c-3.64-.7-6.95-2.13-9.35-3.94v10.7c1.85 3.04 9.2 6.23 18.43 6.23 9.02 0 13.76-2 13.83-2.06l1.3 2.8c-.2.07-5.36 2.32-15.13 2.32-7.36 0-14.38-1.95-18.43-4.94v9.17c0 2.63 7.15 6.25 18.78 6.25s18.78-3.63 18.78-6.25zm25.6-28.65c1.37 0 2.54 1.12 2.54 2.5v11.8c0 1.37-1.17 2.5-2.55 2.5h-12.04c-1.36 0-2.53-1.13-2.53-2.5v-2.07h-1.65v2.07c0 1.38-1.1 2.5-2.55 2.5h-12.1c-1.38 0-2.55-1.12-2.55-2.5v-2.06h-1.52v2.07c0 1.38-1.17 2.5-2.6 2.5h-12.05c-1.44 0-2.55-1.12-2.55-2.5v-11.8c0-1.37 1.1-2.5 2.55-2.5h12.04c1.43 0 2.6 1.13 2.6 2.5v2.07h1.52v-2.06c0-1.38 1.17-2.5 2.54-2.5h12.1c1.46 0 2.56 1.12 2.56 2.5v2.06h1.58v-2.06c0-1.38 1.17-2.5 2.55-2.5zm-.56 13.73v-10.66h-11v4.56h-7.78v-4.56h-10.94v4.56h-7.84v-4.56h-10.94v10.67h10.94v-4.55h7.84v4.56h10.94v-4.55h7.9v4.56zm-43.82-35.14c-11.63 0-18.78 3.56-18.78 6.12s7.15 6.12 18.78 6.12 18.78-3.56 18.78-6.12-7.15-6.12-18.78-6.12zm20.9 25.98c1.4 0 2.56 1.12 2.56 2.5v2.68c0 1.37-1.17 2.5-2.55 2.5h-2.7c-1.43 0-2.6-1.13-2.6-2.5v-2.7c0-1.36 1.17-2.48 2.6-2.48zm16.04 7.67c-1.37 0-2.54-1.1-2.54-2.48v-2.7c0-1.36 1.17-2.48 2.54-2.48h2.76c1.37 0 2.54 1.12 2.54 2.5v2.68c0 1.37-1.17 2.5-2.54 2.5zm-34.8-7.66c1.44 0 2.54 1.12 2.54 2.5v2.68c0 1.37-1.1 2.5-2.55 2.5h-2.67c-1.45 0-2.55-1.13-2.55-2.5v-2.7c0-1.36 1.1-2.48 2.55-2.48zm-2.14 4.62h1.58v-1.56h-1.58zm18.78 0h1.58v-1.56h-1.58zm18.78 0h1.52v-1.56h-1.52z" stroke="#000" stroke-opacity="0" fill="#78ffff"/><use xlink:href="#o" transform="matrix(1,0,0,1,1110,585.0890652557321) translate(41.82098765432099 17.77777777777778)"/><path d="M953.88 627.4h100v97.38h-100v-97.4z" stroke="#000" stroke-opacity="0" fill="url(#B)"/><path d="M1010.14 698.83v-8.8h3.1v8.8c0 6.05-11.28 9.3-21.88 9.3s-21.88-3.25-21.88-9.3v-43.95c0-6 11.28-9.18 21.88-9.18s21.88 3.2 21.88 9.18v12.24h-3.1v-7.37c-4.06 2.8-11.56 4.3-18.78 4.3-7.16 0-14.65-1.5-18.78-4.3v10.36c1.17 1.95 4.67 4.5 9.97 5.44l-.62 3c-3.64-.7-6.94-2.12-9.35-3.93v10.68c1.85 3.06 9.22 6.25 18.43 6.25 9.03 0 13.77-2 13.84-2.06l1.3 2.8c-.2.07-5.36 2.3-15.13 2.3-7.35 0-14.36-1.92-18.42-4.92v9.18c0 2.62 7.15 6.24 18.78 6.24s18.78-3.62 18.78-6.24zm25.6-28.66c1.37 0 2.54 1.13 2.54 2.5v11.8c0 1.37-1.17 2.5-2.55 2.5h-12.03c-1.38 0-2.55-1.13-2.55-2.5v-2.06h-1.65v2.07c0 1.37-1.1 2.5-2.55 2.5h-12.1c-1.38 0-2.55-1.13-2.55-2.5v-2.06h-1.5v2.07c0 1.37-1.18 2.5-2.63 2.5h-12.04c-1.44 0-2.54-1.13-2.54-2.5v-11.8c0-1.37 1.1-2.5 2.53-2.5h12.04c1.45 0 2.62 1.13 2.62 2.5v2.06h1.5v-2.06c0-1.37 1.17-2.5 2.54-2.5h12.1c1.46 0 2.56 1.13 2.56 2.5v2.06h1.58v-2.06c0-1.37 1.17-2.5 2.55-2.5zm-.56 13.74v-10.67h-11v4.56h-7.78v-4.57h-10.94v4.56h-7.84v-4.57h-10.94v10.68h10.94v-4.55h7.84v4.56h10.94v-4.55h7.92v4.56zm-43.82-35.14c-11.63 0-18.78 3.56-18.78 6.12s7.15 6.12 18.78 6.12 18.78-3.56 18.78-6.12-7.15-6.12-18.78-6.12zm20.9 25.97c1.4 0 2.56 1.13 2.56 2.5v2.68c0 1.4-1.17 2.5-2.55 2.5h-2.68c-1.45 0-2.62-1.1-2.62-2.5v-2.67c0-1.37 1.17-2.5 2.6-2.5zm16.05 7.68c-1.37 0-2.54-1.1-2.54-2.5v-2.67c0-1.37 1.17-2.5 2.55-2.5h2.76c1.37 0 2.54 1.13 2.54 2.5v2.68c0 1.4-1.17 2.5-2.54 2.5zm-34.8-7.67c1.44 0 2.54 1.13 2.54 2.5v2.68c0 1.4-1.1 2.5-2.55 2.5h-2.7c-1.44 0-2.54-1.1-2.54-2.5v-2.67c0-1.37 1.1-2.5 2.55-2.5zm-2.14 4.62h1.58v-1.56h-1.58zm18.78 0h1.58v-1.56h-1.58zm18.78 0h1.52v-1.56h-1.52z" stroke="#000" stroke-opacity="0" fill="#78ffff"/><use xlink:href="#o" transform="matrix(1,0,0,1,923.8810952186034,733.7854203409761) translate(41.82098765432099 17.77777777777778)"/><path d="M1140 627.4h100v97.38h-100v-97.4z" stroke="#000" stroke-opacity="0" fill="url(#C)"/><path d="M1196.26 698.83v-8.8h3.1v8.8c0 6.05-11.3 9.3-21.88 9.3-10.6 0-21.88-3.25-21.88-9.3v-43.95c0-6 11.28-9.18 21.88-9.18s21.88 3.2 21.88 9.18v12.24h-3.1v-7.37c-4.06 2.8-11.56 4.3-18.78 4.3-7.16 0-14.66-1.5-18.78-4.3v10.36c1.17 1.95 4.67 4.5 9.97 5.44l-.62 3c-3.64-.7-6.95-2.12-9.35-3.93v10.68c1.85 3.06 9.2 6.25 18.43 6.25 9.02 0 13.76-2 13.83-2.06l1.3 2.8c-.2.07-5.36 2.3-15.13 2.3-7.36 0-14.38-1.92-18.43-4.92v9.18c0 2.62 7.15 6.24 18.78 6.24s18.78-3.62 18.78-6.24zm25.6-28.66c1.37 0 2.54 1.13 2.54 2.5v11.8c0 1.37-1.17 2.5-2.55 2.5h-12.04c-1.36 0-2.53-1.13-2.53-2.5v-2.06h-1.65v2.07c0 1.37-1.1 2.5-2.55 2.5h-12.1c-1.38 0-2.55-1.13-2.55-2.5v-2.06h-1.52v2.07c0 1.37-1.17 2.5-2.6 2.5h-12.05c-1.44 0-2.55-1.13-2.55-2.5v-11.8c0-1.37 1.1-2.5 2.55-2.5h12.04c1.43 0 2.6 1.13 2.6 2.5v2.06h1.52v-2.06c0-1.37 1.17-2.5 2.54-2.5h12.1c1.46 0 2.56 1.13 2.56 2.5v2.06h1.58v-2.06c0-1.37 1.17-2.5 2.55-2.5zm-.56 13.74v-10.67h-11v4.56h-7.78v-4.57h-10.94v4.56h-7.84v-4.57h-10.94v10.68h10.94v-4.55h7.84v4.56h10.94v-4.55h7.9v4.56zm-43.82-35.14c-11.63 0-18.78 3.56-18.78 6.12s7.15 6.12 18.78 6.12 18.78-3.56 18.78-6.12-7.15-6.12-18.78-6.12zm20.9 25.97c1.4 0 2.56 1.13 2.56 2.5v2.68c0 1.4-1.17 2.5-2.55 2.5h-2.7c-1.43 0-2.6-1.1-2.6-2.5v-2.67c0-1.37 1.17-2.5 2.6-2.5zm16.04 7.68c-1.37 0-2.54-1.1-2.54-2.5v-2.67c0-1.37 1.17-2.5 2.54-2.5h2.76c1.37 0 2.54 1.13 2.54 2.5v2.68c0 1.4-1.17 2.5-2.54 2.5zm-34.8-7.67c1.44 0 2.54 1.13 2.54 2.5v2.68c0 1.4-1.1 2.5-2.55 2.5h-2.67c-1.45 0-2.55-1.1-2.55-2.5v-2.67c0-1.37 1.1-2.5 2.55-2.5zm-2.14 4.62h1.58v-1.56h-1.58zm18.78 0h1.58v-1.56h-1.58zm18.78 0h1.52v-1.56h-1.52z" stroke="#000" stroke-opacity="0" fill="#78ffff"/><use xlink:href="#o" transform="matrix(1,0,0,1,1110,733.7854203409761) translate(41.82098765432099 17.77777777777778)"/><path d="M625.7 474.3l5.16 6.02 4.14 6.75 3.03 7.32 1.85 7.7.62 7.88v60.04l-.62 7.88-1.85 7.7-3.03 7.33-4.14 6.75-5.15 6.03-6.02 5.16-6.75 4.14-7.32 3.03-7.7 1.85-7.88.62h-32.64v-1h32.6l7.76-.6 7.56-1.82 7.17-2.98 6.62-4.06L625 605l5.04-5.9 4.06-6.63 2.98-7.17 1.8-7.56.62-7.76v-59.96l-.6-7.76-1.82-7.56-2.98-7.17-4.06-6.62L625 475l-5.07-4.33h1.54zM495 475l-5.05 5.9-4.05 6.63-2.98 7.17-1.8 7.56-.62 7.76v48.48h-1v-48.52l.62-7.88 1.85-7.7 3.03-7.33 4.14-6.75 5.15-6.03 4.23-3.63h1.54z" stroke="#3a414a" stroke-width=".05" fill="#3a414a"/><path d="M480.5 559h-1v-.5h1z" fill="#3a414a"/><path d="M480.52 559.02h-1.04v-.56h1.04zm-1-.5v.46h.96v-.47z" stroke="#3a414a" stroke-width=".05" fill="#3a414a"/><path d="M556.88 624.63L542.62 620l14.26-4.63z" fill="#3a414a"/><path d="M557.38 625.32L541 620l16.38-5.32zM544.24 620l12.14 3.95v-7.9z" stroke="#3a414a" stroke-width=".05" fill="#3a414a"/><use xlink:href="#D" transform="matrix(1,0,0,1,467.16280796142166,449.3333333333333) translate(0 14.222222222222223)"/><use xlink:href="#E" transform="matrix(1,0,0,1,467.16280796142166,449.3333333333333) translate(150.8641975308642 14.222222222222223)"/><path d="M889.37 538.42h-4.8v-1h4.8zm-9.6 0h-.95v-1h.96zm-5.74 0h-.96v-1h.96zm-5.76 0h-9.6v-1h9.6zm-14.38 0h-.97v-1h.96zm-5.76 0h-.96v-1h.96zm-149.57 0h-.96v-1h.97zm-5.75 0h-.96v-1h.96zm-5.75 0h-9.6v-1h9.6zm-14.4 0h-.95v-1h.96zm-5.74 0h-.96v-1h.96zm-5.75 0h-4.8v-1h4.8z" stroke="#3a414a" stroke-width=".05" fill="#3a414a"/><path d="M904.13 537.92l-14.26 4.63v-9.27z" fill="#3a414a"/><path d="M905.75 537.92l-16.38 5.32V532.6zm-15.38 3.95l12.14-3.95-12.13-3.95z" stroke="#3a414a" stroke-width=".05" fill="#3a414a"/><path d="M655.88 542.55l-14.26-4.63 14.26-4.64z" fill="#3a414a"/><path d="M656.38 543.24L640 537.92l16.38-5.32zm-13.14-5.32l12.14 3.95v-7.9z" stroke="#3a414a" stroke-width=".05" fill="#3a414a"/><use xlink:href="#F" transform="matrix(1,0,0,1,702.3317901234568,527.2514321442881) translate(0 14.222222222222223)"/><use xlink:href="#G" transform="matrix(1,0,0,1,702.3317901234568,527.2514321442881) translate(76 14.222222222222223)"/><use xlink:href="#H" transform="matrix(1,0,0,1,702.3317901234568,527.2514321442881) translate(93.7283950617284 14.222222222222223)"/><path d="M1720 556.9V520a50 50 0 0 0-50-50h-40a50 50 0 0 0-50 50v48.4a50 50 0 0 0 50 50h12.62" stroke="#3a414a" fill="none"/><path d="M1720.5 557.4h-1v-.52h1z" stroke="#3a414a" stroke-width=".05" fill="#3a414a"/><path d="M1657.38 618.4l-14.26 4.63v-9.27z" stroke="#3a414a" fill="#3a414a"/><use xlink:href="#I" transform="matrix(1,0,0,1,1574.8774006893625,444.6666666666666) translate(0 14.222222222222223)"/><use xlink:href="#E" transform="matrix(1,0,0,1,1574.8774006893625,444.6666666666666) translate(112.44444444444446 14.222222222222223)"/><path d="M1563.62 547.32h-5.2v-1h5.2zm-10.4 0h-1.06v-1h1.04zm-6.26 0h-1.04v-1h1.04zm-6.25 0h-10.4v-1h10.4zm-15.6 0h-1.04v-1h1.04zm-6.25 0h-1.04v-1h1.05zm-152.27 0h-4.93v-1h4.93zm-10.14 0h-1.04v-1h1.04zm-6.25 0h-1.05v-1h1.04zm-6.25 0h-10.4v-1h10.4zm-15.62 0h-1.04v-1h1.03zm-6.24 0h-1.05v-1h1.04zm-6.26 0h-5.2v-1h5.2zm196.76 0h-4.93v-1h4.93z" stroke="#3a414a" stroke-width=".05" fill="#3a414a"/><path d="M1578.38 546.82l-14.26 4.64v-9.27z" fill="#3a414a"/><path d="M1580 546.82l-16.38 5.33V541.5zm-15.38 3.95l12.14-3.95-12.14-3.94z" stroke="#3a414a" stroke-width=".05" fill="#3a414a"/><path d="M1310.13 551.46l-14.26-4.64 14.26-4.63z" fill="#3a414a"/><path d="M1310.63 552.15l-16.38-5.33 16.38-5.32zm-13.14-5.33l12.13 3.95v-7.9z" stroke="#3a414a" stroke-width=".05" fill="#3a414a"/><use xlink:href="#F" transform="matrix(1,0,0,1,1366.5817901234568,536.157360932549) translate(0 14.222222222222223)"/><use xlink:href="#G" transform="matrix(1,0,0,1,1366.5817901234568,536.157360932549) translate(76 14.222222222222223)"/><use xlink:href="#H" transform="matrix(1,0,0,1,1366.5817901234568,536.157360932549) translate(93.7283950617284 14.222222222222223)"/><path d="M1580.5 929.46l.07.88.2.84.33.8.45.73.56.67.67.56.73.45.8.33.84.2.88.08h4.68v1h-4.72l-1-.08-1-.24-.93-.4-.87-.52-.78-.66-.66-.78-.53-.87-.38-.94-.24-1-.08-1v-5.16h1zm15.85 6.52h-.94v-1h.95zm5.64 0h-.95v-1h.94zm14.1 0h-9.4v-1h9.4zm5.64 0h-.94v-1h.94zm5.64 0h-.94v-1h.94zm14.1 0h-9.4v-1h9.4zm5.66 0h-.95v-1h.94zm5.64 0h-.94v-1h.94zm14.1 0h-9.4v-1h9.4zm5.65 0h-.94v-1h.93zm5.64 0h-.94v-1h.94zm14.1 0h-9.4v-1h9.4zm5.65 0h-.94v-1h.94zm5.65 0h-.94v-1h.94zm14.1 0h-9.4v-1h9.4zm5.65 0h-.94v-1h.94zm5.64 0h-.94v-1h.94zm14.1 0h-9.4v-1h9.4zm5.65 0h-.93v-1h.94zm5.66 0h-.94v-1h.94zm9.4 0h-4.7v-1h4.7zM1580.5 919.2h-1v-1.03h1zm0-6.17h-1V912h1zm0-6.17h-1v-10.28h1zm0-15.42h-1v-1.03h1zm0-6.17h-1v-1.02h1zm0-6.16h-1v-10.27h1zm0-31.95h-1v-6.08h1zm0-11.22h-1v-1.03h1zm0-6.17h-1v-1.03h1zm0-6.17h-1v-10.3h1zm0-15.43h-1v-1.03h1zm0-6.17h-1v-1.03h1zm0-6.17h-1v-10.28h1zm0-15.42h-1v-1.02h1zm0-6.16h-1v-1.03h1zm0-6.17h-1V757.8h1zm0-15.42h-1v-1.03h1zm0-6.17h-1v-1.02h1zm0-6.16h-1v-10.3h1zm0-15.43h-1v-1.03h1zm0-6.17h-1v-1.03h1zm0-6.17h-1v-10.28h1zm0-15.42h-1v-1.03h1zm0-6.17h-1v-1.03h1zm0-6.17h-1v-10.28h1zm0-15.42h-1v-1.03h1zm0-6.17h-1v-1.02h1zm0-6.16h-1v-10.28h1zm0-15.42h-1v-1.03h1zm0-6.17h-1v-1.03h1zm0-6.17h-1V619h1zm0-15.42h-1v-1.03h1zm0-6.17h-1v-1.04h1zm0-6.18h-1v-5.14h1z" stroke="#3a414a" stroke-width=".05" fill="#3a414a"/><path d="M1584.63 595.88h-9.27l4.64-14.26z" fill="#3a414a"/><path d="M1585.32 596.38h-10.64L1580 580zm-9.27-1h7.9l-3.95-12.14z" stroke="#3a414a" stroke-width=".05" fill="#3a414a"/><path d="M1778.53 935.48l-14.27 4.64v-9.27z" fill="#3a414a"/><path d="M1780.15 935.48l-16.4 5.32v-10.64zm-15.4 3.95l12.16-3.95-12.14-3.95z" stroke="#3a414a" stroke-width=".05" fill="#3a414a"/><use xlink:href="#F" transform="matrix(1,0,0,1,1461.6296296296296,847.1476185105653) translate(0 14.222222222222223)"/><use xlink:href="#J" transform="matrix(1,0,0,1,1461.6296296296296,847.1476185105653) translate(76 14.222222222222223)"/><use xlink:href="#K" transform="matrix(1,0,0,1,1461.6296296296296,847.1476185105653) translate(188.44444444444446 14.222222222222223)"/><path d="M1720 695.78V700a50 50 0 0 1-50 50h-50a50 50 0 0 1-50-50v-31.6a50 50 0 0 1 50-50h38.5" stroke="#3a414a" fill="none"/><path d="M1720 681l4.63 14.28h-9.27z" stroke="#3a414a" fill="#3a414a"/><path d="M1659 618.9h-.5v-1h.5z" stroke="#3a414a" stroke-width=".05" fill="#3a414a"/><use xlink:href="#L" transform="matrix(1,0,0,1,1551.5395500129762,754) translate(0 14.222222222222223)"/><use xlink:href="#E" transform="matrix(1,0,0,1,1551.5395500129762,754) translate(116.34567901234567 14.222222222222223)"/><path d="M1563.62 720.5h-5.2v-1h5.2zm-10.4 0h-1.06v-1h1.04zm-6.26 0h-1.04v-1h1.04zm-6.25 0h-10.4v-1h10.4zm-15.6 0h-1.04v-1h1.04zm-6.25 0h-1.04v-1h1.05zm-152.27 0h-4.93v-1h4.93zm-10.14 0h-1.04v-1h1.04zm-6.25 0h-1.05v-1h1.04zm-6.25 0h-10.4v-1h10.4zm-15.62 0h-1.04v-1h1.03zm-6.24 0h-1.05v-1h1.04zm-6.26 0h-5.2v-1h5.2zm196.76 0h-4.93v-1h4.93z" stroke="#3a414a" stroke-width=".05" fill="#3a414a"/><path d="M1578.38 720l-14.26 4.63v-9.26z" fill="#3a414a"/><path d="M1580 720l-16.38 5.32v-10.64zm-15.38 3.95l12.14-3.95-12.14-3.95z" stroke="#3a414a" stroke-width=".05" fill="#3a414a"/><path d="M1310.13 724.63l-14.26-4.63 14.26-4.63z" fill="#3a414a"/><path d="M1310.63 725.32l-16.38-5.32 16.38-5.32zM1297.5 720l12.13 3.95v-7.9z" stroke="#3a414a" stroke-width=".05" fill="#3a414a"/><use xlink:href="#F" transform="matrix(1,0,0,1,1366.5817901234568,709.3333333333334) translate(0 14.222222222222223)"/><use xlink:href="#G" transform="matrix(1,0,0,1,1366.5817901234568,709.3333333333334) translate(76 14.222222222222223)"/><use xlink:href="#H" transform="matrix(1,0,0,1,1366.5817901234568,709.3333333333334) translate(93.7283950617284 14.222222222222223)"/><path d="M480 681.5V710a50 50 0 0 0 50 50h50a50 50 0 0 0 50-50v-40a50 50 0 0 0-50-50h-22.62" stroke="#3a414a" fill="none"/><path d="M480.5 681.5h-1v-.5h1z" stroke="#3a414a" stroke-width=".05" fill="#3a414a"/><path d="M542.62 620l14.26-4.63v9.26z" stroke="#3a414a" fill="#3a414a"/><use xlink:href="#M" transform="matrix(1,0,0,1,453.8161319618798,764) translate(0 14.222222222222223)"/><use xlink:href="#N" transform="matrix(1,0,0,1,453.8161319618798,764) translate(164.64197530864197 14.222222222222223)"/><use xlink:href="#O" transform="matrix(1,0,0,1,453.8161319618798,764) translate(0 35.55555555555556)"/><use xlink:href="#P" transform="matrix(1,0,0,1,453.8161319618798,764) translate(153.8271604938272 35.55555555555556)"/><use xlink:href="#Q" transform="matrix(1,0,0,1,453.8161319618798,764) translate(0 56.88888888888889)"/><use xlink:href="#R" transform="matrix(1,0,0,1,453.8161319618798,764) translate(157.72839506172838 56.88888888888889)"/><path d="M889.37 705.85h-5.5v-1h5.5zm-11 0h-1.1v-1h1.1zm-6.6 0h-1.1v-1h1.1zm-6.6 0h-11v-1h11zm-16.5 0h-1.1v-1h1.1zm-6.6 0h-1.1v-1h1.1zm-147.28-5.35h-1.1v-1h1.1zm-6.6 0h-1.1v-1h1.1zm-6.6 0h-11v-1h11zm-16.5 0H664v-1h1.1zm-6.6 0h-1.12v-1h1.1zm-6.62 0h-5.5v-1h5.5z" stroke="#3a414a" stroke-width=".05" fill="#3a414a"/><path d="M904.13 705.35l-14.26 4.63v-9.27z" fill="#3a414a"/><path d="M905.75 705.35l-16.38 5.32v-10.64zm-15.38 3.95l12.14-3.95-12.13-3.95z" stroke="#3a414a" stroke-width=".05" fill="#3a414a"/><path d="M645.88 704.63L631.62 700l14.26-4.63z" fill="#3a414a"/><path d="M646.38 705.32L630 700l16.38-5.32zM633.24 700l12.14 3.95v-7.9z" stroke="#3a414a" stroke-width=".05" fill="#3a414a"/><g><use xlink:href="#F" transform="matrix(1,0,0,1,697.3317901234568,692.0081133484626) translate(0 14.222222222222223)"/><use xlink:href="#G" transform="matrix(1,0,0,1,697.3317901234568,692.0081133484626) translate(76 14.222222222222223)"/><use xlink:href="#H" transform="matrix(1,0,0,1,697.3317901234568,692.0081133484626) translate(93.7283950617284 14.222222222222223)"/></g><path d="M103.68 905.17l-21.4 6.77-15 5.47-11.87 4.9-9.84 4.57-8.45 4.34-7.38 4.22-6.55 4.1-5.88 4.03-5.34 4-4.86 3.97-4.47 3.97-4.12 3.98-3.82 4.03-3.55 4.08-3.32 4.14-3.1 4.22-2.64 3.92-.83-.56 2.65-3.93 3.13-4.26 3.36-4.16 3.6-4.1 3.84-4.06 4.15-4.02 4.5-4 4.9-4 5.36-4.02 5.92-4.06 6.6-4.12 7.4-4.23 8.5-4.36 9.9-4.58 11.9-4.92 15.05-5.5 21.42-6.77 51.77-14.5h3.7zm299.06-230.34l-3.76.56-4.05.76-3.8.9-3.56 1-3.38 1.1-3.23 1.2-3.1 1.3-2.95 1.4-2.87 1.5-2.8 1.62-2.7 1.74-2.7 1.86-2.63 2-2.62 2.2-2.62 2.35-2.63 2.58-2.67 2.86-2.72 3.16-2.8 3.56-2.95 4.06-3.12 4.73-3.43 5.68-3.92 7.18L305 789.78l-5.57 11.28-4.52 8.25-4.02 6.7-3.77 5.7-3.6 4.97-3.5 4.44-3.47 4.03-3.43 3.67-3.45 3.38-3.47 3.13-3.52 2.93-.6.5-3.83 2.85-4.28 2.94-4.86 3.04-5.6 3.17-6.5 3.36-7.8 3.6-1.67.68h-2.62l3.9-1.6 7.75-3.6 6.48-3.33 5.54-3.15 4.83-3.02 4.25-2.92 3.8-2.84.6-.47 3.48-2.9 3.44-3.1 3.4-3.35 3.42-3.64 3.42-3.98 3.48-4.4 3.6-4.96 3.73-5.66 4.02-6.65 4.5-8.2 5.53-11.25 26.75-59.67 3.96-7.23 3.43-5.72 3.16-4.76 2.95-4.1 2.84-3.58 2.74-3.2 2.7-2.88 2.65-2.62 2.64-2.4 2.66-2.2 2.67-2.03 2.7-1.9 2.77-1.74 2.83-1.64 2.9-1.53 3-1.42 3.13-1.32 3.26-1.2 3.42-1.13 3.6-1 3.85-.92 4.1-.78 3.76-.56z" stroke="#3a414a" stroke-width=".05" fill="#3a414a"/><path d="M-17.93 979.85l-.28.42-.86-.54.3-.44z" fill="#3a414a"/><path d="M-17.9 979.84l-.3.46-.9-.56.33-.48zm-1.12-.12l.8.5.25-.36-.78-.53z" stroke="#3a414a" stroke-width=".05" fill="#3a414a"/><path d="M417.4 673.4l-13.95 5.53-.6-9.25z" fill="#3a414a"/><path d="M419 673.3l-16 6.35-.7-10.63zm-15.1 4.9l11.87-4.7-12.38-3.17z" stroke="#3a414a" stroke-width=".05" fill="#3a414a"/><g><use xlink:href="#S" transform="matrix(1,0,0,1,125.12520259335008,868.3804899658954) translate(0 14.222222222222223)"/></g><path d="M64.22 940l-1.85.07-8 .6-6.85.83-5.96.96-5.3 1.08-4.76 1.2-4.34 1.27-4 1.37-3.7 1.43-3.44 1.5-3.23 1.58-3.07 1.66-2.9 1.73-2.77 1.8-2.65 1.9-2.55 2-2.46 2.1-2.4 2.2-2.18 2.2-.7-.7 2.2-2.2 2.4-2.25 2.5-2.12 2.6-2.02 2.67-1.93 2.8-1.83 2.94-1.75 3.1-1.68 3.27-1.6 3.5-1.53 3.72-1.44 4.03-1.37 4.38-1.3 4.8-1.2 5.35-1.08 6-.98 6.88-.8 8.05-.63 1.92-.06zm416.62-180.24l-.68 11-.87 8.34-1.02 6.9-1.15 6-1.27 5.42-1.4 5-1.53 4.74-1.7 4.53-1.84 4.4-2.06 4.36-2.28 4.35-2.54 4.4-2.86 4.5-3.25 4.7-3.72 4.9-4.34 5.24-5.12 5.7-6.18 6.28-7.6 7.14-9.67 8.33-12.8 10.12L389 899.14l-27.64 18.3-6.13 3.86-6.37 3.8-6.55 3.54-3.56 1.74h-2.28l5.4-2.63 6.5-3.52 6.34-3.78 6.1-3.85 27.63-18.28 17.93-13 12.77-10.1 9.64-8.3 7.58-7.1 6.14-6.28 5.1-5.65 4.3-5.22 3.7-4.88 3.23-4.64 2.84-4.47 2.52-4.37 2.24-4.32 2.03-4.3 1.84-4.38 1.7-4.5 1.5-4.68 1.4-4.97 1.25-5.38 1.14-5.98 1-6.85.86-8.28.68-10.97-.34-78.22h1z" stroke="#3a414a" stroke-width=".05" fill="#3a414a"/><path d="M480.5 681.5l-1 .02V681h1z" fill="#3a414a"/><path d="M480.53 681.54h-1.05v-.56h1.04zm-1-.5v.45h.95V681z" stroke="#3a414a" stroke-width=".05" fill="#3a414a"/><path d="M-5.18 970.36l-12.46 8.37 5.16-14.1z" fill="#3a414a"/><path d="M-4.33 970.4l-14.3 9.6 5.92-16.18zm-12.3 7.05l10.6-7.12-6.2-4.87z" stroke="#3a414a" stroke-width=".05" fill="#3a414a"/><g><use xlink:href="#F" transform="matrix(1,0,0,1,64.21827460293986,930.3818579715468) translate(0 14.222222222222223)"/><use xlink:href="#T" transform="matrix(1,0,0,1,64.21827460293986,930.3818579715468) translate(76 14.222222222222223)"/><use xlink:href="#U" transform="matrix(1,0,0,1,64.21827460293986,930.3818579715468) translate(240.64197530864197 14.222222222222223)"/><use xlink:href="#V" transform="matrix(1,0,0,1,64.21827460293986,930.3818579715468) translate(277.08641975308643 14.222222222222223)"/><use xlink:href="#W" transform="matrix(1,0,0,1,64.21827460293986,930.3818579715468) translate(432.8888888888889 14.222222222222223)"/></g><path d="M75.31 673.8H37.4v-1H75.3zm343.2 0h-93.8v-1h93.8z" stroke="#3a414a" stroke-width=".05" fill="#3a414a"/><path d="M419 673.8h-.5v-1h.5z" fill="#3a414a"/><path d="M419.02 673.8h-.56v-1.04h.56zm-.5-1v.96h.46v-.95z" stroke="#3a414a" stroke-width=".05" fill="#3a414a"/><path d="M36.88 677.92l-14.26-4.63 14.26-4.65z" fill="#3a414a"/><path d="M37.38 678.6L21 673.3l16.38-5.33zm-13.14-5.3l12.14 3.94v-7.9z" stroke="#3a414a" stroke-width=".05" fill="#3a414a"/><g><use xlink:href="#X" transform="matrix(1,0,0,1,75.31464473261062,662.6215497258528) translate(0 14.222222222222223)"/><use xlink:href="#Y" transform="matrix(1,0,0,1,75.31464473261062,662.6215497258528) translate(169.58024691358025 14.222222222222223)"/></g><path d="M-380 186a6 6 0 0 1 6-6h2948a6 6 0 0 1 6 6v988a6 6 0 0 1-6 6H-374a6 6 0 0 1-6-6z" stroke="#3a414a" fill="#41ccdb" fill-opacity=".11"/><defs><path fill="#3a414a" d="M185-189c-5-48-123-54-124 2 14 75 158 14 163 119 3 78-121 87-175 55-17-10-28-26-33-46l33-7c5 56 141 63 141-1 0-78-155-14-162-118-5-82 145-84 179-34 5 7 8 16 11 25" id="Z"/><path fill="#3a414a" d="M100-194c62-1 85 37 85 99 1 63-27 99-86 99S16-35 15-95c0-66 28-99 85-99zM99-20c44 1 53-31 53-75 0-43-8-75-51-75s-53 32-53 75 10 74 51 75" id="aa"/><path fill="#3a414a" d="M84 4C-5 8 30-112 23-190h32v120c0 31 7 50 39 49 72-2 45-101 50-169h31l1 190h-30c-1-10 1-25-2-33-11 22-28 36-60 37" id="ab"/><path fill="#3a414a" d="M114-163C36-179 61-72 57 0H25l-1-190h30c1 12-1 29 2 39 6-27 23-49 58-41v29" id="ac"/><path fill="#3a414a" d="M96-169c-40 0-48 33-48 73s9 75 48 75c24 0 41-14 43-38l32 2c-6 37-31 61-74 61-59 0-76-41-82-99-10-93 101-131 147-64 4 7 5 14 7 22l-32 3c-4-21-16-35-41-35" id="ad"/><path fill="#3a414a" d="M100-194c63 0 86 42 84 106H49c0 40 14 67 53 68 26 1 43-12 49-29l28 8c-11 28-37 45-77 45C44 4 14-33 15-96c1-61 26-98 85-98zm52 81c6-60-76-77-97-28-3 7-6 17-6 28h103" id="ae"/><g id="a"><use transform="matrix(0.07407407407407407,0,0,0.07407407407407407,0,0)" xlink:href="#Z"/><use transform="matrix(0.07407407407407407,0,0,0.07407407407407407,17.77777777777778,0)" xlink:href="#aa"/><use transform="matrix(0.07407407407407407,0,0,0.07407407407407407,32.592592592592595,0)" xlink:href="#ab"/><use transform="matrix(0.07407407407407407,0,0,0.07407407407407407,47.407407407407405,0)" xlink:href="#ac"/><use transform="matrix(0.07407407407407407,0,0,0.07407407407407407,56.22222222222222,0)" xlink:href="#ad"/><use transform="matrix(0.07407407407407407,0,0,0.07407407407407407,69.55555555555556,0)" xlink:href="#ae"/></g><path fill="#3a414a" d="M106-169C34-169 62-67 57 0H25v-261h32l-1 103c12-21 28-36 61-36 89 0 53 116 60 194h-32v-121c2-32-8-49-39-48" id="af"/><path fill="#3a414a" d="M141-36C126-15 110 5 73 4 37 3 15-17 15-53c-1-64 63-63 125-63 3-35-9-54-41-54-24 1-41 7-42 31l-33-3c5-37 33-52 76-52 45 0 72 20 72 64v82c-1 20 7 32 28 27v20c-31 9-61-2-59-35zM48-53c0 20 12 33 32 33 41-3 63-29 60-74-43 2-92-5-92 41" id="ag"/><path fill="#3a414a" d="M24-231v-30h32v30H24zM24 0v-190h32V0H24" id="ah"/><path fill="#3a414a" d="M117-194c89-4 53 116 60 194h-32v-121c0-31-8-49-39-48C34-167 62-67 57 0H25l-1-190h30c1 10-1 24 2 32 11-22 29-35 61-36" id="ai"/><g id="b"><use transform="matrix(0.07407407407407407,0,0,0.07407407407407407,0,0)" xlink:href="#ad"/><use transform="matrix(0.07407407407407407,0,0,0.07407407407407407,13.333333333333332,0)" xlink:href="#af"/><use transform="matrix(0.07407407407407407,0,0,0.07407407407407407,28.148148148148145,0)" xlink:href="#ag"/><use transform="matrix(0.07407407407407407,0,0,0.07407407407407407,42.96296296296296,0)" xlink:href="#ah"/><use transform="matrix(0.07407407407407407,0,0,0.07407407407407407,48.81481481481481,0)" xlink:href="#ai"/></g><path fill="#3a414a" d="M233-177c-1 41-23 64-60 70L243 0h-38l-65-103H63V0H30v-248c88 3 205-21 203 71zM63-129c60-2 137 13 137-47 0-61-80-42-137-45v92" id="aj"/><path fill="#3a414a" d="M24 0v-261h32V0H24" id="ak"/><path fill="#3a414a" d="M179-190L93 31C79 59 56 82 12 73V49c39 6 53-20 64-50L1-190h34L92-34l54-156h33" id="al"/><path fill="#3a414a" d="M135-143c-3-34-86-38-87 0 15 53 115 12 119 90S17 21 10-45l28-5c4 36 97 45 98 0-10-56-113-15-118-90-4-57 82-63 122-42 12 7 21 19 24 35" id="am"/><g id="c"><use transform="matrix(0.06172839506172839,0,0,0.06172839506172839,0,0)" xlink:href="#aj"/><use transform="matrix(0.06172839506172839,0,0,0.06172839506172839,15.987654320987653,0)" xlink:href="#ae"/><use transform="matrix(0.06172839506172839,0,0,0.06172839506172839,28.333333333333332,0)" xlink:href="#ak"/><use transform="matrix(0.06172839506172839,0,0,0.06172839506172839,33.20987654320987,0)" xlink:href="#ag"/><use transform="matrix(0.06172839506172839,0,0,0.06172839506172839,45.55555555555555,0)" xlink:href="#al"/><use transform="matrix(0.06172839506172839,0,0,0.06172839506172839,56.66666666666666,0)" xlink:href="#ae"/><use transform="matrix(0.06172839506172839,0,0,0.06172839506172839,69.01234567901234,0)" xlink:href="#ac"/><use transform="matrix(0.06172839506172839,0,0,0.06172839506172839,76.35802469135803,0)" xlink:href="#am"/></g><linearGradient gradientUnits="userSpaceOnUse" id="d" x1="-100" y1="680" x2="20" y2="560"><stop offset="0%" stop-color="#41ccdb"/><stop offset="100%" stop-color="#78ffc0"/></linearGradient><path fill="#3a414a" d="M210-169c-67 3-38 105-44 169h-31v-121c0-29-5-50-35-48C34-165 62-65 56 0H25l-1-190h30c1 10-1 24 2 32 10-44 99-50 107 0 11-21 27-35 58-36 85-2 47 119 55 194h-31v-121c0-29-5-49-35-48" id="an"/><path fill="#3a414a" d="M59-47c-2 24 18 29 38 22v24C64 9 27 4 27-40v-127H5v-23h24l9-43h21v43h35v23H59v120" id="ao"/><g id="e"><use transform="matrix(0.06172839506172839,0,0,0.06172839506172839,0,0)" xlink:href="#Z"/><use transform="matrix(0.06172839506172839,0,0,0.06172839506172839,14.814814814814813,0)" xlink:href="#an"/><use transform="matrix(0.06172839506172839,0,0,0.06172839506172839,33.2716049382716,0)" xlink:href="#ag"/><use transform="matrix(0.06172839506172839,0,0,0.06172839506172839,45.61728395061728,0)" xlink:href="#ac"/><use transform="matrix(0.06172839506172839,0,0,0.06172839506172839,52.962962962962955,0)" xlink:href="#ao"/></g><path fill="#3a414a" d="M212-179c-10-28-35-45-73-45-59 0-87 40-87 99 0 60 29 101 89 101 43 0 62-24 78-52l27 14C228-24 195 4 139 4 59 4 22-46 18-125c-6-104 99-153 187-111 19 9 31 26 39 46" id="ap"/><g id="f"><use transform="matrix(0.06172839506172839,0,0,0.06172839506172839,0,0)" xlink:href="#ap"/><use transform="matrix(0.06172839506172839,0,0,0.06172839506172839,15.987654320987653,0)" xlink:href="#aa"/><use transform="matrix(0.06172839506172839,0,0,0.06172839506172839,28.333333333333332,0)" xlink:href="#ai"/><use transform="matrix(0.06172839506172839,0,0,0.06172839506172839,40.67901234567901,0)" xlink:href="#ao"/><use transform="matrix(0.06172839506172839,0,0,0.06172839506172839,46.851851851851855,0)" xlink:href="#ac"/><use transform="matrix(0.06172839506172839,0,0,0.06172839506172839,54.19753086419753,0)" xlink:href="#ag"/><use transform="matrix(0.06172839506172839,0,0,0.06172839506172839,66.54320987654322,0)" xlink:href="#ad"/><use transform="matrix(0.06172839506172839,0,0,0.06172839506172839,77.65432098765433,0)" xlink:href="#ao"/></g><path fill="#3a414a" d="M205 0l-28-72H64L36 0H1l101-248h38L239 0h-34zm-38-99l-47-123c-12 45-31 82-46 123h93" id="aq"/><use transform="matrix(0.06172839506172839,0,0,0.06172839506172839,0,0)" xlink:href="#aq" id="g"/><linearGradient gradientUnits="userSpaceOnUse" id="h" x1="2180" y1="678.39" x2="2300" y2="558.39"><stop offset="0%" stop-color="#41ccdb"/><stop offset="100%" stop-color="#78ffc0"/></linearGradient><path fill="#3a414a" d="M160-131c35 5 61 23 61 61C221 17 115-2 30 0v-248c76 3 177-17 177 60 0 33-19 50-47 57zm-97-11c50-1 110 9 110-42 0-47-63-36-110-37v79zm0 115c55-2 124 14 124-45 0-56-70-42-124-44v89" id="ar"/><use transform="matrix(0.06172839506172839,0,0,0.06172839506172839,0,0)" xlink:href="#ar" id="i"/><linearGradient gradientUnits="userSpaceOnUse" id="j" x1="420" y1="680" x2="540" y2="560"><stop offset="0%" stop-color="#41ccdb"/><stop offset="100%" stop-color="#78ffc0"/></linearGradient><path fill="#3a414a" d="M141 0L90-78 38 0H4l68-98-65-92h35l48 74 47-74h35l-64 92 68 98h-35" id="as"/><g id="k"><use transform="matrix(0.06172839506172839,0,0,0.06172839506172839,0,0)" xlink:href="#as"/><use transform="matrix(0.06172839506172839,0,0,0.06172839506172839,11.11111111111111,0)" xlink:href="#ap"/><use transform="matrix(0.06172839506172839,0,0,0.06172839506172839,27.098765432098766,0)" xlink:href="#ag"/><use transform="matrix(0.06172839506172839,0,0,0.06172839506172839,39.44444444444444,0)" xlink:href="#ak"/><use transform="matrix(0.06172839506172839,0,0,0.06172839506172839,44.32098765432099,0)" xlink:href="#ak"/></g><g id="l"><use transform="matrix(0.06172839506172839,0,0,0.06172839506172839,0,0)" xlink:href="#Z"/><use transform="matrix(0.06172839506172839,0,0,0.06172839506172839,14.814814814814813,0)" xlink:href="#an"/><use transform="matrix(0.06172839506172839,0,0,0.06172839506172839,33.2716049382716,0)" xlink:href="#ag"/><use transform="matrix(0.06172839506172839,0,0,0.06172839506172839,45.61728395061728,0)" xlink:href="#ac"/><use transform="matrix(0.06172839506172839,0,0,0.06172839506172839,52.962962962962955,0)" xlink:href="#ao"/></g><g id="m"><use transform="matrix(0.06172839506172839,0,0,0.06172839506172839,0,0)" xlink:href="#ap"/><use transform="matrix(0.06172839506172839,0,0,0.06172839506172839,15.987654320987653,0)" xlink:href="#aa"/><use transform="matrix(0.06172839506172839,0,0,0.06172839506172839,28.333333333333332,0)" xlink:href="#ai"/><use transform="matrix(0.06172839506172839,0,0,0.06172839506172839,40.67901234567901,0)" xlink:href="#ao"/><use transform="matrix(0.06172839506172839,0,0,0.06172839506172839,46.851851851851855,0)" xlink:href="#ac"/><use transform="matrix(0.06172839506172839,0,0,0.06172839506172839,54.19753086419753,0)" xlink:href="#ag"/><use transform="matrix(0.06172839506172839,0,0,0.06172839506172839,66.54320987654322,0)" xlink:href="#ad"/><use transform="matrix(0.06172839506172839,0,0,0.06172839506172839,77.65432098765433,0)" xlink:href="#ao"/></g><linearGradient gradientUnits="userSpaceOnUse" id="n" x1="960" y1="576.09" x2="1060" y2="478.7"><stop offset="0%" stop-color="#41ccdb"/><stop offset="100%" stop-color="#78ffc0"/></linearGradient><g id="o"><use transform="matrix(0.06172839506172839,0,0,0.06172839506172839,0,0)" xlink:href="#aj"/><use transform="matrix(0.06172839506172839,0,0,0.06172839506172839,15.987654320987653,0)" xlink:href="#ae"/><use transform="matrix(0.06172839506172839,0,0,0.06172839506172839,28.333333333333332,0)" xlink:href="#ak"/><use transform="matrix(0.06172839506172839,0,0,0.06172839506172839,33.20987654320987,0)" xlink:href="#ag"/><use transform="matrix(0.06172839506172839,0,0,0.06172839506172839,45.55555555555555,0)" xlink:href="#al"/><use transform="matrix(0.06172839506172839,0,0,0.06172839506172839,56.66666666666666,0)" xlink:href="#ae"/><use transform="matrix(0.06172839506172839,0,0,0.06172839506172839,69.01234567901234,0)" xlink:href="#ac"/></g><path fill="#333" d="M137-138c1-29-70-34-71-4 15 46 118 7 119 86 1 83-164 76-172 9l43-7c4 19 20 25 44 25 33 8 57-30 24-41C81-84 22-81 20-136c-2-80 154-74 161-7" id="at"/><path fill="#333" d="M185-48c-13 30-37 53-82 52C43 2 14-33 14-96s30-98 90-98c62 0 83 45 84 108H66c0 31 8 55 39 56 18 0 30-7 34-22zm-45-69c5-46-57-63-70-21-2 6-4 13-4 21h74" id="au"/><path fill="#333" d="M135-194c87-1 58 113 63 194h-50c-7-57 23-157-34-157-59 0-34 97-39 157H25l-1-190h47c2 12-1 28 3 38 12-26 28-41 61-42" id="av"/><path fill="#333" d="M88-194c31-1 46 15 58 34l-1-101h50l1 261h-48c-2-10 0-23-3-31C134-8 116 4 84 4 32 4 16-41 15-95c0-56 19-97 73-99zm17 164c33 0 40-30 41-66 1-37-9-64-41-64s-38 30-39 65c0 43 13 65 39 65" id="aw"/><path fill="#333" d="M67-125c0 53 21 87 73 88 37 1 54-22 65-47l45 17C233-25 199 4 140 4 58 4 20-42 15-125 8-235 124-281 211-232c18 10 29 29 36 50l-46 12c-8-25-30-41-62-41-52 0-71 34-72 86" id="ax"/><path fill="#333" d="M133-34C117-15 103 5 69 4 32 3 11-16 11-54c-1-60 55-63 116-61 1-26-3-47-28-47-18 1-26 9-28 27l-52-2c7-38 36-58 82-57s74 22 75 68l1 82c-1 14 12 18 25 15v27c-30 8-71 5-69-32zm-48 3c29 0 43-24 42-57-32 0-66-3-65 30 0 17 8 27 23 27" id="ay"/><path fill="#333" d="M25 0v-261h50V0H25" id="az"/><path fill="#333" d="M230 0l2-204L168 0h-37L68-204 70 0H24v-248h70l56 185 57-185h69V0h-46" id="aA"/><path fill="#333" d="M195-6C206 82 75 100 31 46c-4-6-6-13-8-21l49-6c3 16 16 24 34 25 40 0 42-37 40-79-11 22-30 35-61 35-53 0-70-43-70-97 0-56 18-96 73-97 30 0 46 14 59 34l2-30h47zm-90-29c32 0 41-27 41-63 0-35-9-62-40-62-32 0-39 29-40 63 0 36 9 62 39 62" id="aB"/><g id="p"><use transform="matrix(0.04938271604938266,0,0,0.04938271604938266,0,0)" xlink:href="#at"/><use transform="matrix(0.04938271604938266,0,0,0.04938271604938266,9.876543209876532,0)" xlink:href="#au"/><use transform="matrix(0.04938271604938266,0,0,0.04938271604938266,19.753086419753064,0)" xlink:href="#av"/><use transform="matrix(0.04938271604938266,0,0,0.04938271604938266,30.567901234567866,0)" xlink:href="#aw"/><use transform="matrix(0.04938271604938266,0,0,0.04938271604938266,41.382716049382665,0)" xlink:href="#ax"/><use transform="matrix(0.04938271604938266,0,0,0.04938271604938266,54.17283950617278,0)" xlink:href="#ay"/><use transform="matrix(0.04938271604938266,0,0,0.04938271604938266,64.04938271604931,0)" xlink:href="#az"/><use transform="matrix(0.04938271604938266,0,0,0.04938271604938266,68.98765432098757,0)" xlink:href="#az"/><use transform="matrix(0.04938271604938266,0,0,0.04938271604938266,73.92592592592584,0)" xlink:href="#aA"/><use transform="matrix(0.04938271604938266,0,0,0.04938271604938266,88.69135802469125,0)" xlink:href="#au"/><use transform="matrix(0.04938271604938266,0,0,0.04938271604938266,98.56790123456778,0)" xlink:href="#at"/><use transform="matrix(0.04938271604938266,0,0,0.04938271604938266,108.44444444444431,0)" xlink:href="#at"/><use transform="matrix(0.04938271604938266,0,0,0.04938271604938266,118.32098765432085,0)" xlink:href="#ay"/><use transform="matrix(0.04938271604938266,0,0,0.04938271604938266,128.19753086419738,0)" xlink:href="#aB"/><use transform="matrix(0.04938271604938266,0,0,0.04938271604938266,139.01234567901218,0)" xlink:href="#au"/></g><path fill="#333" d="M169-182c-1-43-94-46-97-3 18 66 151 10 154 114 3 95-165 93-204 36-6-8-10-19-12-30l50-8c3 46 112 56 116 5-17-69-150-10-154-114-4-87 153-88 188-35 5 8 8 18 10 28" id="aC"/><path fill="#333" d="M135-150c-39-12-60 13-60 57V0H25l-1-190h47c2 13-1 29 3 40 6-28 27-53 61-41v41" id="aD"/><path fill="#333" d="M25-224v-37h50v37H25zM25 0v-190h50V0H25" id="aE"/><g id="q"><use transform="matrix(0.0493827160493827,0,0,0.0493827160493827,0,0)" xlink:href="#aC"/><use transform="matrix(0.0493827160493827,0,0,0.0493827160493827,11.851851851851848,0)" xlink:href="#au"/><use transform="matrix(0.0493827160493827,0,0,0.0493827160493827,21.728395061728385,0)" xlink:href="#aD"/><use transform="matrix(0.0493827160493827,0,0,0.0493827160493827,28.641975308641964,0)" xlink:href="#aE"/><use transform="matrix(0.0493827160493827,0,0,0.0493827160493827,33.58024691358023,0)" xlink:href="#ay"/><use transform="matrix(0.0493827160493827,0,0,0.0493827160493827,43.45679012345677,0)" xlink:href="#az"/></g><path fill="#333" d="M85 4C-2 5 27-109 22-190h50c7 57-23 150 33 157 60-5 35-97 40-157h50l1 190h-47c-2-12 1-28-3-38-12 25-28 42-61 42" id="aF"/><path fill="#333" d="M220-157c-53 9-28 100-34 157h-49v-107c1-27-5-49-29-50C55-147 81-57 75 0H25l-1-190h47c2 12-1 28 3 38 10-53 101-56 108 0 13-22 24-43 59-42 82 1 51 116 57 194h-49v-107c-1-25-5-48-29-50" id="aG"/><path fill="#333" d="M135-194c52 0 70 43 70 98 0 56-19 99-73 100-30 1-46-15-58-35L72 0H24l1-261h50v104c11-23 29-37 60-37zM114-30c31 0 40-27 40-66 0-37-7-63-39-63s-41 28-41 65c0 36 8 64 40 64" id="aH"/><g id="r"><use transform="matrix(0.0493827160493827,0,0,0.0493827160493827,0,0)" xlink:href="#av"/><use transform="matrix(0.0493827160493827,0,0,0.0493827160493827,10.814814814814811,0)" xlink:href="#aF"/><use transform="matrix(0.0493827160493827,0,0,0.0493827160493827,21.629629629629623,0)" xlink:href="#aG"/><use transform="matrix(0.0493827160493827,0,0,0.0493827160493827,37.43209876543209,0)" xlink:href="#aH"/><use transform="matrix(0.0493827160493827,0,0,0.0493827160493827,48.2469135802469,0)" xlink:href="#au"/><use transform="matrix(0.0493827160493827,0,0,0.0493827160493827,58.123456790123434,0)" xlink:href="#aD"/></g><linearGradient gradientUnits="userSpaceOnUse" id="s" x1="1660" y1="678.39" x2="1780" y2="558.39"><stop offset="0%" stop-color="#41ccdb"/><stop offset="100%" stop-color="#78ffc0"/></linearGradient><path fill="#333" d="M114-157C55-157 80-60 75 0H25v-261h50l-1 109c12-26 28-41 61-42 86-1 58 113 63 194h-50c-7-57 23-157-34-157" id="aI"/><g id="t"><use transform="matrix(0.04938271604938272,0,0,0.04938271604938272,0,0)" xlink:href="#aI"/><use transform="matrix(0.04938271604938272,0,0,0.04938271604938272,10.814814814814815,0)" xlink:href="#ay"/><use transform="matrix(0.04938271604938272,0,0,0.04938271604938272,20.69135802469136,0)" xlink:href="#av"/><use transform="matrix(0.04938271604938272,0,0,0.04938271604938272,31.506172839506174,0)" xlink:href="#aw"/><use transform="matrix(0.04938271604938272,0,0,0.04938271604938272,42.320987654320994,0)" xlink:href="#az"/><use transform="matrix(0.04938271604938272,0,0,0.04938271604938272,47.25925925925927,0)" xlink:href="#au"/><use transform="matrix(0.04938271604938272,0,0,0.04938271604938272,57.135802469135804,0)" xlink:href="#ax"/><use transform="matrix(0.04938271604938272,0,0,0.04938271604938272,69.92592592592594,0)" xlink:href="#ay"/><use transform="matrix(0.04938271604938272,0,0,0.04938271604938272,79.80246913580248,0)" xlink:href="#az"/><use transform="matrix(0.04938271604938272,0,0,0.04938271604938272,84.74074074074076,0)" xlink:href="#az"/><use transform="matrix(0.04938271604938272,0,0,0.04938271604938272,89.67901234567904,0)" xlink:href="#aA"/><use transform="matrix(0.04938271604938272,0,0,0.04938271604938272,104.44444444444447,0)" xlink:href="#au"/><use transform="matrix(0.04938271604938272,0,0,0.04938271604938272,114.32098765432102,0)" xlink:href="#at"/><use transform="matrix(0.04938271604938272,0,0,0.04938271604938272,124.19753086419756,0)" xlink:href="#at"/><use transform="matrix(0.04938271604938272,0,0,0.04938271604938272,134.0740740740741,0)" xlink:href="#ay"/><use transform="matrix(0.04938271604938272,0,0,0.04938271604938272,143.95061728395063,0)" xlink:href="#aB"/><use transform="matrix(0.04938271604938272,0,0,0.04938271604938272,154.76543209876544,0)" xlink:href="#au"/></g><g id="u"><use transform="matrix(0.06172839506172839,0,0,0.06172839506172839,0,0)" xlink:href="#ap"/><use transform="matrix(0.06172839506172839,0,0,0.06172839506172839,15.987654320987653,0)" xlink:href="#ak"/><use transform="matrix(0.06172839506172839,0,0,0.06172839506172839,20.864197530864196,0)" xlink:href="#ah"/><use transform="matrix(0.06172839506172839,0,0,0.06172839506172839,25.74074074074074,0)" xlink:href="#ae"/><use transform="matrix(0.06172839506172839,0,0,0.06172839506172839,38.08641975308642,0)" xlink:href="#ai"/><use transform="matrix(0.06172839506172839,0,0,0.06172839506172839,50.432098765432094,0)" xlink:href="#ao"/></g><path fill="#333" d="M136-208V0H84v-208H4v-40h212v40h-80" id="aJ"/><g id="v"><use transform="matrix(0.049382716049382706,0,0,0.049382716049382706,0,0)" xlink:href="#aJ"/><use transform="matrix(0.049382716049382706,0,0,0.049382716049382706,9.82716049382716,0)" xlink:href="#aD"/><use transform="matrix(0.049382716049382706,0,0,0.049382716049382706,16.74074074074074,0)" xlink:href="#aE"/><use transform="matrix(0.049382716049382706,0,0,0.049382716049382706,21.679012345679013,0)" xlink:href="#aB"/><use transform="matrix(0.049382716049382706,0,0,0.049382716049382706,32.49382716049382,0)" xlink:href="#aB"/><use transform="matrix(0.049382716049382706,0,0,0.049382716049382706,43.30864197530863,0)" xlink:href="#au"/><use transform="matrix(0.049382716049382706,0,0,0.049382716049382706,53.185185185185176,0)" xlink:href="#aD"/></g><g id="w"><use transform="matrix(0.049382716049382706,0,0,0.049382716049382706,0,0)" xlink:href="#at"/><use transform="matrix(0.049382716049382706,0,0,0.049382716049382706,9.87654320987654,0)" xlink:href="#au"/><use transform="matrix(0.049382716049382706,0,0,0.049382716049382706,19.75308641975308,0)" xlink:href="#av"/><use transform="matrix(0.049382716049382706,0,0,0.049382716049382706,30.567901234567895,0)" xlink:href="#aw"/><use transform="matrix(0.049382716049382706,0,0,0.049382716049382706,41.38271604938271,0)" xlink:href="#ax"/><use transform="matrix(0.049382716049382706,0,0,0.049382716049382706,54.17283950617283,0)" xlink:href="#ay"/><use transform="matrix(0.049382716049382706,0,0,0.049382716049382706,64.04938271604937,0)" xlink:href="#az"/><use transform="matrix(0.049382716049382706,0,0,0.049382716049382706,68.98765432098763,0)" xlink:href="#az"/><use transform="matrix(0.049382716049382706,0,0,0.049382716049382706,73.9259259259259,0)" xlink:href="#aA"/><use transform="matrix(0.049382716049382706,0,0,0.049382716049382706,88.69135802469133,0)" xlink:href="#au"/><use transform="matrix(0.049382716049382706,0,0,0.049382716049382706,98.56790123456787,0)" xlink:href="#at"/><use transform="matrix(0.049382716049382706,0,0,0.049382716049382706,108.44444444444443,0)" xlink:href="#at"/><use transform="matrix(0.049382716049382706,0,0,0.049382716049382706,118.32098765432096,0)" xlink:href="#ay"/><use transform="matrix(0.049382716049382706,0,0,0.049382716049382706,128.1975308641975,0)" xlink:href="#aB"/><use transform="matrix(0.049382716049382706,0,0,0.049382716049382706,139.0123456790123,0)" xlink:href="#au"/></g><g id="x"><use transform="matrix(0.04938271604938272,0,0,0.04938271604938272,0,0)" xlink:href="#aJ"/><use transform="matrix(0.04938271604938272,0,0,0.04938271604938272,9.82716049382716,0)" xlink:href="#aD"/><use transform="matrix(0.04938271604938272,0,0,0.04938271604938272,16.74074074074074,0)" xlink:href="#aE"/><use transform="matrix(0.04938271604938272,0,0,0.04938271604938272,21.679012345679013,0)" xlink:href="#aB"/><use transform="matrix(0.04938271604938272,0,0,0.04938271604938272,32.49382716049383,0)" xlink:href="#aB"/><use transform="matrix(0.04938271604938272,0,0,0.04938271604938272,43.308641975308646,0)" xlink:href="#au"/><use transform="matrix(0.04938271604938272,0,0,0.04938271604938272,53.18518518518519,0)" xlink:href="#aD"/></g><path fill="#333" d="M144 0l-44-69L55 0H2l70-98-66-92h53l41 62 40-62h54l-67 91 71 99h-54" id="aK"/><path fill="#333" d="M190-63c-7 42-38 67-86 67-59 0-84-38-90-98-12-110 154-137 174-36l-49 2c-2-19-15-32-35-32-30 0-35 28-38 64-6 74 65 87 74 30" id="aL"/><path fill="#333" d="M115-3C79 11 28 4 28-45v-112H4v-33h27l15-45h31v45h36v33H77v99c-1 23 16 31 38 25v30" id="aM"/><g id="y"><use transform="matrix(0.04938271604938272,0,0,0.04938271604938272,0,0)" xlink:href="#au"/><use transform="matrix(0.04938271604938272,0,0,0.04938271604938272,9.876543209876544,0)" xlink:href="#aK"/><use transform="matrix(0.04938271604938272,0,0,0.04938271604938272,19.75308641975309,0)" xlink:href="#au"/><use transform="matrix(0.04938271604938272,0,0,0.04938271604938272,29.629629629629633,0)" xlink:href="#aL"/><use transform="matrix(0.04938271604938272,0,0,0.04938271604938272,39.50617283950618,0)" xlink:href="#aF"/><use transform="matrix(0.04938271604938272,0,0,0.04938271604938272,50.320987654320994,0)" xlink:href="#aM"/><use transform="matrix(0.04938271604938272,0,0,0.04938271604938272,56.19753086419754,0)" xlink:href="#au"/><use transform="matrix(0.04938271604938272,0,0,0.04938271604938272,66.07407407407408,0)" xlink:href="#ax"/><use transform="matrix(0.04938271604938272,0,0,0.04938271604938272,78.8641975308642,0)" xlink:href="#ay"/><use transform="matrix(0.04938271604938272,0,0,0.04938271604938272,88.74074074074075,0)" xlink:href="#az"/><use transform="matrix(0.04938271604938272,0,0,0.04938271604938272,93.67901234567901,0)" xlink:href="#az"/></g><path fill="#3a414a" d="M30-248c118-7 216 8 213 122C240-48 200 0 122 0H30v-248zM63-27c89 8 146-16 146-99s-60-101-146-95v194" id="aN"/><g id="z"><use transform="matrix(0.07407407407407407,0,0,0.07407407407407407,0,0)" xlink:href="#aN"/><use transform="matrix(0.07407407407407407,0,0,0.07407407407407407,19.185185185185183,0)" xlink:href="#ae"/><use transform="matrix(0.07407407407407407,0,0,0.07407407407407407,34,0)" xlink:href="#am"/><use transform="matrix(0.07407407407407407,0,0,0.07407407407407407,47.33333333333333,0)" xlink:href="#ao"/><use transform="matrix(0.07407407407407407,0,0,0.07407407407407407,54.740740740740726,0)" xlink:href="#ah"/><use transform="matrix(0.07407407407407407,0,0,0.07407407407407407,60.59259259259258,0)" xlink:href="#ai"/><use transform="matrix(0.07407407407407407,0,0,0.07407407407407407,75.40740740740739,0)" xlink:href="#ag"/><use transform="matrix(0.07407407407407407,0,0,0.07407407407407407,90.2222222222222,0)" xlink:href="#ao"/><use transform="matrix(0.07407407407407407,0,0,0.07407407407407407,97.6296296296296,0)" xlink:href="#ah"/><use transform="matrix(0.07407407407407407,0,0,0.07407407407407407,103.48148148148145,0)" xlink:href="#aa"/><use transform="matrix(0.07407407407407407,0,0,0.07407407407407407,118.29629629629626,0)" xlink:href="#ai"/></g><linearGradient gradientUnits="userSpaceOnUse" id="A" x1="1140" y1="576.09" x2="1240" y2="478.7"><stop offset="0%" stop-color="#41ccdb"/><stop offset="100%" stop-color="#78ffc0"/></linearGradient><linearGradient gradientUnits="userSpaceOnUse" id="B" x1="953.88" y1="724.79" x2="1053.88" y2="627.39"><stop offset="0%" stop-color="#41ccdb"/><stop offset="100%" stop-color="#78ffc0"/></linearGradient><linearGradient gradientUnits="userSpaceOnUse" id="C" x1="1140" y1="724.79" x2="1240" y2="627.39"><stop offset="0%" stop-color="#41ccdb"/><stop offset="100%" stop-color="#78ffc0"/></linearGradient><g id="D"><use transform="matrix(0.04938271604938272,0,0,0.04938271604938272,0,0)" xlink:href="#ax"/><use transform="matrix(0.04938271604938272,0,0,0.04938271604938272,12.790123456790125,0)" xlink:href="#ay"/><use transform="matrix(0.04938271604938272,0,0,0.04938271604938272,22.66666666666667,0)" xlink:href="#az"/><use transform="matrix(0.04938271604938272,0,0,0.04938271604938272,27.604938271604947,0)" xlink:href="#az"/><use transform="matrix(0.04938271604938272,0,0,0.04938271604938272,32.543209876543216,0)" xlink:href="#aA"/><use transform="matrix(0.04938271604938272,0,0,0.04938271604938272,47.308641975308646,0)" xlink:href="#au"/><use transform="matrix(0.04938271604938272,0,0,0.04938271604938272,57.18518518518519,0)" xlink:href="#at"/><use transform="matrix(0.04938271604938272,0,0,0.04938271604938272,67.06172839506173,0)" xlink:href="#at"/><use transform="matrix(0.04938271604938272,0,0,0.04938271604938272,76.93827160493828,0)" xlink:href="#ay"/><use transform="matrix(0.04938271604938272,0,0,0.04938271604938272,86.81481481481482,0)" xlink:href="#aB"/><use transform="matrix(0.04938271604938272,0,0,0.04938271604938272,97.62962962962963,0)" xlink:href="#au"/><use transform="matrix(0.04938271604938272,0,0,0.04938271604938272,107.50617283950618,0)" xlink:href="#aC"/><use transform="matrix(0.04938271604938272,0,0,0.04938271604938272,119.35802469135804,0)" xlink:href="#au"/><use transform="matrix(0.04938271604938272,0,0,0.04938271604938272,129.23456790123458,0)" xlink:href="#av"/><use transform="matrix(0.04938271604938272,0,0,0.04938271604938272,140.0493827160494,0)" xlink:href="#aM"/></g><path fill="#333" d="M24 0v-248h195v40H76v63h132v40H76v65h150V0H24" id="aO"/><path fill="#333" d="M128 0H69L1-190h53L99-40l48-150h52" id="aP"/><g id="E"><use transform="matrix(0.04938271604938272,0,0,0.04938271604938272,0,0)" xlink:href="#aO"/><use transform="matrix(0.04938271604938272,0,0,0.04938271604938272,11.851851851851853,0)" xlink:href="#aP"/><use transform="matrix(0.04938271604938272,0,0,0.04938271604938272,21.7283950617284,0)" xlink:href="#au"/><use transform="matrix(0.04938271604938272,0,0,0.04938271604938272,31.60493827160494,0)" xlink:href="#av"/><use transform="matrix(0.04938271604938272,0,0,0.04938271604938272,42.41975308641976,0)" xlink:href="#aM"/></g><path fill="#333" d="M140-251c80 0 125 45 125 126S219 4 139 4C58 4 15-44 15-125s44-126 125-126zm-1 214c52 0 73-35 73-88 0-50-21-86-72-86-52 0-73 35-73 86s22 88 72 88" id="aQ"/><g id="F"><use transform="matrix(0.04938271604938272,0,0,0.04938271604938272,0,0)" xlink:href="#aQ"/><use transform="matrix(0.04938271604938272,0,0,0.04938271604938272,13.827160493827162,0)" xlink:href="#aH"/><use transform="matrix(0.04938271604938272,0,0,0.04938271604938272,24.641975308641975,0)" xlink:href="#at"/><use transform="matrix(0.04938271604938272,0,0,0.04938271604938272,34.51851851851852,0)" xlink:href="#au"/><use transform="matrix(0.04938271604938272,0,0,0.04938271604938272,44.39506172839506,0)" xlink:href="#aD"/><use transform="matrix(0.04938271604938272,0,0,0.04938271604938272,51.308641975308646,0)" xlink:href="#aP"/><use transform="matrix(0.04938271604938272,0,0,0.04938271604938272,61.18518518518519,0)" xlink:href="#au"/></g><path fill="#333" d="M168-19C124 19 11 11 16-68c3-43 29-60 59-75-25-44-12-111 53-106 37 3 64 15 64 52 0 43-40 52-69 68 12 22 27 41 43 59 14-19 21-38 28-64l37 13c-8 29-19 52-34 74 12 10 32 16 52 10v35c-28 11-65-2-81-17zm-58-139c19-9 43-14 43-39 0-14-10-22-25-22-34 0-33 41-18 61zM60-68c-3 40 55 47 79 25-18-20-34-42-48-67-18 8-30 20-31 42" id="aR"/><use transform="matrix(0.04938271604938272,0,0,0.04938271604938272,0,0)" xlink:href="#aR" id="G"/><path fill="#333" d="M240-174c0 40-23 61-54 70L253 0h-59l-57-94H76V0H24v-248c93 4 217-23 216 74zM76-134c48-2 112 12 112-38 0-48-66-32-112-35v73" id="aS"/><path fill="#333" d="M123 10C108 53 80 86 19 72V37c35 8 53-11 59-39L3-190h52l48 148c12-52 28-100 44-148h51" id="aT"/><g id="H"><use transform="matrix(0.04938271604938272,0,0,0.04938271604938272,0,0)" xlink:href="#aS"/><use transform="matrix(0.04938271604938272,0,0,0.04938271604938272,12.790123456790125,0)" xlink:href="#au"/><use transform="matrix(0.04938271604938272,0,0,0.04938271604938272,22.66666666666667,0)" xlink:href="#az"/><use transform="matrix(0.04938271604938272,0,0,0.04938271604938272,27.604938271604947,0)" xlink:href="#ay"/><use transform="matrix(0.04938271604938272,0,0,0.04938271604938272,37.48148148148149,0)" xlink:href="#aT"/></g><g id="I"><use transform="matrix(0.04938271604938272,0,0,0.04938271604938272,0,0)" xlink:href="#ax"/><use transform="matrix(0.04938271604938272,0,0,0.04938271604938272,12.790123456790125,0)" xlink:href="#ay"/><use transform="matrix(0.04938271604938272,0,0,0.04938271604938272,22.66666666666667,0)" xlink:href="#az"/><use transform="matrix(0.04938271604938272,0,0,0.04938271604938272,27.604938271604947,0)" xlink:href="#az"/><use transform="matrix(0.04938271604938272,0,0,0.04938271604938272,32.543209876543216,0)" xlink:href="#aA"/><use transform="matrix(0.04938271604938272,0,0,0.04938271604938272,47.308641975308646,0)" xlink:href="#au"/><use transform="matrix(0.04938271604938272,0,0,0.04938271604938272,57.18518518518519,0)" xlink:href="#at"/><use transform="matrix(0.04938271604938272,0,0,0.04938271604938272,67.06172839506173,0)" xlink:href="#at"/><use transform="matrix(0.04938271604938272,0,0,0.04938271604938272,76.93827160493828,0)" xlink:href="#ay"/><use transform="matrix(0.04938271604938272,0,0,0.04938271604938272,86.81481481481482,0)" xlink:href="#aB"/><use transform="matrix(0.04938271604938272,0,0,0.04938271604938272,97.62962962962963,0)" xlink:href="#au"/></g><g id="J"><use transform="matrix(0.04938271604938272,0,0,0.04938271604938272,0,0)" xlink:href="#ax"/><use transform="matrix(0.04938271604938272,0,0,0.04938271604938272,12.790123456790125,0)" xlink:href="#ay"/><use transform="matrix(0.04938271604938272,0,0,0.04938271604938272,22.66666666666667,0)" xlink:href="#az"/><use transform="matrix(0.04938271604938272,0,0,0.04938271604938272,27.604938271604947,0)" xlink:href="#az"/><use transform="matrix(0.04938271604938272,0,0,0.04938271604938272,32.543209876543216,0)" xlink:href="#aA"/><use transform="matrix(0.04938271604938272,0,0,0.04938271604938272,47.308641975308646,0)" xlink:href="#au"/><use transform="matrix(0.04938271604938272,0,0,0.04938271604938272,57.18518518518519,0)" xlink:href="#at"/><use transform="matrix(0.04938271604938272,0,0,0.04938271604938272,67.06172839506173,0)" xlink:href="#at"/><use transform="matrix(0.04938271604938272,0,0,0.04938271604938272,76.93827160493828,0)" xlink:href="#ay"/><use transform="matrix(0.04938271604938272,0,0,0.04938271604938272,86.81481481481482,0)" xlink:href="#aB"/><use transform="matrix(0.04938271604938272,0,0,0.04938271604938272,97.62962962962963,0)" xlink:href="#au"/></g><g id="K"><use transform="matrix(0.04938271604938272,0,0,0.04938271604938272,0,0)" xlink:href="#aO"/><use transform="matrix(0.04938271604938272,0,0,0.04938271604938272,11.851851851851853,0)" xlink:href="#aP"/><use transform="matrix(0.04938271604938272,0,0,0.04938271604938272,21.7283950617284,0)" xlink:href="#au"/><use transform="matrix(0.04938271604938272,0,0,0.04938271604938272,31.60493827160494,0)" xlink:href="#av"/><use transform="matrix(0.04938271604938272,0,0,0.04938271604938272,42.41975308641976,0)" xlink:href="#aM"/></g><g id="L"><use transform="matrix(0.04938271604938272,0,0,0.04938271604938272,0,0)" xlink:href="#ax"/><use transform="matrix(0.04938271604938272,0,0,0.04938271604938272,12.790123456790125,0)" xlink:href="#ay"/><use transform="matrix(0.04938271604938272,0,0,0.04938271604938272,22.66666666666667,0)" xlink:href="#az"/><use transform="matrix(0.04938271604938272,0,0,0.04938271604938272,27.604938271604947,0)" xlink:href="#az"/><use transform="matrix(0.04938271604938272,0,0,0.04938271604938272,32.543209876543216,0)" xlink:href="#aO"/><use transform="matrix(0.04938271604938272,0,0,0.04938271604938272,44.39506172839507,0)" xlink:href="#aK"/><use transform="matrix(0.04938271604938272,0,0,0.04938271604938272,54.27160493827161,0)" xlink:href="#au"/><use transform="matrix(0.04938271604938272,0,0,0.04938271604938272,64.14814814814815,0)" xlink:href="#aL"/><use transform="matrix(0.04938271604938272,0,0,0.04938271604938272,74.0246913580247,0)" xlink:href="#aF"/><use transform="matrix(0.04938271604938272,0,0,0.04938271604938272,84.8395061728395,0)" xlink:href="#aM"/><use transform="matrix(0.04938271604938272,0,0,0.04938271604938272,90.71604938271605,0)" xlink:href="#au"/><use transform="matrix(0.04938271604938272,0,0,0.04938271604938272,100.5925925925926,0)" xlink:href="#aw"/></g><path fill="#333" d="M135-194c53 0 70 44 70 98 0 56-19 98-73 100-31 1-45-17-59-34 3 33 2 69 2 105H25l-1-265h48c2 10 0 23 3 31 11-24 29-35 60-35zM114-30c33 0 39-31 40-66 0-38-9-64-40-64-56 0-55 130 0 130" id="aU"/><path fill="#333" d="M110-194c64 0 96 36 96 99 0 64-35 99-97 99-61 0-95-36-95-99 0-62 34-99 96-99zm-1 164c35 0 45-28 45-65 0-40-10-65-43-65-34 0-45 26-45 65 0 36 10 65 43 65" id="aV"/><g id="M"><use transform="matrix(0.04938271604938272,0,0,0.04938271604938272,0,0)" xlink:href="#aS"/><use transform="matrix(0.04938271604938272,0,0,0.04938271604938272,12.790123456790125,0)" xlink:href="#au"/><use transform="matrix(0.04938271604938272,0,0,0.04938271604938272,22.66666666666667,0)" xlink:href="#at"/><use transform="matrix(0.04938271604938272,0,0,0.04938271604938272,32.543209876543216,0)" xlink:href="#aU"/><use transform="matrix(0.04938271604938272,0,0,0.04938271604938272,43.35802469135803,0)" xlink:href="#aV"/><use transform="matrix(0.04938271604938272,0,0,0.04938271604938272,54.17283950617284,0)" xlink:href="#av"/><use transform="matrix(0.04938271604938272,0,0,0.04938271604938272,64.98765432098766,0)" xlink:href="#at"/><use transform="matrix(0.04938271604938272,0,0,0.04938271604938272,74.8641975308642,0)" xlink:href="#au"/><use transform="matrix(0.04938271604938272,0,0,0.04938271604938272,84.74074074074075,0)" xlink:href="#aA"/><use transform="matrix(0.04938271604938272,0,0,0.04938271604938272,99.50617283950618,0)" xlink:href="#au"/><use transform="matrix(0.04938271604938272,0,0,0.04938271604938272,109.38271604938272,0)" xlink:href="#at"/><use transform="matrix(0.04938271604938272,0,0,0.04938271604938272,119.25925925925927,0)" xlink:href="#at"/><use transform="matrix(0.04938271604938272,0,0,0.04938271604938272,129.1358024691358,0)" xlink:href="#ay"/><use transform="matrix(0.04938271604938272,0,0,0.04938271604938272,139.01234567901236,0)" xlink:href="#aB"/><use transform="matrix(0.04938271604938272,0,0,0.04938271604938272,149.82716049382717,0)" xlink:href="#au"/></g><g id="N"><use transform="matrix(0.04938271604938272,0,0,0.04938271604938272,0,0)" xlink:href="#aO"/><use transform="matrix(0.04938271604938272,0,0,0.04938271604938272,11.851851851851853,0)" xlink:href="#aP"/><use transform="matrix(0.04938271604938272,0,0,0.04938271604938272,21.7283950617284,0)" xlink:href="#au"/><use transform="matrix(0.04938271604938272,0,0,0.04938271604938272,31.60493827160494,0)" xlink:href="#av"/><use transform="matrix(0.04938271604938272,0,0,0.04938271604938272,42.41975308641976,0)" xlink:href="#aM"/></g><path fill="#333" d="M147 0L96-86 75-71V0H25v-261h50v150l67-79h53l-66 74L201 0h-54" id="aW"/><g id="O"><use transform="matrix(0.04938271604938272,0,0,0.04938271604938272,0,0)" xlink:href="#aS"/><use transform="matrix(0.04938271604938272,0,0,0.04938271604938272,12.790123456790125,0)" xlink:href="#aV"/><use transform="matrix(0.04938271604938272,0,0,0.04938271604938272,23.60493827160494,0)" xlink:href="#az"/><use transform="matrix(0.04938271604938272,0,0,0.04938271604938272,28.543209876543212,0)" xlink:href="#az"/><use transform="matrix(0.04938271604938272,0,0,0.04938271604938272,33.48148148148148,0)" xlink:href="#aH"/><use transform="matrix(0.04938271604938272,0,0,0.04938271604938272,44.2962962962963,0)" xlink:href="#ay"/><use transform="matrix(0.04938271604938272,0,0,0.04938271604938272,54.17283950617284,0)" xlink:href="#aL"/><use transform="matrix(0.04938271604938272,0,0,0.04938271604938272,64.0493827160494,0)" xlink:href="#aW"/><use transform="matrix(0.04938271604938272,0,0,0.04938271604938272,73.92592592592594,0)" xlink:href="#aA"/><use transform="matrix(0.04938271604938272,0,0,0.04938271604938272,88.69135802469137,0)" xlink:href="#au"/><use transform="matrix(0.04938271604938272,0,0,0.04938271604938272,98.56790123456791,0)" xlink:href="#at"/><use transform="matrix(0.04938271604938272,0,0,0.04938271604938272,108.44444444444446,0)" xlink:href="#at"/><use transform="matrix(0.04938271604938272,0,0,0.04938271604938272,118.320987654321,0)" xlink:href="#ay"/><use transform="matrix(0.04938271604938272,0,0,0.04938271604938272,128.19753086419755,0)" xlink:href="#aB"/><use transform="matrix(0.04938271604938272,0,0,0.04938271604938272,139.01234567901236,0)" xlink:href="#au"/></g><g id="P"><use transform="matrix(0.04938271604938272,0,0,0.04938271604938272,0,0)" xlink:href="#aO"/><use transform="matrix(0.04938271604938272,0,0,0.04938271604938272,11.851851851851853,0)" xlink:href="#aP"/><use transform="matrix(0.04938271604938272,0,0,0.04938271604938272,21.7283950617284,0)" xlink:href="#au"/><use transform="matrix(0.04938271604938272,0,0,0.04938271604938272,31.60493827160494,0)" xlink:href="#av"/><use transform="matrix(0.04938271604938272,0,0,0.04938271604938272,42.41975308641976,0)" xlink:href="#aM"/></g><g id="Q"><use transform="matrix(0.04938271604938272,0,0,0.04938271604938272,0,0)" xlink:href="#aS"/><use transform="matrix(0.04938271604938272,0,0,0.04938271604938272,12.790123456790125,0)" xlink:href="#aV"/><use transform="matrix(0.04938271604938272,0,0,0.04938271604938272,23.60493827160494,0)" xlink:href="#az"/><use transform="matrix(0.04938271604938272,0,0,0.04938271604938272,28.543209876543212,0)" xlink:href="#az"/><use transform="matrix(0.04938271604938272,0,0,0.04938271604938272,33.48148148148148,0)" xlink:href="#aH"/><use transform="matrix(0.04938271604938272,0,0,0.04938271604938272,44.2962962962963,0)" xlink:href="#ay"/><use transform="matrix(0.04938271604938272,0,0,0.04938271604938272,54.17283950617284,0)" xlink:href="#aL"/><use transform="matrix(0.04938271604938272,0,0,0.04938271604938272,64.0493827160494,0)" xlink:href="#aW"/><use transform="matrix(0.04938271604938272,0,0,0.04938271604938272,73.92592592592594,0)" xlink:href="#aO"/><use transform="matrix(0.04938271604938272,0,0,0.04938271604938272,85.77777777777779,0)" xlink:href="#aK"/><use transform="matrix(0.04938271604938272,0,0,0.04938271604938272,95.65432098765433,0)" xlink:href="#au"/><use transform="matrix(0.04938271604938272,0,0,0.04938271604938272,105.53086419753087,0)" xlink:href="#aL"/><use transform="matrix(0.04938271604938272,0,0,0.04938271604938272,115.40740740740742,0)" xlink:href="#aF"/><use transform="matrix(0.04938271604938272,0,0,0.04938271604938272,126.22222222222223,0)" xlink:href="#aM"/><use transform="matrix(0.04938271604938272,0,0,0.04938271604938272,132.09876543209876,0)" xlink:href="#au"/><use transform="matrix(0.04938271604938272,0,0,0.04938271604938272,141.9753086419753,0)" xlink:href="#aw"/></g><g id="R"><use transform="matrix(0.04938271604938272,0,0,0.04938271604938272,0,0)" xlink:href="#aO"/><use transform="matrix(0.04938271604938272,0,0,0.04938271604938272,11.851851851851853,0)" xlink:href="#aP"/><use transform="matrix(0.04938271604938272,0,0,0.04938271604938272,21.7283950617284,0)" xlink:href="#au"/><use transform="matrix(0.04938271604938272,0,0,0.04938271604938272,31.60493827160494,0)" xlink:href="#av"/><use transform="matrix(0.04938271604938272,0,0,0.04938271604938272,42.41975308641976,0)" xlink:href="#aM"/></g><g id="S"><use transform="matrix(0.04938271604938272,0,0,0.04938271604938272,0,0)" xlink:href="#au"/><use transform="matrix(0.04938271604938272,0,0,0.04938271604938272,9.876543209876544,0)" xlink:href="#aK"/><use transform="matrix(0.04938271604938272,0,0,0.04938271604938272,19.75308641975309,0)" xlink:href="#au"/><use transform="matrix(0.04938271604938272,0,0,0.04938271604938272,29.629629629629633,0)" xlink:href="#aL"/><use transform="matrix(0.04938271604938272,0,0,0.04938271604938272,39.50617283950618,0)" xlink:href="#aF"/><use transform="matrix(0.04938271604938272,0,0,0.04938271604938272,50.320987654320994,0)" xlink:href="#aM"/><use transform="matrix(0.04938271604938272,0,0,0.04938271604938272,56.19753086419754,0)" xlink:href="#au"/><use transform="matrix(0.04938271604938272,0,0,0.04938271604938272,66.07407407407408,0)" xlink:href="#aS"/><use transform="matrix(0.04938271604938272,0,0,0.04938271604938272,78.8641975308642,0)" xlink:href="#aV"/><use transform="matrix(0.04938271604938272,0,0,0.04938271604938272,89.67901234567901,0)" xlink:href="#az"/><use transform="matrix(0.04938271604938272,0,0,0.04938271604938272,94.61728395061729,0)" xlink:href="#az"/><use transform="matrix(0.04938271604938272,0,0,0.04938271604938272,99.55555555555557,0)" xlink:href="#aH"/><use transform="matrix(0.04938271604938272,0,0,0.04938271604938272,110.37037037037038,0)" xlink:href="#ay"/><use transform="matrix(0.04938271604938272,0,0,0.04938271604938272,120.24691358024693,0)" xlink:href="#aL"/><use transform="matrix(0.04938271604938272,0,0,0.04938271604938272,130.12345679012347,0)" xlink:href="#aW"/></g><g id="T"><use transform="matrix(0.04938271604938272,0,0,0.04938271604938272,0,0)" xlink:href="#aS"/><use transform="matrix(0.04938271604938272,0,0,0.04938271604938272,12.790123456790125,0)" xlink:href="#au"/><use transform="matrix(0.04938271604938272,0,0,0.04938271604938272,22.66666666666667,0)" xlink:href="#at"/><use transform="matrix(0.04938271604938272,0,0,0.04938271604938272,32.543209876543216,0)" xlink:href="#aU"/><use transform="matrix(0.04938271604938272,0,0,0.04938271604938272,43.35802469135803,0)" xlink:href="#aV"/><use transform="matrix(0.04938271604938272,0,0,0.04938271604938272,54.17283950617284,0)" xlink:href="#av"/><use transform="matrix(0.04938271604938272,0,0,0.04938271604938272,64.98765432098766,0)" xlink:href="#at"/><use transform="matrix(0.04938271604938272,0,0,0.04938271604938272,74.8641975308642,0)" xlink:href="#au"/><use transform="matrix(0.04938271604938272,0,0,0.04938271604938272,84.74074074074075,0)" xlink:href="#aA"/><use transform="matrix(0.04938271604938272,0,0,0.04938271604938272,99.50617283950618,0)" xlink:href="#au"/><use transform="matrix(0.04938271604938272,0,0,0.04938271604938272,109.38271604938272,0)" xlink:href="#at"/><use transform="matrix(0.04938271604938272,0,0,0.04938271604938272,119.25925925925927,0)" xlink:href="#at"/><use transform="matrix(0.04938271604938272,0,0,0.04938271604938272,129.1358024691358,0)" xlink:href="#ay"/><use transform="matrix(0.04938271604938272,0,0,0.04938271604938272,139.01234567901236,0)" xlink:href="#aB"/><use transform="matrix(0.04938271604938272,0,0,0.04938271604938272,149.82716049382717,0)" xlink:href="#au"/></g><g id="U"><use transform="matrix(0.04938271604938272,0,0,0.04938271604938272,0,0)" xlink:href="#ay"/><use transform="matrix(0.04938271604938272,0,0,0.04938271604938272,9.876543209876544,0)" xlink:href="#av"/><use transform="matrix(0.04938271604938272,0,0,0.04938271604938272,20.69135802469136,0)" xlink:href="#aw"/></g><path fill="#333" d="M182-130c37 4 62 22 62 59C244 23 116-4 24 0v-248c84 5 203-23 205 63 0 31-19 50-47 55zM76-148c40-3 101 13 101-30 0-44-60-28-101-31v61zm0 110c48-3 116 14 116-37 0-48-69-32-116-35v72" id="aX"/><g id="V"><use transform="matrix(0.04938271604938272,0,0,0.04938271604938272,0,0)" xlink:href="#aS"/><use transform="matrix(0.04938271604938272,0,0,0.04938271604938272,12.790123456790125,0)" xlink:href="#aV"/><use transform="matrix(0.04938271604938272,0,0,0.04938271604938272,23.60493827160494,0)" xlink:href="#az"/><use transform="matrix(0.04938271604938272,0,0,0.04938271604938272,28.543209876543212,0)" xlink:href="#az"/><use transform="matrix(0.04938271604938272,0,0,0.04938271604938272,33.48148148148148,0)" xlink:href="#aX"/><use transform="matrix(0.04938271604938272,0,0,0.04938271604938272,46.27160493827161,0)" xlink:href="#ay"/><use transform="matrix(0.04938271604938272,0,0,0.04938271604938272,56.14814814814815,0)" xlink:href="#aL"/><use transform="matrix(0.04938271604938272,0,0,0.04938271604938272,66.0246913580247,0)" xlink:href="#aW"/><use transform="matrix(0.04938271604938272,0,0,0.04938271604938272,75.90123456790124,0)" xlink:href="#aA"/><use transform="matrix(0.04938271604938272,0,0,0.04938271604938272,90.66666666666667,0)" xlink:href="#au"/><use transform="matrix(0.04938271604938272,0,0,0.04938271604938272,100.54320987654322,0)" xlink:href="#at"/><use transform="matrix(0.04938271604938272,0,0,0.04938271604938272,110.41975308641976,0)" xlink:href="#at"/><use transform="matrix(0.04938271604938272,0,0,0.04938271604938272,120.2962962962963,0)" xlink:href="#ay"/><use transform="matrix(0.04938271604938272,0,0,0.04938271604938272,130.17283950617286,0)" xlink:href="#aB"/><use transform="matrix(0.04938271604938272,0,0,0.04938271604938272,140.98765432098767,0)" xlink:href="#au"/></g><g id="W"><use transform="matrix(0.04938271604938272,0,0,0.04938271604938272,0,0)" xlink:href="#aO"/><use transform="matrix(0.04938271604938272,0,0,0.04938271604938272,11.851851851851853,0)" xlink:href="#aP"/><use transform="matrix(0.04938271604938272,0,0,0.04938271604938272,21.7283950617284,0)" xlink:href="#au"/><use transform="matrix(0.04938271604938272,0,0,0.04938271604938272,31.60493827160494,0)" xlink:href="#av"/><use transform="matrix(0.04938271604938272,0,0,0.04938271604938272,42.41975308641976,0)" xlink:href="#aM"/><use transform="matrix(0.04938271604938272,0,0,0.04938271604938272,48.296296296296305,0)" xlink:href="#at"/></g><g id="X"><use transform="matrix(0.04938271604938272,0,0,0.04938271604938272,0,0)" xlink:href="#aI"/><use transform="matrix(0.04938271604938272,0,0,0.04938271604938272,10.814814814814815,0)" xlink:href="#ay"/><use transform="matrix(0.04938271604938272,0,0,0.04938271604938272,20.69135802469136,0)" xlink:href="#av"/><use transform="matrix(0.04938271604938272,0,0,0.04938271604938272,31.506172839506174,0)" xlink:href="#aw"/><use transform="matrix(0.04938271604938272,0,0,0.04938271604938272,42.320987654320994,0)" xlink:href="#az"/><use transform="matrix(0.04938271604938272,0,0,0.04938271604938272,47.25925925925927,0)" xlink:href="#au"/><use transform="matrix(0.04938271604938272,0,0,0.04938271604938272,57.135802469135804,0)" xlink:href="#ax"/><use transform="matrix(0.04938271604938272,0,0,0.04938271604938272,69.92592592592594,0)" xlink:href="#ay"/><use transform="matrix(0.04938271604938272,0,0,0.04938271604938272,79.80246913580248,0)" xlink:href="#az"/><use transform="matrix(0.04938271604938272,0,0,0.04938271604938272,84.74074074074076,0)" xlink:href="#az"/><use transform="matrix(0.04938271604938272,0,0,0.04938271604938272,89.67901234567904,0)" xlink:href="#aA"/><use transform="matrix(0.04938271604938272,0,0,0.04938271604938272,104.44444444444447,0)" xlink:href="#au"/><use transform="matrix(0.04938271604938272,0,0,0.04938271604938272,114.32098765432102,0)" xlink:href="#at"/><use transform="matrix(0.04938271604938272,0,0,0.04938271604938272,124.19753086419756,0)" xlink:href="#at"/><use transform="matrix(0.04938271604938272,0,0,0.04938271604938272,134.0740740740741,0)" xlink:href="#ay"/><use transform="matrix(0.04938271604938272,0,0,0.04938271604938272,143.95061728395063,0)" xlink:href="#aB"/><use transform="matrix(0.04938271604938272,0,0,0.04938271604938272,154.76543209876544,0)" xlink:href="#au"/></g><path fill="#333" d="M67-93c0 74 22 123 53 168H70C40 30 18-18 18-93s22-123 52-168h50c-32 44-53 94-53 168" id="aY"/><path fill="#333" d="M102-93c0 74-22 123-52 168H0C30 29 54-18 53-93c0-74-22-123-53-168h50c30 45 52 94 52 168" id="aZ"/><g id="Y"><use transform="matrix(0.04938271604938272,0,0,0.04938271604938272,0,0)" xlink:href="#aY"/><use transform="matrix(0.04938271604938272,0,0,0.04938271604938272,5.8765432098765435,0)" xlink:href="#aD"/><use transform="matrix(0.04938271604938272,0,0,0.04938271604938272,12.790123456790125,0)" xlink:href="#aV"/><use transform="matrix(0.04938271604938272,0,0,0.04938271604938272,23.604938271604937,0)" xlink:href="#az"/><use transform="matrix(0.04938271604938272,0,0,0.04938271604938272,28.543209876543205,0)" xlink:href="#az"/><use transform="matrix(0.04938271604938272,0,0,0.04938271604938272,33.48148148148148,0)" xlink:href="#aH"/><use transform="matrix(0.04938271604938272,0,0,0.04938271604938272,44.2962962962963,0)" xlink:href="#ay"/><use transform="matrix(0.04938271604938272,0,0,0.04938271604938272,54.17283950617284,0)" xlink:href="#aL"/><use transform="matrix(0.04938271604938272,0,0,0.04938271604938272,64.0493827160494,0)" xlink:href="#aW"/><use transform="matrix(0.04938271604938272,0,0,0.04938271604938272,73.92592592592594,0)" xlink:href="#aZ"/></g></defs></g></svg>