<svg xmlns="http://www.w3.org/2000/svg" xmlns:xlink="http://www.w3.org/1999/xlink" xmlns:lucid="lucid" width="3000" height="1040"><g transform="translate(400 -140)" lucid:page-tab-id="0_0"><path d="M-500 0h3500v1500H-500z" fill="#fff"/><path d="M-150 420c-13.8 0-25 11.2-25 25v150c0 13.8-11.2 25-25 25 13.8 0 25 11.2 25 25v150c0 13.8 11.2 25 25 25m800 0c13.8 0 25-11.2 25-25V645c0-13.8 11.2-25 25-25-13.8 0-25-11.2-25-25V445c0-13.8-11.2-25-25-25M1570 420c-13.8 0-25 11.2-25 25v150c0 13.8-11.2 25-25 25 13.8 0 25 11.2 25 25v150c0 13.8 11.2 25 25 25m740 0c13.8 0 25-11.2 25-25V645c0-13.8 11.2-25 25-25-13.8 0-25-11.2-25-25V445c0-13.8-11.2-25-25-25" stroke="#3a414a" fill="none"/><path d="M100 740h240v60H100z" fill="none"/><use xlink:href="#a" transform="matrix(1,0,0,1,100,740) translate(42.296296296296305 35.33333333333333)"/><use xlink:href="#b" transform="matrix(1,0,0,1,100,740) translate(134.07407407407408 35.33333333333333)"/><path d="M973.75 824.56h240v60h-240z" fill="none"/><use xlink:href="#c" transform="matrix(1,0,0,1,973.7542964328641,824.5622070072144) translate(76.26543209876543 34.44444444444444)"/><path d="M-93.33 546.67H13.35v106.68H-93.33V546.67z" stroke="#000" stroke-opacity="0" fill="url(#d)"/><path d="M-100 540H20v120h-120V540z" stroke="#879196" stroke-width="2" fill="#007bc0" fill-opacity="0"/><path d="M-6.7 608.3h-16.13c-.15 0-.37-.08-.6-.17v-6.48h-8.27v6.66h-16.13c-.15 0-.37-.08-.6-.17v-6.48h-8.27v6.48c-.22.1-.44.18-.6.18H-73.4v-16.6H-57c.08 0 .15.04.3.1v6.55h8.28v-6.55c.15-.06.22-.1.3-.1h16.42v6.65h8.28v-6.55c.15-.06.22-.1.3-.1H-6.7v16.6zm.22-19.94h-16.64c-1.47 0-3.6 1.2-3.6 3.14v3.52h-1.68v-3.52c0-1.72-1.4-3.14-3.08-3.14h-16.64c-1.47 0-3.6 1.2-3.6 3.14v3.52h-1.68v-3.52c0-1.95-2.13-3.14-3.6-3.14h-16.64c-1.7 0-3.08 1.42-3.08 3.14v17.04c0 1.73 1.4 3.1 3.08 3.1h16.35c1.4 0 3.9-1.07 3.9-3.1v-3.56h1.68v3.56c0 2.03 2.5 3.1 3.9 3.1h16.4c1.63 0 3.02-1.37 3.02-3.1v-3.56h1.68v3.56c0 2.03 2.5 3.1 3.9 3.1H-6.5c1.7 0 3.08-1.37 3.08-3.1V591.5c0-1.72-1.4-3.14-3.08-3.14zm-11.95 14.97h6.67v-6.66h-6.67v6.66zm-.37 3.33h7.48c1.6 0 2.93-1.33 2.93-2.96v-7.4c0-1.63-1.3-2.96-2.92-2.96h-7.48c-1.6 0-2.93 1.33-2.93 2.96v7.4c0 1.63 1.32 2.96 2.93 2.96zm-24.56-3.33h6.6v-6.66h-6.6v6.66zm7.04-10h-7.48c-1.6 0-2.93 1.34-2.93 2.97v7.4c0 1.63 1.32 2.96 2.93 2.96h7.48c1.6 0 2.93-1.33 2.93-2.96v-7.4c0-1.63-1.3-2.96-2.92-2.96zm-32.04 10h6.67v-6.66h-6.66v6.66zm7.04-10h-7.48c-1.6 0-2.93 1.34-2.93 2.97v7.4c0 1.63 1.32 2.96 2.93 2.96h7.48c1.6 0 2.93-1.33 2.93-2.96v-7.4c0-1.63-1.3-2.96-2.92-2.96z" stroke="#000" stroke-opacity="0" fill="#78ffff"/><use xlink:href="#e" transform="matrix(1,0,0,1,-130,669) translate(4.938271604938279 17.77777777777778)"/><use xlink:href="#f" transform="matrix(1,0,0,1,-130,669) translate(70.24691358024691 17.77777777777778)"/><use xlink:href="#g" transform="matrix(1,0,0,1,-130,669) translate(160.2469135802469 17.77777777777778)"/><path d="M2186.67 545.07h106.68v106.67h-106.68V545.08z" stroke="#000" stroke-opacity="0" fill="url(#h)"/><path d="M2180 538.4h120v120h-120v-120z" stroke="#879196" stroke-width="2" fill="#007bc0" fill-opacity="0"/><path d="M2273.3 606.7h-16.13c-.15 0-.37-.1-.6-.18v-6.47h-8.27v6.65h-16.13c-.15 0-.37-.1-.6-.18v-6.47h-8.27v6.47c-.22.1-.44.18-.6.18h-16.12v-16.62H2223c.08 0 .15.05.3.12v6.54h8.28v-6.54c.15-.07.22-.12.3-.12h16.42v6.66h8.28v-6.54c.15-.07.22-.12.3-.12h16.42v16.62zm.22-19.95h-16.64c-1.47 0-3.6 1.2-3.6 3.15v3.5h-1.68v-3.5c0-1.73-1.4-3.15-3.08-3.15h-16.64c-1.47 0-3.6 1.2-3.6 3.15v3.5h-1.68v-3.5c0-1.96-2.13-3.15-3.6-3.15h-16.64c-1.7 0-3.08 1.42-3.08 3.15v17.04c0 1.72 1.4 3.1 3.08 3.1h16.35c1.4 0 3.9-1.08 3.9-3.1v-3.57h1.68v3.57c0 2.02 2.5 3.1 3.9 3.1h16.4c1.63 0 3.02-1.38 3.02-3.1v-3.57h1.68v3.57c0 2.02 2.5 3.1 3.9 3.1h16.34c1.7 0 3.08-1.38 3.08-3.1V589.9c0-1.73-1.4-3.15-3.08-3.15zm-11.95 14.97h6.67v-6.66h-6.67v6.66zm-.37 3.33h7.48c1.6 0 2.93-1.33 2.93-2.96v-7.4c0-1.64-1.3-2.97-2.92-2.97h-7.48c-1.6 0-2.93 1.33-2.93 2.96v7.4c0 1.62 1.32 2.95 2.93 2.95zm-24.56-3.33h6.6v-6.66h-6.6v6.66zm7.04-10h-7.48c-1.6 0-2.93 1.34-2.93 2.97v7.4c0 1.62 1.32 2.95 2.93 2.95h7.48c1.6 0 2.93-1.33 2.93-2.96v-7.4c0-1.64-1.3-2.97-2.92-2.97zm-32.04 10h6.67v-6.66h-6.66v6.66zm7.04-10h-7.48c-1.6 0-2.93 1.34-2.93 2.97v7.4c0 1.62 1.32 2.95 2.93 2.95h7.48c1.6 0 2.93-1.33 2.93-2.96v-7.4c0-1.64-1.3-2.97-2.92-2.97z" stroke="#000" stroke-opacity="0" fill="#78ffff"/><use xlink:href="#e" transform="matrix(1,0,0,1,2150,667.392710170488) translate(4.938271604938279 17.77777777777778)"/><use xlink:href="#f" transform="matrix(1,0,0,1,2150,667.392710170488) translate(70.24691358024691 17.77777777777778)"/><use xlink:href="#i" transform="matrix(1,0,0,1,2150,667.392710170488) translate(160.2469135802469 17.77777777777778)"/><path d="M426.67 546.67h106.68v106.68H426.67V546.67z" stroke="#000" stroke-opacity="0" fill="url(#j)"/><path d="M420 540h120v120H420V540z" stroke="#879196" stroke-width="2" fill="#007bc0" fill-opacity="0"/><path d="M513.3 608.3h-16.13c-.15 0-.37-.08-.6-.17v-6.48h-8.27v6.66h-16.13c-.15 0-.37-.08-.6-.17v-6.48h-8.27v6.48c-.22.1-.44.18-.6.18H446.6v-16.6H463c.08 0 .15.04.3.1v6.55h8.28v-6.55c.15-.06.22-.1.3-.1h16.42v6.65h8.28v-6.55c.15-.06.22-.1.3-.1h16.42v16.6zm.22-19.94h-16.64c-1.47 0-3.6 1.2-3.6 3.14v3.52h-1.68v-3.52c0-1.72-1.4-3.14-3.08-3.14h-16.64c-1.47 0-3.6 1.2-3.6 3.14v3.52h-1.68v-3.52c0-1.95-2.13-3.14-3.6-3.14h-16.64c-1.7 0-3.08 1.42-3.08 3.14v17.04c0 1.73 1.4 3.1 3.08 3.1h16.35c1.4 0 3.9-1.07 3.9-3.1v-3.56h1.68v3.56c0 2.03 2.5 3.1 3.9 3.1h16.4c1.63 0 3.02-1.37 3.02-3.1v-3.56h1.68v3.56c0 2.03 2.5 3.1 3.9 3.1h16.34c1.7 0 3.08-1.37 3.08-3.1V591.5c0-1.72-1.4-3.14-3.08-3.14zm-11.95 14.97h6.67v-6.66h-6.67v6.66zm-.37 3.33h7.48c1.6 0 2.93-1.33 2.93-2.96v-7.4c0-1.63-1.3-2.96-2.92-2.96h-7.48c-1.6 0-2.93 1.33-2.93 2.96v7.4c0 1.63 1.32 2.96 2.93 2.96zm-24.56-3.33h6.6v-6.66h-6.6v6.66zm7.04-10h-7.48c-1.6 0-2.93 1.34-2.93 2.97v7.4c0 1.63 1.32 2.96 2.93 2.96h7.48c1.6 0 2.93-1.33 2.93-2.96v-7.4c0-1.63-1.3-2.96-2.92-2.96zm-32.04 10h6.67v-6.66h-6.66v6.66zm7.04-10h-7.48c-1.6 0-2.93 1.34-2.93 2.97v7.4c0 1.63 1.32 2.96 2.93 2.96h7.48c1.6 0 2.93-1.33 2.93-2.96v-7.4c0-1.63-1.3-2.96-2.92-2.96z" stroke="#000" stroke-opacity="0" fill="#78ffff"/><use xlink:href="#k" transform="matrix(1,0,0,1,389.9999999999999,669) translate(32.74691358024691 17.77777777777778)"/><use xlink:href="#l" transform="matrix(1,0,0,1,389.9999999999999,669) translate(88.11728395061729 17.77777777777778)"/><use xlink:href="#m" transform="matrix(1,0,0,1,389.9999999999999,669) translate(48.08641975308642 44.44444444444444)"/><path d="M960 458.7h100v97.4H960v-97.4z" stroke="#000" stroke-opacity="0" fill="url(#n)"/><path d="M1016.26 530.13v-8.8h3.1v8.8c0 6.06-11.3 9.3-21.88 9.3-10.6 0-21.88-3.24-21.88-9.3v-43.95c0-6 11.28-9.17 21.88-9.17s21.88 3.2 21.88 9.18v12.24h-3.1v-7.37c-4.06 2.8-11.56 4.3-18.78 4.3-7.16 0-14.66-1.5-18.78-4.3v10.37c1.17 1.93 4.67 4.5 9.97 5.43l-.62 3c-3.64-.7-6.95-2.13-9.35-3.94v10.7c1.85 3.04 9.2 6.23 18.43 6.23 9.02 0 13.76-2 13.83-2.06l1.3 2.8c-.2.07-5.36 2.32-15.13 2.32-7.36 0-14.38-1.95-18.43-4.94v9.17c0 2.63 7.15 6.25 18.78 6.25s18.78-3.63 18.78-6.25zm25.6-28.65c1.37 0 2.54 1.12 2.54 2.5v11.8c0 1.37-1.17 2.5-2.55 2.5h-12.04c-1.36 0-2.53-1.13-2.53-2.5v-2.07h-1.65v2.07c0 1.38-1.1 2.5-2.55 2.5h-12.1c-1.38 0-2.55-1.12-2.55-2.5v-2.06h-1.52v2.07c0 1.38-1.17 2.5-2.6 2.5h-12.05c-1.45 0-2.55-1.12-2.55-2.5v-11.8c0-1.37 1.1-2.5 2.55-2.5h12.04c1.43 0 2.6 1.13 2.6 2.5v2.07h1.52v-2.06c0-1.38 1.17-2.5 2.54-2.5h12.1c1.46 0 2.56 1.12 2.56 2.5v2.06h1.58v-2.06c0-1.38 1.17-2.5 2.55-2.5zm-.56 13.73v-10.66h-11v4.56h-7.78v-4.56h-10.94v4.56h-7.84v-4.56H992.8v10.67h10.94v-4.55h7.84v4.56h10.94v-4.55h7.9v4.56zm-43.82-35.14c-11.63 0-18.78 3.56-18.78 6.12s7.15 6.12 18.78 6.12 18.78-3.56 18.78-6.12-7.15-6.12-18.78-6.12zm20.9 25.98c1.4 0 2.56 1.12 2.56 2.5v2.68c0 1.37-1.17 2.5-2.55 2.5h-2.7c-1.43 0-2.6-1.13-2.6-2.5v-2.7c0-1.36 1.17-2.48 2.6-2.48zm16.04 7.67c-1.37 0-2.54-1.1-2.54-2.48v-2.7c0-1.36 1.17-2.48 2.54-2.48h2.76c1.37 0 2.54 1.12 2.54 2.5v2.68c0 1.37-1.17 2.5-2.54 2.5zm-34.8-7.66c1.44 0 2.54 1.12 2.54 2.5v2.68c0 1.37-1.1 2.5-2.55 2.5h-2.67c-1.45 0-2.55-1.13-2.55-2.5v-2.7c0-1.36 1.1-2.48 2.55-2.48zm-2.14 4.6h1.58v-1.54h-1.58zm18.78 0h1.58v-1.54h-1.58zm18.78 0h1.52v-1.54h-1.52z" stroke="#000" stroke-opacity="0" fill="#78ffff"/><use xlink:href="#o" transform="matrix(1,0,0,1,930,565.0890652557321) translate(41.82098765432099 17.77777777777778)"/><path d="M1666.67 545.07h106.68v106.67h-106.68V545.08z" stroke="#000" stroke-opacity="0" fill="url(#p)"/><path d="M1660 538.4h120v120h-120v-120z" stroke="#879196" stroke-width="2" fill="#007bc0" fill-opacity="0"/><path d="M1753.3 606.7h-16.13c-.15 0-.37-.1-.6-.18v-6.47h-8.27v6.65h-16.13c-.15 0-.37-.1-.6-.18v-6.47h-8.27v6.47c-.22.1-.44.18-.6.18h-16.12v-16.62H1703c.08 0 .15.05.3.12v6.54h8.28v-6.54c.15-.07.22-.12.3-.12h16.42v6.66h8.28v-6.54c.15-.07.22-.12.3-.12h16.42v16.62zm.22-19.95h-16.64c-1.47 0-3.6 1.2-3.6 3.15v3.5h-1.68v-3.5c0-1.73-1.4-3.15-3.08-3.15h-16.64c-1.47 0-3.6 1.2-3.6 3.15v3.5h-1.68v-3.5c0-1.96-2.13-3.15-3.6-3.15h-16.64c-1.7 0-3.08 1.42-3.08 3.15v17.04c0 1.72 1.4 3.1 3.08 3.1h16.35c1.4 0 3.9-1.08 3.9-3.1v-3.57h1.68v3.57c0 2.02 2.5 3.1 3.9 3.1h16.4c1.63 0 3.02-1.38 3.02-3.1v-3.57h1.68v3.57c0 2.02 2.5 3.1 3.9 3.1h16.34c1.7 0 3.08-1.38 3.08-3.1V589.9c0-1.73-1.4-3.15-3.08-3.15zm-11.95 14.97h6.67v-6.66h-6.67v6.66zm-.37 3.33h7.48c1.6 0 2.93-1.33 2.93-2.96v-7.4c0-1.64-1.3-2.97-2.92-2.97h-7.48c-1.6 0-2.93 1.33-2.93 2.96v7.4c0 1.62 1.32 2.95 2.93 2.95zm-24.56-3.33h6.6v-6.66h-6.6v6.66zm7.04-10h-7.48c-1.6 0-2.93 1.34-2.93 2.97v7.4c0 1.62 1.32 2.95 2.93 2.95h7.48c1.6 0 2.93-1.33 2.93-2.96v-7.4c0-1.64-1.3-2.97-2.92-2.97zm-32.04 10h6.67v-6.66h-6.66v6.66zm7.04-10h-7.48c-1.6 0-2.93 1.34-2.93 2.97v7.4c0 1.62 1.32 2.95 2.93 2.95h7.48c1.6 0 2.93-1.33 2.93-2.96v-7.4c0-1.64-1.3-2.97-2.92-2.97z" stroke="#000" stroke-opacity="0" fill="#78ffff"/><use xlink:href="#k" transform="matrix(1,0,0,1,1630,667.392710170488) translate(32.74691358024691 17.77777777777778)"/><use xlink:href="#l" transform="matrix(1,0,0,1,1630,667.392710170488) translate(88.11728395061729 17.77777777777778)"/><use xlink:href="#m" transform="matrix(1,0,0,1,1630,667.392710170488) translate(48.08641975308642 44.44444444444444)"/><path d="M-1.68 1000h-76.64c-.88 0-1.68-.76-1.68-1.7v-5.12c0-18.18 11.92-33.43 29.52-37.7.48-.1.88-.05 1.28.17 5.92 3.2 12.48 3.2 18.4 0 .4-.22.8-.26 1.2-.17C-11.92 959.75 0 975 0 993.18v5.13c0 .94-.8 1.7-1.68 1.7zm-74.88-3.43h73.12v-3.4C-3.36 976.83-14 963.1-29.76 959c-3.36 1.64-6.48 2.4-10.24 2.4s-6.88-.7-10.24-2.4c-15.76 4.1-26.4 17.82-26.32 34.18z" stroke="#fff" stroke-opacity="0" fill="#232f3e"/><path d="M-40 961.3c-3.67 0-6.8-.78-10.03-2.56-9.95-5.58-13.5-18.2-7.93-28.17 5.58-9.95 18.17-13.5 28.1-7.93 6.72 3.76 10.56 10.33 10.56 18.05 0 7.76-3.93 14.36-10.74 18.04-3.22 1.73-6.32 2.56-9.95 2.56zm0-37.83c-6.6-.17-12.26 3.18-15.44 8.96-4.5 8.4-1.4 18.8 6.94 23.34 5.4 2.93 11.36 2.93 16.77 0 5.7-3.1 9-8.68 8.96-15.2-.04-9.5-7.77-17.14-17.22-17.1z" stroke="#fff" stroke-opacity="0" fill="#232f3e"/><use xlink:href="#q" transform="matrix(1,0,0,1,-110,1009) translate(41.69753086419753 17.77777777777778)"/><path d="M1838.32 980h-76.64c-.88 0-1.68-.76-1.68-1.7v-5.12c0-18.18 11.92-33.43 29.52-37.7.48-.1.88-.05 1.28.17 5.92 3.2 12.48 3.2 18.4 0 .4-.22.8-.26 1.2-.17 17.68 4.27 29.6 19.52 29.6 37.7v5.13c0 .94-.8 1.7-1.68 1.7zm-74.88-3.43h73.12v-3.4c.08-16.35-10.56-30.07-26.32-34.17-3.36 1.64-6.48 2.4-10.24 2.4s-6.88-.7-10.24-2.4c-15.76 4.1-26.4 17.82-26.32 34.18z" stroke="#fff" stroke-opacity="0" fill="#232f3e"/><path d="M1800 941.3c-3.67 0-6.8-.78-10.03-2.56-9.95-5.58-13.5-18.2-7.93-28.17 5.58-9.95 18.17-13.5 28.1-7.93 6.72 3.76 10.56 10.33 10.56 18.05 0 7.76-3.92 14.36-10.74 18.04-3.22 1.73-6.32 2.56-9.95 2.56zm0-37.83c-6.6-.17-12.26 3.18-15.44 8.96-4.5 8.4-1.4 18.8 6.94 23.34 5.4 2.93 11.36 2.93 16.77 0 5.7-3.1 9-8.68 8.96-15.2-.04-9.5-7.77-17.14-17.22-17.1z" stroke="#fff" stroke-opacity="0" fill="#232f3e"/><use xlink:href="#q" transform="matrix(1,0,0,1,1730,989) translate(41.69753086419753 17.77777777777778)"/><path d="M1800.5 899.53h-1V807.4h1zm-2.63-289.45l.48.1.45.2.42.25.37.32.3.37.26.42.2.45.1.47.04.47v172.93h-1v-172.9l-.03-.34-.08-.33-.13-.3-.17-.3-.22-.24-.25-.2-.3-.2-.3-.12-.32-.07-.36-.03.08-1z" stroke="#fe7070" stroke-width=".05" fill="#fe7070"/><path d="M1800.5 900.03l-.26-.02-.74.07v-.56h1z" fill="#fe7070"/><path d="M1800.53 900.06l-.3-.03-.76.06v-.6h1.06zm-1-.52v.5l.72-.06.22.02v-.46z" stroke="#fe7070" stroke-width=".05" fill="#fe7070"/><path d="M1796.88 615.17l-14.26-4.63 14.26-4.64z" fill="#fe7070"/><path d="M1797.38 615.86l-16.38-5.32 16.38-5.32zm-13.14-5.32l12.14 3.95v-7.9z" stroke="#fe7070" stroke-width=".05" fill="#fe7070"/><use xlink:href="#r" transform="matrix(1,0,0,1,1718.1728395061727,786.0665272222136) translate(0 14.222222222222223)"/><use xlink:href="#s" transform="matrix(1,0,0,1,1718.1728395061727,786.0665272222136) translate(65.03703703703704 14.222222222222223)"/><path d="M1920 738.4h240v60h-240z" fill="none"/><use xlink:href="#t" transform="matrix(1,0,0,1,1920,738.392710170488) translate(17.925925925925938 35.33333333333333)"/><use xlink:href="#b" transform="matrix(1,0,0,1,1920,738.392710170488) translate(158.44444444444446 35.33333333333333)"/><path d="M932.5 407.4c-14.5 0-26.25 11.75-26.25 26.24v157.5c0 14.5-11.75 26.25-26.25 26.25 14.5 0 26.25 11.75 26.25 26.24v157.5c0 14.5 11.75 26.25 26.25 26.25m335 0c14.5 0 26.25-11.76 26.25-26.26v-157.5c0-14.5 11.75-26.25 26.25-26.25-14.5 0-26.25-11.76-26.25-26.26v-157.5c0-14.5-11.75-26.25-26.25-26.25" stroke="#3a414a" fill="none"/><path d="M1140 458.7h100v97.4h-100v-97.4z" stroke="#000" stroke-opacity="0" fill="url(#u)"/><path d="M1196.26 530.13v-8.8h3.1v8.8c0 6.06-11.3 9.3-21.88 9.3-10.6 0-21.88-3.24-21.88-9.3v-43.95c0-6 11.28-9.17 21.88-9.17s21.88 3.2 21.88 9.18v12.24h-3.1v-7.37c-4.06 2.8-11.56 4.3-18.78 4.3-7.16 0-14.66-1.5-18.78-4.3v10.37c1.17 1.93 4.67 4.5 9.97 5.43l-.62 3c-3.64-.7-6.95-2.13-9.35-3.94v10.7c1.85 3.04 9.2 6.23 18.43 6.23 9.02 0 13.76-2 13.83-2.06l1.3 2.8c-.2.07-5.36 2.32-15.13 2.32-7.36 0-14.38-1.95-18.43-4.94v9.17c0 2.63 7.15 6.25 18.78 6.25s18.78-3.63 18.78-6.25zm25.6-28.65c1.37 0 2.54 1.12 2.54 2.5v11.8c0 1.37-1.17 2.5-2.55 2.5h-12.04c-1.36 0-2.53-1.13-2.53-2.5v-2.07h-1.65v2.07c0 1.38-1.1 2.5-2.55 2.5h-12.1c-1.38 0-2.55-1.12-2.55-2.5v-2.06h-1.52v2.07c0 1.38-1.17 2.5-2.6 2.5h-12.05c-1.44 0-2.55-1.12-2.55-2.5v-11.8c0-1.37 1.1-2.5 2.55-2.5h12.04c1.43 0 2.6 1.13 2.6 2.5v2.07h1.52v-2.06c0-1.38 1.17-2.5 2.54-2.5h12.1c1.46 0 2.56 1.12 2.56 2.5v2.06h1.58v-2.06c0-1.38 1.17-2.5 2.55-2.5zm-.56 13.73v-10.66h-11v4.56h-7.78v-4.56h-10.94v4.56h-7.84v-4.56h-10.94v10.67h10.94v-4.55h7.84v4.56h10.94v-4.55h7.9v4.56zm-43.82-35.14c-11.63 0-18.78 3.56-18.78 6.12s7.15 6.12 18.78 6.12 18.78-3.56 18.78-6.12-7.15-6.12-18.78-6.12zm20.9 25.98c1.4 0 2.56 1.12 2.56 2.5v2.68c0 1.37-1.17 2.5-2.55 2.5h-2.7c-1.43 0-2.6-1.13-2.6-2.5v-2.7c0-1.36 1.17-2.48 2.6-2.48zm16.04 7.67c-1.37 0-2.54-1.1-2.54-2.48v-2.7c0-1.36 1.17-2.48 2.54-2.48h2.76c1.37 0 2.54 1.12 2.54 2.5v2.68c0 1.37-1.17 2.5-2.54 2.5zm-34.8-7.66c1.44 0 2.54 1.12 2.54 2.5v2.68c0 1.37-1.1 2.5-2.55 2.5h-2.67c-1.45 0-2.55-1.13-2.55-2.5v-2.7c0-1.36 1.1-2.48 2.55-2.48zm-2.14 4.6h1.58v-1.54h-1.58zm18.78 0h1.58v-1.54h-1.58zm18.78 0h1.52v-1.54h-1.52z" stroke="#000" stroke-opacity="0" fill="#78ffff"/><use xlink:href="#o" transform="matrix(1,0,0,1,1110,565.0890652557321) translate(41.82098765432099 17.77777777777778)"/><path d="M953.88 607.4h100v97.38h-100v-97.4z" stroke="#000" stroke-opacity="0" fill="url(#v)"/><path d="M1010.14 678.83v-8.8h3.1v8.8c0 6.05-11.28 9.3-21.88 9.3s-21.88-3.25-21.88-9.3v-43.95c0-6 11.28-9.18 21.88-9.18s21.88 3.2 21.88 9.18v12.24h-3.1v-7.37c-4.06 2.8-11.56 4.3-18.78 4.3-7.16 0-14.65-1.5-18.78-4.3v10.36c1.17 1.95 4.67 4.5 9.97 5.44l-.62 3c-3.64-.7-6.94-2.12-9.35-3.93v10.68c1.85 3.06 9.22 6.25 18.43 6.25 9.03 0 13.77-2 13.84-2.06l1.3 2.8c-.2.07-5.36 2.3-15.13 2.3-7.35 0-14.36-1.92-18.42-4.92v9.18c0 2.62 7.15 6.24 18.78 6.24s18.78-3.62 18.78-6.24zm25.6-28.66c1.37 0 2.54 1.13 2.54 2.5v11.8c0 1.37-1.17 2.5-2.55 2.5h-12.03c-1.38 0-2.55-1.13-2.55-2.5v-2.06h-1.65v2.07c0 1.37-1.1 2.5-2.55 2.5h-12.1c-1.38 0-2.55-1.13-2.55-2.5v-2.06h-1.5v2.07c0 1.37-1.18 2.5-2.63 2.5h-12.04c-1.44 0-2.54-1.13-2.54-2.5v-11.8c0-1.37 1.1-2.5 2.53-2.5h12.04c1.45 0 2.62 1.13 2.62 2.5v2.06h1.5v-2.06c0-1.37 1.17-2.5 2.54-2.5h12.1c1.46 0 2.56 1.13 2.56 2.5v2.06h1.58v-2.06c0-1.37 1.17-2.5 2.55-2.5zm-.56 13.74v-10.67h-11v4.56h-7.78v-4.57h-10.94v4.56h-7.84v-4.57h-10.94v10.68h10.94v-4.55h7.84v4.56h10.94v-4.55h7.92v4.56zm-43.82-35.14c-11.63 0-18.78 3.56-18.78 6.12s7.15 6.12 18.78 6.12 18.78-3.56 18.78-6.12-7.15-6.12-18.78-6.12zm20.9 25.97c1.4 0 2.56 1.13 2.56 2.5v2.68c0 1.4-1.17 2.5-2.55 2.5h-2.68c-1.45 0-2.62-1.1-2.62-2.5v-2.67c0-1.37 1.17-2.5 2.6-2.5zm16.05 7.68c-1.37 0-2.54-1.1-2.54-2.5v-2.67c0-1.37 1.17-2.5 2.55-2.5h2.76c1.37 0 2.54 1.13 2.54 2.5v2.68c0 1.4-1.17 2.5-2.54 2.5zm-34.8-7.67c1.44 0 2.54 1.13 2.54 2.5v2.68c0 1.4-1.1 2.5-2.55 2.5h-2.7c-1.44 0-2.54-1.1-2.54-2.5v-2.67c0-1.37 1.1-2.5 2.55-2.5zm-2.14 4.62h1.58v-1.56h-1.58zm18.78 0h1.58v-1.56h-1.58zm18.78 0h1.52v-1.56h-1.52z" stroke="#000" stroke-opacity="0" fill="#78ffff"/><use xlink:href="#o" transform="matrix(1,0,0,1,923.8810952186034,713.7854203409761) translate(41.82098765432099 17.77777777777778)"/><path d="M1140 607.4h100v97.38h-100v-97.4z" stroke="#000" stroke-opacity="0" fill="url(#w)"/><path d="M1196.26 678.83v-8.8h3.1v8.8c0 6.05-11.3 9.3-21.88 9.3-10.6 0-21.88-3.25-21.88-9.3v-43.95c0-6 11.28-9.18 21.88-9.18s21.88 3.2 21.88 9.18v12.24h-3.1v-7.37c-4.06 2.8-11.56 4.3-18.78 4.3-7.16 0-14.66-1.5-18.78-4.3v10.36c1.17 1.95 4.67 4.5 9.97 5.44l-.62 3c-3.64-.7-6.95-2.12-9.35-3.93v10.68c1.85 3.06 9.2 6.25 18.43 6.25 9.02 0 13.76-2 13.83-2.06l1.3 2.8c-.2.07-5.36 2.3-15.13 2.3-7.36 0-14.38-1.92-18.43-4.92v9.18c0 2.62 7.15 6.24 18.78 6.24s18.78-3.62 18.78-6.24zm25.6-28.66c1.37 0 2.54 1.13 2.54 2.5v11.8c0 1.37-1.17 2.5-2.55 2.5h-12.04c-1.36 0-2.53-1.13-2.53-2.5v-2.06h-1.65v2.07c0 1.37-1.1 2.5-2.55 2.5h-12.1c-1.38 0-2.55-1.13-2.55-2.5v-2.06h-1.52v2.07c0 1.37-1.17 2.5-2.6 2.5h-12.05c-1.44 0-2.55-1.13-2.55-2.5v-11.8c0-1.37 1.1-2.5 2.55-2.5h12.04c1.43 0 2.6 1.13 2.6 2.5v2.06h1.52v-2.06c0-1.37 1.17-2.5 2.54-2.5h12.1c1.46 0 2.56 1.13 2.56 2.5v2.06h1.58v-2.06c0-1.37 1.17-2.5 2.55-2.5zm-.56 13.74v-10.67h-11v4.56h-7.78v-4.57h-10.94v4.56h-7.84v-4.57h-10.94v10.68h10.94v-4.55h7.84v4.56h10.94v-4.55h7.9v4.56zm-43.82-35.14c-11.63 0-18.78 3.56-18.78 6.12s7.15 6.12 18.78 6.12 18.78-3.56 18.78-6.12-7.15-6.12-18.78-6.12zm20.9 25.97c1.4 0 2.56 1.13 2.56 2.5v2.68c0 1.4-1.17 2.5-2.55 2.5h-2.7c-1.43 0-2.6-1.1-2.6-2.5v-2.67c0-1.37 1.17-2.5 2.6-2.5zm16.04 7.68c-1.37 0-2.54-1.1-2.54-2.5v-2.67c0-1.37 1.17-2.5 2.54-2.5h2.76c1.37 0 2.54 1.13 2.54 2.5v2.68c0 1.4-1.17 2.5-2.54 2.5zm-34.8-7.67c1.44 0 2.54 1.13 2.54 2.5v2.68c0 1.4-1.1 2.5-2.55 2.5h-2.67c-1.45 0-2.55-1.1-2.55-2.5v-2.67c0-1.37 1.1-2.5 2.55-2.5zm-2.14 4.62h1.58v-1.56h-1.58zm18.78 0h1.58v-1.56h-1.58zm18.78 0h1.52v-1.56h-1.52z" stroke="#000" stroke-opacity="0" fill="#78ffff"/><use xlink:href="#o" transform="matrix(1,0,0,1,1110,713.7854203409761) translate(41.82098765432099 17.77777777777778)"/><path d="M1720 675.78V680a50 50 0 0 1-50 50h-50a50 50 0 0 1-50-50v-31.6a50 50 0 0 1 50-50h38.5" stroke="#fe7070" fill="none"/><path d="M1720 661l4.63 14.28h-9.27z" stroke="#fe7070" fill="#fe7070"/><path d="M1659 598.9h-.5v-1h.5z" stroke="#fe7070" stroke-width=".05" fill="#fe7070"/><use xlink:href="#x" transform="matrix(1,0,0,1,1556.6470783701795,734) translate(0 14.222222222222223)"/><use xlink:href="#y" transform="matrix(1,0,0,1,1556.6470783701795,734) translate(56.19753086419754 14.222222222222223)"/><path d="M1563.62 700.5h-5.2v-1h5.2zm-10.4 0h-1.06v-1h1.04zm-6.26 0h-1.04v-1h1.04zm-6.25 0h-10.4v-1h10.4zm-15.6 0h-1.04v-1h1.04zm-6.25 0h-1.04v-1h1.05zm-152.27 0h-4.93v-1h4.93zm-10.14 0h-1.04v-1h1.04zm-6.25 0h-1.05v-1h1.04zm-6.25 0h-10.4v-1h10.4zm-15.62 0h-1.04v-1h1.03zm-6.24 0h-1.05v-1h1.04zm-6.26 0h-5.2v-1h5.2zm196.76 0h-4.93v-1h4.93z" stroke="#3a414a" stroke-width=".05" fill="#3a414a"/><path d="M1578.38 700l-14.26 4.63v-9.26z" fill="#3a414a"/><path d="M1580 700l-16.38 5.32v-10.64zm-15.38 3.95l12.14-3.95-12.14-3.95z" stroke="#3a414a" stroke-width=".05" fill="#3a414a"/><path d="M1310.13 704.63l-14.26-4.63 14.26-4.63z" fill="#3a414a"/><path d="M1310.63 705.32l-16.38-5.32 16.38-5.32zM1297.5 700l12.13 3.95v-7.9z" stroke="#3a414a" stroke-width=".05" fill="#3a414a"/><use xlink:href="#z" transform="matrix(1,0,0,1,1366.5817901234568,689.3333333333334) translate(0 14.222222222222223)"/><use xlink:href="#A" transform="matrix(1,0,0,1,1366.5817901234568,689.3333333333334) translate(76 14.222222222222223)"/><use xlink:href="#B" transform="matrix(1,0,0,1,1366.5817901234568,689.3333333333334) translate(93.7283950617284 14.222222222222223)"/><path d="M480 661.5V690a50 50 0 0 0 50 50h50a50 50 0 0 0 50-50v-40a50 50 0 0 0-50-50h-22.62" stroke="#fe7070" fill="none"/><path d="M480.5 661.5h-1v-.5h1z" stroke="#fe7070" stroke-width=".05" fill="#fe7070"/><path d="M542.62 600l14.26-4.63v9.26z" stroke="#fe7070" fill="#fe7070"/><use xlink:href="#C" transform="matrix(1,0,0,1,453.81613196187993,744) translate(0 14.222222222222223)"/><use xlink:href="#D" transform="matrix(1,0,0,1,453.81613196187993,744) translate(164.64197530864197 14.222222222222223)"/><use xlink:href="#E" transform="matrix(1,0,0,1,453.81613196187993,744) translate(0 35.55555555555556)"/><use xlink:href="#F" transform="matrix(1,0,0,1,453.81613196187993,744) translate(153.8271604938272 35.55555555555556)"/><use xlink:href="#G" transform="matrix(1,0,0,1,453.81613196187993,744) translate(0 56.88888888888889)"/><use xlink:href="#H" transform="matrix(1,0,0,1,453.81613196187993,744) translate(157.72839506172838 56.88888888888889)"/><path d="M889.37 685.85h-5.5v-1h5.5zm-11 0h-1.1v-1h1.1zm-6.6 0h-1.1v-1h1.1zm-6.6 0h-11v-1h11zm-16.5 0h-1.1v-1h1.1zm-6.6 0h-1.1v-1h1.1zm-147.28-5.35h-1.1v-1h1.1zm-6.6 0h-1.1v-1h1.1zm-6.6 0h-11v-1h11zm-16.5 0H664v-1h1.1zm-6.6 0h-1.12v-1h1.1zm-6.62 0h-5.5v-1h5.5z" stroke="#3a414a" stroke-width=".05" fill="#3a414a"/><path d="M904.13 685.35l-14.26 4.63v-9.27z" fill="#3a414a"/><path d="M905.75 685.35l-16.38 5.32v-10.64zm-15.38 3.95l12.14-3.95-12.13-3.95z" stroke="#3a414a" stroke-width=".05" fill="#3a414a"/><path d="M645.88 684.63L631.62 680l14.26-4.63z" fill="#3a414a"/><path d="M646.38 685.32L630 680l16.38-5.32zM633.24 680l12.14 3.95v-7.9z" stroke="#3a414a" stroke-width=".05" fill="#3a414a"/><use xlink:href="#z" transform="matrix(1,0,0,1,697.3317901234568,672.0081133484626) translate(0 14.222222222222223)"/><use xlink:href="#A" transform="matrix(1,0,0,1,697.3317901234568,672.0081133484626) translate(76 14.222222222222223)"/><use xlink:href="#B" transform="matrix(1,0,0,1,697.3317901234568,672.0081133484626) translate(93.7283950617284 14.222222222222223)"/><path d="M103.68 885.17l-21.4 6.77-15 5.47-11.87 4.9-9.84 4.57-8.45 4.34-7.38 4.22-6.55 4.1-5.88 4.03-5.34 4-4.86 3.97-4.47 3.97-4.12 3.98-3.82 4.03-3.55 4.08-3.32 4.14-3.1 4.22-2.64 3.92-.83-.56 2.65-3.93 3.13-4.26 3.36-4.16 3.6-4.1 3.84-4.06 4.15-4.02 4.5-4 4.9-4 5.36-4.02 5.92-4.06 6.6-4.12 7.4-4.23 8.5-4.36 9.9-4.58 11.9-4.92 15.05-5.5 21.42-6.77 51.77-14.5h3.7zm299.06-230.34l-3.76.56-4.05.76-3.8.9-3.56 1-3.38 1.1-3.23 1.2-3.1 1.3-2.95 1.4-2.87 1.5-2.8 1.62-2.7 1.74-2.7 1.86-2.63 2-2.62 2.2-2.62 2.35-2.63 2.58-2.67 2.86-2.72 3.16-2.8 3.56-2.95 4.06-3.12 4.73-3.43 5.68-3.92 7.18L305 769.78l-5.57 11.28-4.52 8.25-4.02 6.7-3.77 5.7-3.6 4.97-3.5 4.44-3.47 4.03-3.43 3.67-3.45 3.38-3.47 3.13-3.52 2.93-.6.5-3.83 2.85-4.28 2.94-4.86 3.04-5.6 3.17-6.5 3.36-7.8 3.6-1.67.68h-2.62l3.9-1.6 7.75-3.6 6.48-3.33 5.54-3.15 4.83-3.02 4.25-2.92 3.8-2.84.6-.47 3.48-2.9 3.44-3.1 3.4-3.35 3.42-3.64 3.42-3.98 3.48-4.4 3.6-4.96 3.73-5.66 4.02-6.65 4.5-8.2 5.53-11.25 26.75-59.67 3.96-7.23 3.43-5.72 3.16-4.76 2.95-4.1 2.84-3.58 2.74-3.2 2.7-2.88 2.65-2.62 2.64-2.4 2.66-2.2 2.67-2.03 2.7-1.9 2.77-1.74 2.83-1.64 2.9-1.53 3-1.42 3.13-1.32 3.26-1.2 3.42-1.13 3.6-1 3.85-.92 4.1-.78 3.76-.56z" stroke="#fe7070" stroke-width=".05" fill="#fe7070"/><path d="M-17.93 959.85l-.28.42-.86-.54.3-.44z" fill="#fe7070"/><path d="M-17.9 959.84l-.3.46-.9-.56.33-.48zm-1.12-.12l.8.5.25-.36-.78-.53z" stroke="#fe7070" stroke-width=".05" fill="#fe7070"/><path d="M417.4 653.4l-13.95 5.53-.6-9.25z" fill="#fe7070"/><path d="M419 653.3l-16 6.35-.7-10.63zm-15.1 4.9l11.87-4.7-12.38-3.17z" stroke="#fe7070" stroke-width=".05" fill="#fe7070"/><g><use xlink:href="#I" transform="matrix(1,0,0,1,125.1252025933498,848.3804899658954) translate(0 14.222222222222223)"/></g><path d="M64.22 920l-1.85.07-8 .6-6.85.83-5.96.96-5.3 1.08-4.76 1.2-4.34 1.27-4 1.37-3.7 1.43-3.44 1.5-3.23 1.58-3.07 1.66-2.9 1.73-2.77 1.8-2.65 1.9-2.55 2-2.46 2.1-2.4 2.2-2.18 2.2-.7-.7 2.2-2.2 2.4-2.25 2.5-2.12 2.6-2.02 2.67-1.93 2.8-1.83 2.94-1.75 3.1-1.68 3.27-1.6 3.5-1.53 3.72-1.44 4.03-1.37 4.38-1.3 4.8-1.2 5.35-1.08 6-.98 6.88-.8 8.05-.63 1.92-.06zm416.62-180.24l-.68 11-.87 8.34-1.02 6.9-1.15 6-1.27 5.42-1.4 5-1.53 4.74-1.7 4.53-1.84 4.4-2.06 4.36-2.28 4.35-2.54 4.4-2.86 4.5-3.25 4.7-3.72 4.9-4.34 5.24-5.12 5.7-6.18 6.28-7.6 7.14-9.67 8.33-12.8 10.12L389 879.14l-27.64 18.3-6.13 3.86-6.37 3.8-6.55 3.54-3.56 1.74h-2.28l5.4-2.63 6.5-3.52 6.34-3.78 6.1-3.85 27.63-18.28 17.93-13 12.77-10.1 9.64-8.3 7.58-7.1 6.14-6.28 5.1-5.65 4.3-5.22 3.7-4.88 3.23-4.64 2.84-4.47 2.52-4.37 2.24-4.32 2.03-4.3 1.84-4.38 1.7-4.5 1.5-4.68 1.4-4.97 1.25-5.38 1.14-5.98 1-6.85.86-8.28.68-10.97-.34-78.22h1z" stroke="#fe7070" stroke-width=".05" fill="#fe7070"/><path d="M480.5 661.5l-1 .02V661h1z" fill="#fe7070"/><path d="M480.53 661.54h-1.05v-.56h1.04zm-1-.5v.45h.95V661z" stroke="#fe7070" stroke-width=".05" fill="#fe7070"/><path d="M-5.18 950.36l-12.46 8.37 5.16-14.1z" fill="#fe7070"/><path d="M-4.33 950.4l-14.3 9.6 5.92-16.18zm-12.3 7.05l10.6-7.12-6.2-4.87z" stroke="#fe7070" stroke-width=".05" fill="#fe7070"/><g><use xlink:href="#J" transform="matrix(1,0,0,1,64.21827460293997,910.3818579715464) translate(0 14.222222222222223)"/><use xlink:href="#K" transform="matrix(1,0,0,1,64.21827460293997,910.3818579715464) translate(76 14.222222222222223)"/><use xlink:href="#L" transform="matrix(1,0,0,1,64.21827460293997,910.3818579715464) translate(240.64197530864197 14.222222222222223)"/><use xlink:href="#M" transform="matrix(1,0,0,1,64.21827460293997,910.3818579715464) translate(277.08641975308643 14.222222222222223)"/><use xlink:href="#N" transform="matrix(1,0,0,1,64.21827460293997,910.3818579715464) translate(432.8888888888889 14.222222222222223)"/></g><path d="M75.31 653.8H37.4v-1H75.3zm343.2 0h-93.8v-1h93.8z" stroke="#fe7070" stroke-width=".05" fill="#fe7070"/><path d="M419 653.8h-.5v-1h.5z" fill="#fe7070"/><path d="M419.02 653.8h-.56v-1.04h.56zm-.5-1v.96h.46v-.95z" stroke="#fe7070" stroke-width=".05" fill="#fe7070"/><path d="M36.88 657.92l-14.26-4.63 14.26-4.65z" fill="#fe7070"/><path d="M37.38 658.6L21 653.3l16.38-5.33zm-13.14-5.3l12.14 3.94v-7.9z" stroke="#fe7070" stroke-width=".05" fill="#fe7070"/><g><use xlink:href="#O" transform="matrix(1,0,0,1,75.31464473261056,642.6215497258528) translate(0 14.222222222222223)"/><use xlink:href="#P" transform="matrix(1,0,0,1,75.31464473261056,642.6215497258528) translate(169.58024691358025 14.222222222222223)"/></g><path d="M-380 166a6 6 0 0 1 6-6h2948a6 6 0 0 1 6 6v988a6 6 0 0 1-6 6H-374a6 6 0 0 1-6-6z" stroke="#3a414a" fill="#41ccdb" fill-opacity=".11"/><defs><path fill="#3a414a" d="M185-189c-5-48-123-54-124 2 14 75 158 14 163 119 3 78-121 87-175 55-17-10-28-26-33-46l33-7c5 56 141 63 141-1 0-78-155-14-162-118-5-82 145-84 179-34 5 7 8 16 11 25" id="Q"/><path fill="#3a414a" d="M100-194c62-1 85 37 85 99 1 63-27 99-86 99S16-35 15-95c0-66 28-99 85-99zM99-20c44 1 53-31 53-75 0-43-8-75-51-75s-53 32-53 75 10 74 51 75" id="R"/><path fill="#3a414a" d="M84 4C-5 8 30-112 23-190h32v120c0 31 7 50 39 49 72-2 45-101 50-169h31l1 190h-30c-1-10 1-25-2-33-11 22-28 36-60 37" id="S"/><path fill="#3a414a" d="M114-163C36-179 61-72 57 0H25l-1-190h30c1 12-1 29 2 39 6-27 23-49 58-41v29" id="T"/><path fill="#3a414a" d="M96-169c-40 0-48 33-48 73s9 75 48 75c24 0 41-14 43-38l32 2c-6 37-31 61-74 61-59 0-76-41-82-99-10-93 101-131 147-64 4 7 5 14 7 22l-32 3c-4-21-16-35-41-35" id="U"/><path fill="#3a414a" d="M100-194c63 0 86 42 84 106H49c0 40 14 67 53 68 26 1 43-12 49-29l28 8c-11 28-37 45-77 45C44 4 14-33 15-96c1-61 26-98 85-98zm52 81c6-60-76-77-97-28-3 7-6 17-6 28h103" id="V"/><g id="a"><use transform="matrix(0.07407407407407407,0,0,0.07407407407407407,0,0)" xlink:href="#Q"/><use transform="matrix(0.07407407407407407,0,0,0.07407407407407407,17.77777777777778,0)" xlink:href="#R"/><use transform="matrix(0.07407407407407407,0,0,0.07407407407407407,32.592592592592595,0)" xlink:href="#S"/><use transform="matrix(0.07407407407407407,0,0,0.07407407407407407,47.407407407407405,0)" xlink:href="#T"/><use transform="matrix(0.07407407407407407,0,0,0.07407407407407407,56.22222222222222,0)" xlink:href="#U"/><use transform="matrix(0.07407407407407407,0,0,0.07407407407407407,69.55555555555556,0)" xlink:href="#V"/></g><path fill="#3a414a" d="M106-169C34-169 62-67 57 0H25v-261h32l-1 103c12-21 28-36 61-36 89 0 53 116 60 194h-32v-121c2-32-8-49-39-48" id="W"/><path fill="#3a414a" d="M141-36C126-15 110 5 73 4 37 3 15-17 15-53c-1-64 63-63 125-63 3-35-9-54-41-54-24 1-41 7-42 31l-33-3c5-37 33-52 76-52 45 0 72 20 72 64v82c-1 20 7 32 28 27v20c-31 9-61-2-59-35zM48-53c0 20 12 33 32 33 41-3 63-29 60-74-43 2-92-5-92 41" id="X"/><path fill="#3a414a" d="M24-231v-30h32v30H24zM24 0v-190h32V0H24" id="Y"/><path fill="#3a414a" d="M117-194c89-4 53 116 60 194h-32v-121c0-31-8-49-39-48C34-167 62-67 57 0H25l-1-190h30c1 10-1 24 2 32 11-22 29-35 61-36" id="Z"/><g id="b"><use transform="matrix(0.07407407407407407,0,0,0.07407407407407407,0,0)" xlink:href="#U"/><use transform="matrix(0.07407407407407407,0,0,0.07407407407407407,13.333333333333332,0)" xlink:href="#W"/><use transform="matrix(0.07407407407407407,0,0,0.07407407407407407,28.148148148148145,0)" xlink:href="#X"/><use transform="matrix(0.07407407407407407,0,0,0.07407407407407407,42.96296296296296,0)" xlink:href="#Y"/><use transform="matrix(0.07407407407407407,0,0,0.07407407407407407,48.81481481481481,0)" xlink:href="#Z"/></g><path fill="#3a414a" d="M233-177c-1 41-23 64-60 70L243 0h-38l-65-103H63V0H30v-248c88 3 205-21 203 71zM63-129c60-2 137 13 137-47 0-61-80-42-137-45v92" id="aa"/><path fill="#3a414a" d="M24 0v-261h32V0H24" id="ab"/><path fill="#3a414a" d="M179-190L93 31C79 59 56 82 12 73V49c39 6 53-20 64-50L1-190h34L92-34l54-156h33" id="ac"/><path fill="#3a414a" d="M135-143c-3-34-86-38-87 0 15 53 115 12 119 90S17 21 10-45l28-5c4 36 97 45 98 0-10-56-113-15-118-90-4-57 82-63 122-42 12 7 21 19 24 35" id="ad"/><g id="c"><use transform="matrix(0.06172839506172839,0,0,0.06172839506172839,0,0)" xlink:href="#aa"/><use transform="matrix(0.06172839506172839,0,0,0.06172839506172839,15.987654320987653,0)" xlink:href="#V"/><use transform="matrix(0.06172839506172839,0,0,0.06172839506172839,28.333333333333332,0)" xlink:href="#ab"/><use transform="matrix(0.06172839506172839,0,0,0.06172839506172839,33.20987654320987,0)" xlink:href="#X"/><use transform="matrix(0.06172839506172839,0,0,0.06172839506172839,45.55555555555555,0)" xlink:href="#ac"/><use transform="matrix(0.06172839506172839,0,0,0.06172839506172839,56.66666666666666,0)" xlink:href="#V"/><use transform="matrix(0.06172839506172839,0,0,0.06172839506172839,69.01234567901234,0)" xlink:href="#T"/><use transform="matrix(0.06172839506172839,0,0,0.06172839506172839,76.35802469135803,0)" xlink:href="#ad"/></g><linearGradient gradientUnits="userSpaceOnUse" id="d" x1="-100" y1="660" x2="20" y2="540"><stop offset="0%" stop-color="#41ccdb"/><stop offset="100%" stop-color="#78ffc0"/></linearGradient><path fill="#3a414a" d="M210-169c-67 3-38 105-44 169h-31v-121c0-29-5-50-35-48C34-165 62-65 56 0H25l-1-190h30c1 10-1 24 2 32 10-44 99-50 107 0 11-21 27-35 58-36 85-2 47 119 55 194h-31v-121c0-29-5-49-35-48" id="ae"/><path fill="#3a414a" d="M59-47c-2 24 18 29 38 22v24C64 9 27 4 27-40v-127H5v-23h24l9-43h21v43h35v23H59v120" id="af"/><g id="e"><use transform="matrix(0.06172839506172839,0,0,0.06172839506172839,0,0)" xlink:href="#Q"/><use transform="matrix(0.06172839506172839,0,0,0.06172839506172839,14.814814814814813,0)" xlink:href="#ae"/><use transform="matrix(0.06172839506172839,0,0,0.06172839506172839,33.2716049382716,0)" xlink:href="#X"/><use transform="matrix(0.06172839506172839,0,0,0.06172839506172839,45.61728395061728,0)" xlink:href="#T"/><use transform="matrix(0.06172839506172839,0,0,0.06172839506172839,52.962962962962955,0)" xlink:href="#af"/></g><path fill="#3a414a" d="M212-179c-10-28-35-45-73-45-59 0-87 40-87 99 0 60 29 101 89 101 43 0 62-24 78-52l27 14C228-24 195 4 139 4 59 4 22-46 18-125c-6-104 99-153 187-111 19 9 31 26 39 46" id="ag"/><g id="f"><use transform="matrix(0.06172839506172839,0,0,0.06172839506172839,0,0)" xlink:href="#ag"/><use transform="matrix(0.06172839506172839,0,0,0.06172839506172839,15.987654320987653,0)" xlink:href="#R"/><use transform="matrix(0.06172839506172839,0,0,0.06172839506172839,28.333333333333332,0)" xlink:href="#Z"/><use transform="matrix(0.06172839506172839,0,0,0.06172839506172839,40.67901234567901,0)" xlink:href="#af"/><use transform="matrix(0.06172839506172839,0,0,0.06172839506172839,46.851851851851855,0)" xlink:href="#T"/><use transform="matrix(0.06172839506172839,0,0,0.06172839506172839,54.19753086419753,0)" xlink:href="#X"/><use transform="matrix(0.06172839506172839,0,0,0.06172839506172839,66.54320987654322,0)" xlink:href="#U"/><use transform="matrix(0.06172839506172839,0,0,0.06172839506172839,77.65432098765433,0)" xlink:href="#af"/></g><path fill="#3a414a" d="M205 0l-28-72H64L36 0H1l101-248h38L239 0h-34zm-38-99l-47-123c-12 45-31 82-46 123h93" id="ah"/><use transform="matrix(0.06172839506172839,0,0,0.06172839506172839,0,0)" xlink:href="#ah" id="g"/><linearGradient gradientUnits="userSpaceOnUse" id="h" x1="2180" y1="658.39" x2="2300" y2="538.39"><stop offset="0%" stop-color="#41ccdb"/><stop offset="100%" stop-color="#78ffc0"/></linearGradient><path fill="#3a414a" d="M160-131c35 5 61 23 61 61C221 17 115-2 30 0v-248c76 3 177-17 177 60 0 33-19 50-47 57zm-97-11c50-1 110 9 110-42 0-47-63-36-110-37v79zm0 115c55-2 124 14 124-45 0-56-70-42-124-44v89" id="ai"/><use transform="matrix(0.06172839506172839,0,0,0.06172839506172839,0,0)" xlink:href="#ai" id="i"/><linearGradient gradientUnits="userSpaceOnUse" id="j" x1="420" y1="660" x2="540" y2="540"><stop offset="0%" stop-color="#41ccdb"/><stop offset="100%" stop-color="#78ffc0"/></linearGradient><path fill="#3a414a" d="M141 0L90-78 38 0H4l68-98-65-92h35l48 74 47-74h35l-64 92 68 98h-35" id="aj"/><g id="k"><use transform="matrix(0.06172839506172839,0,0,0.06172839506172839,0,0)" xlink:href="#aj"/><use transform="matrix(0.06172839506172839,0,0,0.06172839506172839,11.11111111111111,0)" xlink:href="#ag"/><use transform="matrix(0.06172839506172839,0,0,0.06172839506172839,27.098765432098766,0)" xlink:href="#X"/><use transform="matrix(0.06172839506172839,0,0,0.06172839506172839,39.44444444444444,0)" xlink:href="#ab"/><use transform="matrix(0.06172839506172839,0,0,0.06172839506172839,44.32098765432099,0)" xlink:href="#ab"/></g><g id="l"><use transform="matrix(0.06172839506172839,0,0,0.06172839506172839,0,0)" xlink:href="#Q"/><use transform="matrix(0.06172839506172839,0,0,0.06172839506172839,14.814814814814813,0)" xlink:href="#ae"/><use transform="matrix(0.06172839506172839,0,0,0.06172839506172839,33.2716049382716,0)" xlink:href="#X"/><use transform="matrix(0.06172839506172839,0,0,0.06172839506172839,45.61728395061728,0)" xlink:href="#T"/><use transform="matrix(0.06172839506172839,0,0,0.06172839506172839,52.962962962962955,0)" xlink:href="#af"/></g><g id="m"><use transform="matrix(0.06172839506172839,0,0,0.06172839506172839,0,0)" xlink:href="#ag"/><use transform="matrix(0.06172839506172839,0,0,0.06172839506172839,15.987654320987653,0)" xlink:href="#R"/><use transform="matrix(0.06172839506172839,0,0,0.06172839506172839,28.333333333333332,0)" xlink:href="#Z"/><use transform="matrix(0.06172839506172839,0,0,0.06172839506172839,40.67901234567901,0)" xlink:href="#af"/><use transform="matrix(0.06172839506172839,0,0,0.06172839506172839,46.851851851851855,0)" xlink:href="#T"/><use transform="matrix(0.06172839506172839,0,0,0.06172839506172839,54.19753086419753,0)" xlink:href="#X"/><use transform="matrix(0.06172839506172839,0,0,0.06172839506172839,66.54320987654322,0)" xlink:href="#U"/><use transform="matrix(0.06172839506172839,0,0,0.06172839506172839,77.65432098765433,0)" xlink:href="#af"/></g><linearGradient gradientUnits="userSpaceOnUse" id="n" x1="960" y1="556.09" x2="1060" y2="458.7"><stop offset="0%" stop-color="#41ccdb"/><stop offset="100%" stop-color="#78ffc0"/></linearGradient><g id="o"><use transform="matrix(0.06172839506172839,0,0,0.06172839506172839,0,0)" xlink:href="#aa"/><use transform="matrix(0.06172839506172839,0,0,0.06172839506172839,15.987654320987653,0)" xlink:href="#V"/><use transform="matrix(0.06172839506172839,0,0,0.06172839506172839,28.333333333333332,0)" xlink:href="#ab"/><use transform="matrix(0.06172839506172839,0,0,0.06172839506172839,33.20987654320987,0)" xlink:href="#X"/><use transform="matrix(0.06172839506172839,0,0,0.06172839506172839,45.55555555555555,0)" xlink:href="#ac"/><use transform="matrix(0.06172839506172839,0,0,0.06172839506172839,56.66666666666666,0)" xlink:href="#V"/><use transform="matrix(0.06172839506172839,0,0,0.06172839506172839,69.01234567901234,0)" xlink:href="#T"/></g><linearGradient gradientUnits="userSpaceOnUse" id="p" x1="1660" y1="658.39" x2="1780" y2="538.39"><stop offset="0%" stop-color="#41ccdb"/><stop offset="100%" stop-color="#78ffc0"/></linearGradient><g id="q"><use transform="matrix(0.06172839506172839,0,0,0.06172839506172839,0,0)" xlink:href="#ag"/><use transform="matrix(0.06172839506172839,0,0,0.06172839506172839,15.987654320987653,0)" xlink:href="#ab"/><use transform="matrix(0.06172839506172839,0,0,0.06172839506172839,20.864197530864196,0)" xlink:href="#Y"/><use transform="matrix(0.06172839506172839,0,0,0.06172839506172839,25.74074074074074,0)" xlink:href="#V"/><use transform="matrix(0.06172839506172839,0,0,0.06172839506172839,38.08641975308642,0)" xlink:href="#Z"/><use transform="matrix(0.06172839506172839,0,0,0.06172839506172839,50.432098765432094,0)" xlink:href="#af"/></g><path fill="#333" d="M136-208V0H84v-208H4v-40h212v40h-80" id="ak"/><path fill="#333" d="M135-150c-39-12-60 13-60 57V0H25l-1-190h47c2 13-1 29 3 40 6-28 27-53 61-41v41" id="al"/><path fill="#333" d="M25-224v-37h50v37H25zM25 0v-190h50V0H25" id="am"/><path fill="#333" d="M195-6C206 82 75 100 31 46c-4-6-6-13-8-21l49-6c3 16 16 24 34 25 40 0 42-37 40-79-11 22-30 35-61 35-53 0-70-43-70-97 0-56 18-96 73-97 30 0 46 14 59 34l2-30h47zm-90-29c32 0 41-27 41-63 0-35-9-62-40-62-32 0-39 29-40 63 0 36 9 62 39 62" id="an"/><path fill="#333" d="M185-48c-13 30-37 53-82 52C43 2 14-33 14-96s30-98 90-98c62 0 83 45 84 108H66c0 31 8 55 39 56 18 0 30-7 34-22zm-45-69c5-46-57-63-70-21-2 6-4 13-4 21h74" id="ao"/><g id="r"><use transform="matrix(0.04938271604938272,0,0,0.04938271604938272,0,0)" xlink:href="#ak"/><use transform="matrix(0.04938271604938272,0,0,0.04938271604938272,9.82716049382716,0)" xlink:href="#al"/><use transform="matrix(0.04938271604938272,0,0,0.04938271604938272,16.74074074074074,0)" xlink:href="#am"/><use transform="matrix(0.04938271604938272,0,0,0.04938271604938272,21.679012345679013,0)" xlink:href="#an"/><use transform="matrix(0.04938271604938272,0,0,0.04938271604938272,32.49382716049383,0)" xlink:href="#an"/><use transform="matrix(0.04938271604938272,0,0,0.04938271604938272,43.308641975308646,0)" xlink:href="#ao"/><use transform="matrix(0.04938271604938272,0,0,0.04938271604938272,53.18518518518519,0)" xlink:href="#al"/></g><path fill="#333" d="M144 0l-44-69L55 0H2l70-98-66-92h53l41 62 40-62h54l-67 91 71 99h-54" id="ap"/><path fill="#333" d="M190-63c-7 42-38 67-86 67-59 0-84-38-90-98-12-110 154-137 174-36l-49 2c-2-19-15-32-35-32-30 0-35 28-38 64-6 74 65 87 74 30" id="aq"/><path fill="#333" d="M85 4C-2 5 27-109 22-190h50c7 57-23 150 33 157 60-5 35-97 40-157h50l1 190h-47c-2-12 1-28-3-38-12 25-28 42-61 42" id="ar"/><path fill="#333" d="M115-3C79 11 28 4 28-45v-112H4v-33h27l15-45h31v45h36v33H77v99c-1 23 16 31 38 25v30" id="as"/><path fill="#333" d="M67-125c0 53 21 87 73 88 37 1 54-22 65-47l45 17C233-25 199 4 140 4 58 4 20-42 15-125 8-235 124-281 211-232c18 10 29 29 36 50l-46 12c-8-25-30-41-62-41-52 0-71 34-72 86" id="at"/><path fill="#333" d="M133-34C117-15 103 5 69 4 32 3 11-16 11-54c-1-60 55-63 116-61 1-26-3-47-28-47-18 1-26 9-28 27l-52-2c7-38 36-58 82-57s74 22 75 68l1 82c-1 14 12 18 25 15v27c-30 8-71 5-69-32zm-48 3c29 0 43-24 42-57-32 0-66-3-65 30 0 17 8 27 23 27" id="au"/><path fill="#333" d="M25 0v-261h50V0H25" id="av"/><g id="s"><use transform="matrix(0.04938271604938272,0,0,0.04938271604938272,0,0)" xlink:href="#ao"/><use transform="matrix(0.04938271604938272,0,0,0.04938271604938272,9.876543209876544,0)" xlink:href="#ap"/><use transform="matrix(0.04938271604938272,0,0,0.04938271604938272,19.75308641975309,0)" xlink:href="#ao"/><use transform="matrix(0.04938271604938272,0,0,0.04938271604938272,29.629629629629633,0)" xlink:href="#aq"/><use transform="matrix(0.04938271604938272,0,0,0.04938271604938272,39.50617283950618,0)" xlink:href="#ar"/><use transform="matrix(0.04938271604938272,0,0,0.04938271604938272,50.320987654320994,0)" xlink:href="#as"/><use transform="matrix(0.04938271604938272,0,0,0.04938271604938272,56.19753086419754,0)" xlink:href="#ao"/><use transform="matrix(0.04938271604938272,0,0,0.04938271604938272,66.07407407407408,0)" xlink:href="#at"/><use transform="matrix(0.04938271604938272,0,0,0.04938271604938272,78.8641975308642,0)" xlink:href="#au"/><use transform="matrix(0.04938271604938272,0,0,0.04938271604938272,88.74074074074075,0)" xlink:href="#av"/><use transform="matrix(0.04938271604938272,0,0,0.04938271604938272,93.67901234567901,0)" xlink:href="#av"/></g><path fill="#3a414a" d="M30-248c118-7 216 8 213 122C240-48 200 0 122 0H30v-248zM63-27c89 8 146-16 146-99s-60-101-146-95v194" id="aw"/><g id="t"><use transform="matrix(0.07407407407407407,0,0,0.07407407407407407,0,0)" xlink:href="#aw"/><use transform="matrix(0.07407407407407407,0,0,0.07407407407407407,19.185185185185183,0)" xlink:href="#V"/><use transform="matrix(0.07407407407407407,0,0,0.07407407407407407,34,0)" xlink:href="#ad"/><use transform="matrix(0.07407407407407407,0,0,0.07407407407407407,47.33333333333333,0)" xlink:href="#af"/><use transform="matrix(0.07407407407407407,0,0,0.07407407407407407,54.740740740740726,0)" xlink:href="#Y"/><use transform="matrix(0.07407407407407407,0,0,0.07407407407407407,60.59259259259258,0)" xlink:href="#Z"/><use transform="matrix(0.07407407407407407,0,0,0.07407407407407407,75.40740740740739,0)" xlink:href="#X"/><use transform="matrix(0.07407407407407407,0,0,0.07407407407407407,90.2222222222222,0)" xlink:href="#af"/><use transform="matrix(0.07407407407407407,0,0,0.07407407407407407,97.6296296296296,0)" xlink:href="#Y"/><use transform="matrix(0.07407407407407407,0,0,0.07407407407407407,103.48148148148145,0)" xlink:href="#R"/><use transform="matrix(0.07407407407407407,0,0,0.07407407407407407,118.29629629629626,0)" xlink:href="#Z"/></g><linearGradient gradientUnits="userSpaceOnUse" id="u" x1="1140" y1="556.09" x2="1240" y2="458.7"><stop offset="0%" stop-color="#41ccdb"/><stop offset="100%" stop-color="#78ffc0"/></linearGradient><linearGradient gradientUnits="userSpaceOnUse" id="v" x1="953.88" y1="704.79" x2="1053.88" y2="607.39"><stop offset="0%" stop-color="#41ccdb"/><stop offset="100%" stop-color="#78ffc0"/></linearGradient><linearGradient gradientUnits="userSpaceOnUse" id="w" x1="1140" y1="704.79" x2="1240" y2="607.39"><stop offset="0%" stop-color="#41ccdb"/><stop offset="100%" stop-color="#78ffc0"/></linearGradient><path fill="#fe7070" d="M76-208v77h127v40H76V0H24v-248h183v40H76" id="ax"/><path fill="#fe7070" d="M133-34C117-15 103 5 69 4 32 3 11-16 11-54c-1-60 55-63 116-61 1-26-3-47-28-47-18 1-26 9-28 27l-52-2c7-38 36-58 82-57s74 22 75 68l1 82c-1 14 12 18 25 15v27c-30 8-71 5-69-32zm-48 3c29 0 43-24 42-57-32 0-66-3-65 30 0 17 8 27 23 27" id="ay"/><path fill="#fe7070" d="M25-224v-37h50v37H25zM25 0v-190h50V0H25" id="az"/><path fill="#fe7070" d="M25 0v-261h50V0H25" id="aA"/><path fill="#fe7070" d="M185-48c-13 30-37 53-82 52C43 2 14-33 14-96s30-98 90-98c62 0 83 45 84 108H66c0 31 8 55 39 56 18 0 30-7 34-22zm-45-69c5-46-57-63-70-21-2 6-4 13-4 21h74" id="aB"/><path fill="#fe7070" d="M88-194c31-1 46 15 58 34l-1-101h50l1 261h-48c-2-10 0-23-3-31C134-8 116 4 84 4 32 4 16-41 15-95c0-56 19-97 73-99zm17 164c33 0 40-30 41-66 1-37-9-64-41-64s-38 30-39 65c0 43 13 65 39 65" id="aC"/><g id="x"><use transform="matrix(0.04938271604938272,0,0,0.04938271604938272,0,0)" xlink:href="#ax"/><use transform="matrix(0.04938271604938272,0,0,0.04938271604938272,10.814814814814815,0)" xlink:href="#ay"/><use transform="matrix(0.04938271604938272,0,0,0.04938271604938272,20.69135802469136,0)" xlink:href="#az"/><use transform="matrix(0.04938271604938272,0,0,0.04938271604938272,25.629629629629633,0)" xlink:href="#aA"/><use transform="matrix(0.04938271604938272,0,0,0.04938271604938272,30.567901234567906,0)" xlink:href="#aB"/><use transform="matrix(0.04938271604938272,0,0,0.04938271604938272,40.44444444444445,0)" xlink:href="#aC"/></g><path fill="#fe7070" d="M144 0l-44-69L55 0H2l70-98-66-92h53l41 62 40-62h54l-67 91 71 99h-54" id="aD"/><path fill="#fe7070" d="M190-63c-7 42-38 67-86 67-59 0-84-38-90-98-12-110 154-137 174-36l-49 2c-2-19-15-32-35-32-30 0-35 28-38 64-6 74 65 87 74 30" id="aE"/><path fill="#fe7070" d="M85 4C-2 5 27-109 22-190h50c7 57-23 150 33 157 60-5 35-97 40-157h50l1 190h-47c-2-12 1-28-3-38-12 25-28 42-61 42" id="aF"/><path fill="#fe7070" d="M115-3C79 11 28 4 28-45v-112H4v-33h27l15-45h31v45h36v33H77v99c-1 23 16 31 38 25v30" id="aG"/><path fill="#fe7070" d="M67-125c0 53 21 87 73 88 37 1 54-22 65-47l45 17C233-25 199 4 140 4 58 4 20-42 15-125 8-235 124-281 211-232c18 10 29 29 36 50l-46 12c-8-25-30-41-62-41-52 0-71 34-72 86" id="aH"/><g id="y"><use transform="matrix(0.04938271604938272,0,0,0.04938271604938272,0,0)" xlink:href="#aB"/><use transform="matrix(0.04938271604938272,0,0,0.04938271604938272,9.876543209876544,0)" xlink:href="#aD"/><use transform="matrix(0.04938271604938272,0,0,0.04938271604938272,19.75308641975309,0)" xlink:href="#aB"/><use transform="matrix(0.04938271604938272,0,0,0.04938271604938272,29.629629629629633,0)" xlink:href="#aE"/><use transform="matrix(0.04938271604938272,0,0,0.04938271604938272,39.50617283950618,0)" xlink:href="#aF"/><use transform="matrix(0.04938271604938272,0,0,0.04938271604938272,50.320987654320994,0)" xlink:href="#aG"/><use transform="matrix(0.04938271604938272,0,0,0.04938271604938272,56.19753086419754,0)" xlink:href="#aB"/><use transform="matrix(0.04938271604938272,0,0,0.04938271604938272,66.07407407407408,0)" xlink:href="#aH"/><use transform="matrix(0.04938271604938272,0,0,0.04938271604938272,78.8641975308642,0)" xlink:href="#ay"/><use transform="matrix(0.04938271604938272,0,0,0.04938271604938272,88.74074074074075,0)" xlink:href="#aA"/><use transform="matrix(0.04938271604938272,0,0,0.04938271604938272,93.67901234567901,0)" xlink:href="#aA"/></g><path fill="#333" d="M140-251c80 0 125 45 125 126S219 4 139 4C58 4 15-44 15-125s44-126 125-126zm-1 214c52 0 73-35 73-88 0-50-21-86-72-86-52 0-73 35-73 86s22 88 72 88" id="aI"/><path fill="#333" d="M135-194c52 0 70 43 70 98 0 56-19 99-73 100-30 1-46-15-58-35L72 0H24l1-261h50v104c11-23 29-37 60-37zM114-30c31 0 40-27 40-66 0-37-7-63-39-63s-41 28-41 65c0 36 8 64 40 64" id="aJ"/><path fill="#333" d="M137-138c1-29-70-34-71-4 15 46 118 7 119 86 1 83-164 76-172 9l43-7c4 19 20 25 44 25 33 8 57-30 24-41C81-84 22-81 20-136c-2-80 154-74 161-7" id="aK"/><path fill="#333" d="M128 0H69L1-190h53L99-40l48-150h52" id="aL"/><g id="z"><use transform="matrix(0.04938271604938272,0,0,0.04938271604938272,0,0)" xlink:href="#aI"/><use transform="matrix(0.04938271604938272,0,0,0.04938271604938272,13.827160493827162,0)" xlink:href="#aJ"/><use transform="matrix(0.04938271604938272,0,0,0.04938271604938272,24.641975308641975,0)" xlink:href="#aK"/><use transform="matrix(0.04938271604938272,0,0,0.04938271604938272,34.51851851851852,0)" xlink:href="#ao"/><use transform="matrix(0.04938271604938272,0,0,0.04938271604938272,44.39506172839506,0)" xlink:href="#al"/><use transform="matrix(0.04938271604938272,0,0,0.04938271604938272,51.308641975308646,0)" xlink:href="#aL"/><use transform="matrix(0.04938271604938272,0,0,0.04938271604938272,61.18518518518519,0)" xlink:href="#ao"/></g><path fill="#333" d="M168-19C124 19 11 11 16-68c3-43 29-60 59-75-25-44-12-111 53-106 37 3 64 15 64 52 0 43-40 52-69 68 12 22 27 41 43 59 14-19 21-38 28-64l37 13c-8 29-19 52-34 74 12 10 32 16 52 10v35c-28 11-65-2-81-17zm-58-139c19-9 43-14 43-39 0-14-10-22-25-22-34 0-33 41-18 61zM60-68c-3 40 55 47 79 25-18-20-34-42-48-67-18 8-30 20-31 42" id="aM"/><use transform="matrix(0.04938271604938272,0,0,0.04938271604938272,0,0)" xlink:href="#aM" id="A"/><path fill="#333" d="M240-174c0 40-23 61-54 70L253 0h-59l-57-94H76V0H24v-248c93 4 217-23 216 74zM76-134c48-2 112 12 112-38 0-48-66-32-112-35v73" id="aN"/><path fill="#333" d="M123 10C108 53 80 86 19 72V37c35 8 53-11 59-39L3-190h52l48 148c12-52 28-100 44-148h51" id="aO"/><g id="B"><use transform="matrix(0.04938271604938272,0,0,0.04938271604938272,0,0)" xlink:href="#aN"/><use transform="matrix(0.04938271604938272,0,0,0.04938271604938272,12.790123456790125,0)" xlink:href="#ao"/><use transform="matrix(0.04938271604938272,0,0,0.04938271604938272,22.66666666666667,0)" xlink:href="#av"/><use transform="matrix(0.04938271604938272,0,0,0.04938271604938272,27.604938271604947,0)" xlink:href="#au"/><use transform="matrix(0.04938271604938272,0,0,0.04938271604938272,37.48148148148149,0)" xlink:href="#aO"/></g><path fill="#fe7070" d="M240-174c0 40-23 61-54 70L253 0h-59l-57-94H76V0H24v-248c93 4 217-23 216 74zM76-134c48-2 112 12 112-38 0-48-66-32-112-35v73" id="aP"/><path fill="#fe7070" d="M137-138c1-29-70-34-71-4 15 46 118 7 119 86 1 83-164 76-172 9l43-7c4 19 20 25 44 25 33 8 57-30 24-41C81-84 22-81 20-136c-2-80 154-74 161-7" id="aQ"/><path fill="#fe7070" d="M135-194c53 0 70 44 70 98 0 56-19 98-73 100-31 1-45-17-59-34 3 33 2 69 2 105H25l-1-265h48c2 10 0 23 3 31 11-24 29-35 60-35zM114-30c33 0 39-31 40-66 0-38-9-64-40-64-56 0-55 130 0 130" id="aR"/><path fill="#fe7070" d="M110-194c64 0 96 36 96 99 0 64-35 99-97 99-61 0-95-36-95-99 0-62 34-99 96-99zm-1 164c35 0 45-28 45-65 0-40-10-65-43-65-34 0-45 26-45 65 0 36 10 65 43 65" id="aS"/><path fill="#fe7070" d="M135-194c87-1 58 113 63 194h-50c-7-57 23-157-34-157-59 0-34 97-39 157H25l-1-190h47c2 12-1 28 3 38 12-26 28-41 61-42" id="aT"/><path fill="#fe7070" d="M230 0l2-204L168 0h-37L68-204 70 0H24v-248h70l56 185 57-185h69V0h-46" id="aU"/><path fill="#fe7070" d="M195-6C206 82 75 100 31 46c-4-6-6-13-8-21l49-6c3 16 16 24 34 25 40 0 42-37 40-79-11 22-30 35-61 35-53 0-70-43-70-97 0-56 18-96 73-97 30 0 46 14 59 34l2-30h47zm-90-29c32 0 41-27 41-63 0-35-9-62-40-62-32 0-39 29-40 63 0 36 9 62 39 62" id="aV"/><g id="C"><use transform="matrix(0.04938271604938272,0,0,0.04938271604938272,0,0)" xlink:href="#aP"/><use transform="matrix(0.04938271604938272,0,0,0.04938271604938272,12.790123456790125,0)" xlink:href="#aB"/><use transform="matrix(0.04938271604938272,0,0,0.04938271604938272,22.66666666666667,0)" xlink:href="#aQ"/><use transform="matrix(0.04938271604938272,0,0,0.04938271604938272,32.543209876543216,0)" xlink:href="#aR"/><use transform="matrix(0.04938271604938272,0,0,0.04938271604938272,43.35802469135803,0)" xlink:href="#aS"/><use transform="matrix(0.04938271604938272,0,0,0.04938271604938272,54.17283950617284,0)" xlink:href="#aT"/><use transform="matrix(0.04938271604938272,0,0,0.04938271604938272,64.98765432098766,0)" xlink:href="#aQ"/><use transform="matrix(0.04938271604938272,0,0,0.04938271604938272,74.8641975308642,0)" xlink:href="#aB"/><use transform="matrix(0.04938271604938272,0,0,0.04938271604938272,84.74074074074075,0)" xlink:href="#aU"/><use transform="matrix(0.04938271604938272,0,0,0.04938271604938272,99.50617283950618,0)" xlink:href="#aB"/><use transform="matrix(0.04938271604938272,0,0,0.04938271604938272,109.38271604938272,0)" xlink:href="#aQ"/><use transform="matrix(0.04938271604938272,0,0,0.04938271604938272,119.25925925925927,0)" xlink:href="#aQ"/><use transform="matrix(0.04938271604938272,0,0,0.04938271604938272,129.1358024691358,0)" xlink:href="#ay"/><use transform="matrix(0.04938271604938272,0,0,0.04938271604938272,139.01234567901236,0)" xlink:href="#aV"/><use transform="matrix(0.04938271604938272,0,0,0.04938271604938272,149.82716049382717,0)" xlink:href="#aB"/></g><path fill="#fe7070" d="M24 0v-248h195v40H76v63h132v40H76v65h150V0H24" id="aW"/><path fill="#fe7070" d="M128 0H69L1-190h53L99-40l48-150h52" id="aX"/><g id="D"><use transform="matrix(0.04938271604938272,0,0,0.04938271604938272,0,0)" xlink:href="#aW"/><use transform="matrix(0.04938271604938272,0,0,0.04938271604938272,11.851851851851853,0)" xlink:href="#aX"/><use transform="matrix(0.04938271604938272,0,0,0.04938271604938272,21.7283950617284,0)" xlink:href="#aB"/><use transform="matrix(0.04938271604938272,0,0,0.04938271604938272,31.60493827160494,0)" xlink:href="#aT"/><use transform="matrix(0.04938271604938272,0,0,0.04938271604938272,42.41975308641976,0)" xlink:href="#aG"/></g><path fill="#fe7070" d="M135-194c52 0 70 43 70 98 0 56-19 99-73 100-30 1-46-15-58-35L72 0H24l1-261h50v104c11-23 29-37 60-37zM114-30c31 0 40-27 40-66 0-37-7-63-39-63s-41 28-41 65c0 36 8 64 40 64" id="aY"/><path fill="#fe7070" d="M147 0L96-86 75-71V0H25v-261h50v150l67-79h53l-66 74L201 0h-54" id="aZ"/><g id="E"><use transform="matrix(0.04938271604938272,0,0,0.04938271604938272,0,0)" xlink:href="#aP"/><use transform="matrix(0.04938271604938272,0,0,0.04938271604938272,12.790123456790125,0)" xlink:href="#aS"/><use transform="matrix(0.04938271604938272,0,0,0.04938271604938272,23.60493827160494,0)" xlink:href="#aA"/><use transform="matrix(0.04938271604938272,0,0,0.04938271604938272,28.543209876543212,0)" xlink:href="#aA"/><use transform="matrix(0.04938271604938272,0,0,0.04938271604938272,33.48148148148148,0)" xlink:href="#aY"/><use transform="matrix(0.04938271604938272,0,0,0.04938271604938272,44.2962962962963,0)" xlink:href="#ay"/><use transform="matrix(0.04938271604938272,0,0,0.04938271604938272,54.17283950617284,0)" xlink:href="#aE"/><use transform="matrix(0.04938271604938272,0,0,0.04938271604938272,64.0493827160494,0)" xlink:href="#aZ"/><use transform="matrix(0.04938271604938272,0,0,0.04938271604938272,73.92592592592594,0)" xlink:href="#aU"/><use transform="matrix(0.04938271604938272,0,0,0.04938271604938272,88.69135802469137,0)" xlink:href="#aB"/><use transform="matrix(0.04938271604938272,0,0,0.04938271604938272,98.56790123456791,0)" xlink:href="#aQ"/><use transform="matrix(0.04938271604938272,0,0,0.04938271604938272,108.44444444444446,0)" xlink:href="#aQ"/><use transform="matrix(0.04938271604938272,0,0,0.04938271604938272,118.320987654321,0)" xlink:href="#ay"/><use transform="matrix(0.04938271604938272,0,0,0.04938271604938272,128.19753086419755,0)" xlink:href="#aV"/><use transform="matrix(0.04938271604938272,0,0,0.04938271604938272,139.01234567901236,0)" xlink:href="#aB"/></g><g id="F"><use transform="matrix(0.04938271604938272,0,0,0.04938271604938272,0,0)" xlink:href="#aW"/><use transform="matrix(0.04938271604938272,0,0,0.04938271604938272,11.851851851851853,0)" xlink:href="#aX"/><use transform="matrix(0.04938271604938272,0,0,0.04938271604938272,21.7283950617284,0)" xlink:href="#aB"/><use transform="matrix(0.04938271604938272,0,0,0.04938271604938272,31.60493827160494,0)" xlink:href="#aT"/><use transform="matrix(0.04938271604938272,0,0,0.04938271604938272,42.41975308641976,0)" xlink:href="#aG"/></g><g id="G"><use transform="matrix(0.04938271604938272,0,0,0.04938271604938272,0,0)" xlink:href="#aP"/><use transform="matrix(0.04938271604938272,0,0,0.04938271604938272,12.790123456790125,0)" xlink:href="#aS"/><use transform="matrix(0.04938271604938272,0,0,0.04938271604938272,23.60493827160494,0)" xlink:href="#aA"/><use transform="matrix(0.04938271604938272,0,0,0.04938271604938272,28.543209876543212,0)" xlink:href="#aA"/><use transform="matrix(0.04938271604938272,0,0,0.04938271604938272,33.48148148148148,0)" xlink:href="#aY"/><use transform="matrix(0.04938271604938272,0,0,0.04938271604938272,44.2962962962963,0)" xlink:href="#ay"/><use transform="matrix(0.04938271604938272,0,0,0.04938271604938272,54.17283950617284,0)" xlink:href="#aE"/><use transform="matrix(0.04938271604938272,0,0,0.04938271604938272,64.0493827160494,0)" xlink:href="#aZ"/><use transform="matrix(0.04938271604938272,0,0,0.04938271604938272,73.92592592592594,0)" xlink:href="#aW"/><use transform="matrix(0.04938271604938272,0,0,0.04938271604938272,85.77777777777779,0)" xlink:href="#aD"/><use transform="matrix(0.04938271604938272,0,0,0.04938271604938272,95.65432098765433,0)" xlink:href="#aB"/><use transform="matrix(0.04938271604938272,0,0,0.04938271604938272,105.53086419753087,0)" xlink:href="#aE"/><use transform="matrix(0.04938271604938272,0,0,0.04938271604938272,115.40740740740742,0)" xlink:href="#aF"/><use transform="matrix(0.04938271604938272,0,0,0.04938271604938272,126.22222222222223,0)" xlink:href="#aG"/><use transform="matrix(0.04938271604938272,0,0,0.04938271604938272,132.09876543209876,0)" xlink:href="#aB"/><use transform="matrix(0.04938271604938272,0,0,0.04938271604938272,141.9753086419753,0)" xlink:href="#aC"/></g><g id="H"><use transform="matrix(0.04938271604938272,0,0,0.04938271604938272,0,0)" xlink:href="#aW"/><use transform="matrix(0.04938271604938272,0,0,0.04938271604938272,11.851851851851853,0)" xlink:href="#aX"/><use transform="matrix(0.04938271604938272,0,0,0.04938271604938272,21.7283950617284,0)" xlink:href="#aB"/><use transform="matrix(0.04938271604938272,0,0,0.04938271604938272,31.60493827160494,0)" xlink:href="#aT"/><use transform="matrix(0.04938271604938272,0,0,0.04938271604938272,42.41975308641976,0)" xlink:href="#aG"/></g><g id="I"><use transform="matrix(0.04938271604938272,0,0,0.04938271604938272,0,0)" xlink:href="#aB"/><use transform="matrix(0.04938271604938272,0,0,0.04938271604938272,9.876543209876544,0)" xlink:href="#aD"/><use transform="matrix(0.04938271604938272,0,0,0.04938271604938272,19.75308641975309,0)" xlink:href="#aB"/><use transform="matrix(0.04938271604938272,0,0,0.04938271604938272,29.629629629629633,0)" xlink:href="#aE"/><use transform="matrix(0.04938271604938272,0,0,0.04938271604938272,39.50617283950618,0)" xlink:href="#aF"/><use transform="matrix(0.04938271604938272,0,0,0.04938271604938272,50.320987654320994,0)" xlink:href="#aG"/><use transform="matrix(0.04938271604938272,0,0,0.04938271604938272,56.19753086419754,0)" xlink:href="#aB"/><use transform="matrix(0.04938271604938272,0,0,0.04938271604938272,66.07407407407408,0)" xlink:href="#aP"/><use transform="matrix(0.04938271604938272,0,0,0.04938271604938272,78.8641975308642,0)" xlink:href="#aS"/><use transform="matrix(0.04938271604938272,0,0,0.04938271604938272,89.67901234567901,0)" xlink:href="#aA"/><use transform="matrix(0.04938271604938272,0,0,0.04938271604938272,94.61728395061729,0)" xlink:href="#aA"/><use transform="matrix(0.04938271604938272,0,0,0.04938271604938272,99.55555555555557,0)" xlink:href="#aY"/><use transform="matrix(0.04938271604938272,0,0,0.04938271604938272,110.37037037037038,0)" xlink:href="#ay"/><use transform="matrix(0.04938271604938272,0,0,0.04938271604938272,120.24691358024693,0)" xlink:href="#aE"/><use transform="matrix(0.04938271604938272,0,0,0.04938271604938272,130.12345679012347,0)" xlink:href="#aZ"/></g><path fill="#fe7070" d="M140-251c80 0 125 45 125 126S219 4 139 4C58 4 15-44 15-125s44-126 125-126zm-1 214c52 0 73-35 73-88 0-50-21-86-72-86-52 0-73 35-73 86s22 88 72 88" id="ba"/><path fill="#fe7070" d="M135-150c-39-12-60 13-60 57V0H25l-1-190h47c2 13-1 29 3 40 6-28 27-53 61-41v41" id="bb"/><g id="J"><use transform="matrix(0.04938271604938272,0,0,0.04938271604938272,0,0)" xlink:href="#ba"/><use transform="matrix(0.04938271604938272,0,0,0.04938271604938272,13.827160493827162,0)" xlink:href="#aY"/><use transform="matrix(0.04938271604938272,0,0,0.04938271604938272,24.641975308641975,0)" xlink:href="#aQ"/><use transform="matrix(0.04938271604938272,0,0,0.04938271604938272,34.51851851851852,0)" xlink:href="#aB"/><use transform="matrix(0.04938271604938272,0,0,0.04938271604938272,44.39506172839506,0)" xlink:href="#bb"/><use transform="matrix(0.04938271604938272,0,0,0.04938271604938272,51.308641975308646,0)" xlink:href="#aX"/><use transform="matrix(0.04938271604938272,0,0,0.04938271604938272,61.18518518518519,0)" xlink:href="#aB"/></g><g id="K"><use transform="matrix(0.04938271604938272,0,0,0.04938271604938272,0,0)" xlink:href="#aP"/><use transform="matrix(0.04938271604938272,0,0,0.04938271604938272,12.790123456790125,0)" xlink:href="#aB"/><use transform="matrix(0.04938271604938272,0,0,0.04938271604938272,22.66666666666667,0)" xlink:href="#aQ"/><use transform="matrix(0.04938271604938272,0,0,0.04938271604938272,32.543209876543216,0)" xlink:href="#aR"/><use transform="matrix(0.04938271604938272,0,0,0.04938271604938272,43.35802469135803,0)" xlink:href="#aS"/><use transform="matrix(0.04938271604938272,0,0,0.04938271604938272,54.17283950617284,0)" xlink:href="#aT"/><use transform="matrix(0.04938271604938272,0,0,0.04938271604938272,64.98765432098766,0)" xlink:href="#aQ"/><use transform="matrix(0.04938271604938272,0,0,0.04938271604938272,74.8641975308642,0)" xlink:href="#aB"/><use transform="matrix(0.04938271604938272,0,0,0.04938271604938272,84.74074074074075,0)" xlink:href="#aU"/><use transform="matrix(0.04938271604938272,0,0,0.04938271604938272,99.50617283950618,0)" xlink:href="#aB"/><use transform="matrix(0.04938271604938272,0,0,0.04938271604938272,109.38271604938272,0)" xlink:href="#aQ"/><use transform="matrix(0.04938271604938272,0,0,0.04938271604938272,119.25925925925927,0)" xlink:href="#aQ"/><use transform="matrix(0.04938271604938272,0,0,0.04938271604938272,129.1358024691358,0)" xlink:href="#ay"/><use transform="matrix(0.04938271604938272,0,0,0.04938271604938272,139.01234567901236,0)" xlink:href="#aV"/><use transform="matrix(0.04938271604938272,0,0,0.04938271604938272,149.82716049382717,0)" xlink:href="#aB"/></g><g id="L"><use transform="matrix(0.04938271604938272,0,0,0.04938271604938272,0,0)" xlink:href="#ay"/><use transform="matrix(0.04938271604938272,0,0,0.04938271604938272,9.876543209876544,0)" xlink:href="#aT"/><use transform="matrix(0.04938271604938272,0,0,0.04938271604938272,20.69135802469136,0)" xlink:href="#aC"/></g><path fill="#fe7070" d="M182-130c37 4 62 22 62 59C244 23 116-4 24 0v-248c84 5 203-23 205 63 0 31-19 50-47 55zM76-148c40-3 101 13 101-30 0-44-60-28-101-31v61zm0 110c48-3 116 14 116-37 0-48-69-32-116-35v72" id="bc"/><g id="M"><use transform="matrix(0.04938271604938272,0,0,0.04938271604938272,0,0)" xlink:href="#aP"/><use transform="matrix(0.04938271604938272,0,0,0.04938271604938272,12.790123456790125,0)" xlink:href="#aS"/><use transform="matrix(0.04938271604938272,0,0,0.04938271604938272,23.60493827160494,0)" xlink:href="#aA"/><use transform="matrix(0.04938271604938272,0,0,0.04938271604938272,28.543209876543212,0)" xlink:href="#aA"/><use transform="matrix(0.04938271604938272,0,0,0.04938271604938272,33.48148148148148,0)" xlink:href="#bc"/><use transform="matrix(0.04938271604938272,0,0,0.04938271604938272,46.27160493827161,0)" xlink:href="#ay"/><use transform="matrix(0.04938271604938272,0,0,0.04938271604938272,56.14814814814815,0)" xlink:href="#aE"/><use transform="matrix(0.04938271604938272,0,0,0.04938271604938272,66.0246913580247,0)" xlink:href="#aZ"/><use transform="matrix(0.04938271604938272,0,0,0.04938271604938272,75.90123456790124,0)" xlink:href="#aU"/><use transform="matrix(0.04938271604938272,0,0,0.04938271604938272,90.66666666666667,0)" xlink:href="#aB"/><use transform="matrix(0.04938271604938272,0,0,0.04938271604938272,100.54320987654322,0)" xlink:href="#aQ"/><use transform="matrix(0.04938271604938272,0,0,0.04938271604938272,110.41975308641976,0)" xlink:href="#aQ"/><use transform="matrix(0.04938271604938272,0,0,0.04938271604938272,120.2962962962963,0)" xlink:href="#ay"/><use transform="matrix(0.04938271604938272,0,0,0.04938271604938272,130.17283950617286,0)" xlink:href="#aV"/><use transform="matrix(0.04938271604938272,0,0,0.04938271604938272,140.98765432098767,0)" xlink:href="#aB"/></g><g id="N"><use transform="matrix(0.04938271604938272,0,0,0.04938271604938272,0,0)" xlink:href="#aW"/><use transform="matrix(0.04938271604938272,0,0,0.04938271604938272,11.851851851851853,0)" xlink:href="#aX"/><use transform="matrix(0.04938271604938272,0,0,0.04938271604938272,21.7283950617284,0)" xlink:href="#aB"/><use transform="matrix(0.04938271604938272,0,0,0.04938271604938272,31.60493827160494,0)" xlink:href="#aT"/><use transform="matrix(0.04938271604938272,0,0,0.04938271604938272,42.41975308641976,0)" xlink:href="#aG"/><use transform="matrix(0.04938271604938272,0,0,0.04938271604938272,48.296296296296305,0)" xlink:href="#aQ"/></g><path fill="#333" d="M114-157C55-157 80-60 75 0H25v-261h50l-1 109c12-26 28-41 61-42 86-1 58 113 63 194h-50c-7-57 23-157-34-157" id="bd"/><path fill="#333" d="M135-194c87-1 58 113 63 194h-50c-7-57 23-157-34-157-59 0-34 97-39 157H25l-1-190h47c2 12-1 28 3 38 12-26 28-41 61-42" id="be"/><path fill="#333" d="M88-194c31-1 46 15 58 34l-1-101h50l1 261h-48c-2-10 0-23-3-31C134-8 116 4 84 4 32 4 16-41 15-95c0-56 19-97 73-99zm17 164c33 0 40-30 41-66 1-37-9-64-41-64s-38 30-39 65c0 43 13 65 39 65" id="bf"/><path fill="#333" d="M230 0l2-204L168 0h-37L68-204 70 0H24v-248h70l56 185 57-185h69V0h-46" id="bg"/><g id="O"><use transform="matrix(0.04938271604938272,0,0,0.04938271604938272,0,0)" xlink:href="#bd"/><use transform="matrix(0.04938271604938272,0,0,0.04938271604938272,10.814814814814815,0)" xlink:href="#au"/><use transform="matrix(0.04938271604938272,0,0,0.04938271604938272,20.69135802469136,0)" xlink:href="#be"/><use transform="matrix(0.04938271604938272,0,0,0.04938271604938272,31.506172839506174,0)" xlink:href="#bf"/><use transform="matrix(0.04938271604938272,0,0,0.04938271604938272,42.320987654320994,0)" xlink:href="#av"/><use transform="matrix(0.04938271604938272,0,0,0.04938271604938272,47.25925925925927,0)" xlink:href="#ao"/><use transform="matrix(0.04938271604938272,0,0,0.04938271604938272,57.135802469135804,0)" xlink:href="#at"/><use transform="matrix(0.04938271604938272,0,0,0.04938271604938272,69.92592592592594,0)" xlink:href="#au"/><use transform="matrix(0.04938271604938272,0,0,0.04938271604938272,79.80246913580248,0)" xlink:href="#av"/><use transform="matrix(0.04938271604938272,0,0,0.04938271604938272,84.74074074074076,0)" xlink:href="#av"/><use transform="matrix(0.04938271604938272,0,0,0.04938271604938272,89.67901234567904,0)" xlink:href="#bg"/><use transform="matrix(0.04938271604938272,0,0,0.04938271604938272,104.44444444444447,0)" xlink:href="#ao"/><use transform="matrix(0.04938271604938272,0,0,0.04938271604938272,114.32098765432102,0)" xlink:href="#aK"/><use transform="matrix(0.04938271604938272,0,0,0.04938271604938272,124.19753086419756,0)" xlink:href="#aK"/><use transform="matrix(0.04938271604938272,0,0,0.04938271604938272,134.0740740740741,0)" xlink:href="#au"/><use transform="matrix(0.04938271604938272,0,0,0.04938271604938272,143.95061728395063,0)" xlink:href="#an"/><use transform="matrix(0.04938271604938272,0,0,0.04938271604938272,154.76543209876544,0)" xlink:href="#ao"/></g><path fill="#333" d="M67-93c0 74 22 123 53 168H70C40 30 18-18 18-93s22-123 52-168h50c-32 44-53 94-53 168" id="bh"/><path fill="#333" d="M110-194c64 0 96 36 96 99 0 64-35 99-97 99-61 0-95-36-95-99 0-62 34-99 96-99zm-1 164c35 0 45-28 45-65 0-40-10-65-43-65-34 0-45 26-45 65 0 36 10 65 43 65" id="bi"/><path fill="#333" d="M147 0L96-86 75-71V0H25v-261h50v150l67-79h53l-66 74L201 0h-54" id="bj"/><path fill="#333" d="M102-93c0 74-22 123-52 168H0C30 29 54-18 53-93c0-74-22-123-53-168h50c30 45 52 94 52 168" id="bk"/><g id="P"><use transform="matrix(0.04938271604938272,0,0,0.04938271604938272,0,0)" xlink:href="#bh"/><use transform="matrix(0.04938271604938272,0,0,0.04938271604938272,5.8765432098765435,0)" xlink:href="#al"/><use transform="matrix(0.04938271604938272,0,0,0.04938271604938272,12.790123456790125,0)" xlink:href="#bi"/><use transform="matrix(0.04938271604938272,0,0,0.04938271604938272,23.604938271604937,0)" xlink:href="#av"/><use transform="matrix(0.04938271604938272,0,0,0.04938271604938272,28.543209876543205,0)" xlink:href="#av"/><use transform="matrix(0.04938271604938272,0,0,0.04938271604938272,33.48148148148148,0)" xlink:href="#aJ"/><use transform="matrix(0.04938271604938272,0,0,0.04938271604938272,44.2962962962963,0)" xlink:href="#au"/><use transform="matrix(0.04938271604938272,0,0,0.04938271604938272,54.17283950617284,0)" xlink:href="#aq"/><use transform="matrix(0.04938271604938272,0,0,0.04938271604938272,64.0493827160494,0)" xlink:href="#bj"/><use transform="matrix(0.04938271604938272,0,0,0.04938271604938272,73.92592592592594,0)" xlink:href="#bk"/></g></defs></g></svg>